SplineFontDB: 3.0
FontName: Rachana-Bold
FullName: Rachana Bold
FamilyName: Rachana
Weight: Bold
Copyright: Digitized data copyright (c) 2015-2017 Hussain KH, Rajeesh K Nambiar, Santhosh Thottingal, Swathanthra Malayalam Computing (http://smc.org.in). Developed with the financial support from International Centre for Free and Open Source Software(ICFOSS), Govt of Kerala in 2014-15
Version: 2.0
ItalicAngle: 0
UnderlinePosition: -520
UnderlineWidth: 34
Ascent: 1434
Descent: 614
InvalidEm: 0
sfntRevision: 0x00010000
LayerCount: 2
Layer: 0 1 "Back" 1
Layer: 1 1 "Fore" 0
XUID: [1021 400 913805956 978101]
FSType: 0
OS2Version: 1
OS2_WeightWidthSlopeOnly: 0
OS2_UseTypoMetrics: 1
CreationTime: 1201144321
ModificationTime: 1507568280
PfmFamily: 17
TTFWeight: 700
TTFWidth: 5
LineGap: 0
VLineGap: 0
Panose: 2 0 8 3 0 0 0 0 0 0
OS2TypoAscent: 0
OS2TypoAOffset: 1
OS2TypoDescent: -690
OS2TypoDOffset: 1
OS2TypoLinegap: 0
OS2WinAscent: -122
OS2WinAOffset: 1
OS2WinDescent: -16
OS2WinDOffset: 1
HheadAscent: -122
HheadAOffset: 1
HheadDescent: 16
HheadDOffset: 1
OS2SubXSize: 1330
OS2SubYSize: 1228
OS2SubXOff: 0
OS2SubYOff: 152
OS2SupXSize: 1330
OS2SupYSize: 1430
OS2SupXOff: 0
OS2SupYOff: 980
OS2StrikeYSize: 102
OS2StrikeYPos: 512
OS2FamilyClass: 768
OS2Vendor: 'SMC '
OS2CodePages: 00000001.00000000
OS2UnicodeRanges: 80800001.00002000.00000000.00000000
MarkAttachClasses: 2
"nomark" 0 
DEI: 91125
ShortTable: cvt  9
  -444
  0
  922
  1356
  1398
  116
  100
  110
  121
EndShort
ShortTable: maxp 16
  1
  0
  1096
  243
  12
  0
  0
  2
  1
  2
  22
  0
  256
  0
  0
  0
EndShort
LangName: 1100 "" "" "" "" "" "" "" "" "" "" "" "" "" "" "" "" "" "" "+DTANGg0o"

StartChar: .notdef
Encoding: 291 -1 0
Width: 602
GlyphClass: 2
Flags: MW
LayerCount: 2
Fore
SplineSet
46 0 m 1,0,-1
 46 932 l 1,1,-1
 512 932 l 1,2,-1
 512 0 l 1,3,-1
 46 0 l 1,0,-1
92 46 m 1,4,-1
 466 46 l 1,5,-1
 466 884 l 1,6,-1
 92 884 l 1,7,-1
 92 46 l 1,4,-1
EndSplineSet
EndChar

StartChar: exclam
Encoding: 4 33 5
Width: 429
GlyphClass: 2
Flags: MW
HStem: -48 317 1199 40
VStem: 136 317
LayerCount: 2
Fore
SplineSet
435 114 m 0,0,1
 435 54 435 54 394.5 10.5 c 128,-1,2
 354 -33 354 -33 295 -33 c 0,3,4
 233 -33 233 -33 191 9.5 c 128,-1,5
 149 52 149 52 149 114 c 0,6,7
 149 174 149 174 191.5 213 c 128,-1,8
 234 252 234 252 295 252 c 0,9,10
 350 252 350 252 392.5 210.5 c 128,-1,11
 435 169 435 169 435 114 c 0,0,1
425 1051 m 1,12,-1
 353 368 l 1,13,-1
 226 368 l 1,14,-1
 157 1057 l 1,15,-1
 156 1071 l 2,16,17
 153 1129 153 1129 194.5 1179 c 128,-1,18
 236 1229 236 1229 294 1229 c 128,-1,19
 352 1229 352 1229 390.5 1179 c 128,-1,20
 429 1129 429 1129 426 1070 c 2,21,-1
 425 1051 l 1,12,-1
EndSplineSet
EndChar

StartChar: quotedbl
Encoding: 5 34 6
Width: 446
GlyphClass: 2
Flags: MW
LayerCount: 2
Fore
SplineSet
620 1159 m 0,0,1
 620 1124 620 1124 613 1076.5 c 128,-1,2
 606 1029 606 1029 596 978 c 256,3,4
 586 927 586 927 575.5 879.5 c 128,-1,5
 565 832 565 832 558 794 c 1,6,-1
 485 794 l 1,7,8
 478 829 478 829 467.5 877.5 c 128,-1,9
 457 926 457 926 447 978 c 1,10,11
 436 1029 436 1029 429 1077 c 128,-1,12
 422 1125 422 1125 422 1157 c 0,13,14
 422 1178 422 1178 430.5 1194.5 c 128,-1,15
 439 1211 439 1211 453 1222.5 c 128,-1,16
 467 1234 467 1234 485 1240 c 128,-1,17
 503 1246 503 1246 522 1246 c 0,18,19
 561 1246 561 1246 590.5 1223.5 c 128,-1,20
 620 1201 620 1201 620 1159 c 0,0,1
310 1159 m 0,21,22
 310 1124 310 1124 303 1076.5 c 128,-1,23
 296 1029 296 1029 286 978 c 0,24,25
 275 927 275 927 265 879.5 c 128,-1,26
 255 832 255 832 248 794 c 1,27,-1
 175 794 l 1,28,29
 167 829 167 829 157 877.5 c 128,-1,30
 147 926 147 926 136 978 c 0,31,32
 126 1029 126 1029 119 1077 c 128,-1,33
 112 1125 112 1125 112 1157 c 0,34,35
 112 1200 112 1200 142 1223 c 128,-1,36
 172 1246 172 1246 212 1246 c 0,37,38
 231 1246 231 1246 249 1240 c 128,-1,39
 267 1234 267 1234 280.5 1223 c 128,-1,40
 294 1212 294 1212 302 1196 c 128,-1,41
 310 1180 310 1180 310 1159 c 0,21,22
EndSplineSet
EndChar

StartChar: numbersign
Encoding: 6 35 7
Width: 1085
GlyphClass: 2
Flags: MW
HStem: 0 465<210 308 134 390 210 210 564 663 134 745 564 564> 322 143<134 278 134 308 489 634 843 1001> 770 143<218 374 218 403 583 728 937 1085>
LayerCount: 2
Fore
SplineSet
663 465 m 1,0,-1
 728 770 l 1,1,-1
 554 770 l 1,2,-1
 489 465 l 1,3,-1
 663 465 l 1,0,-1
1085 913 m 1,4,-1
 1085 770 l 1,5,-1
 909 770 l 1,6,-1
 843 465 l 1,7,-1
 1001 465 l 1,8,-1
 1001 322 l 1,9,-1
 812 322 l 1,10,-1
 745 0 l 1,11,-1
 564 0 l 1,12,-1
 634 322 l 1,13,-1
 458 322 l 1,14,-1
 390 0 l 1,15,-1
 210 0 l 1,16,-1
 278 322 l 1,17,-1
 134 322 l 1,18,-1
 134 465 l 1,19,-1
 308 465 l 1,20,-1
 374 770 l 1,21,-1
 218 770 l 1,22,-1
 218 913 l 1,23,-1
 403 913 l 1,24,-1
 468 1206 l 1,25,-1
 648 1206 l 1,26,-1
 583 913 l 1,27,-1
 757 913 l 1,28,-1
 823 1206 l 1,29,-1
 1003 1206 l 1,30,-1
 937 913 l 1,31,-1
 1085 913 l 1,4,-1
EndSplineSet
EndChar

StartChar: dollar
Encoding: 7 36 8
Width: 928
GlyphClass: 2
Flags: MW
HStem: -80 39 1179 37
VStem: 149 207<822 889.5 822 901.5> 463 148 722 207
LayerCount: 2
Fore
SplineSet
722 291 m 0,0,1
 722 348 722 348 695.5 381 c 128,-1,2
 669 414 669 414 613 435 c 1,3,-1
 613 129 l 1,4,5
 662 152 662 152 692 195 c 128,-1,6
 722 238 722 238 722 291 c 0,0,1
458 746 m 1,7,-1
 458 997 l 1,8,9
 412 978 412 978 384 941 c 128,-1,10
 356 904 356 904 356 857 c 0,11,12
 356 832 356 832 363 814 c 128,-1,13
 370 796 370 796 387 783 c 128,-1,14
 404 770 404 770 417.5 763.5 c 128,-1,15
 431 757 431 757 458 746 c 1,7,-1
928 346 m 0,16,17
 928 202 928 202 841.5 101 c 128,-1,18
 755 -0 755 -0 613 -21 c 1,19,-1
 613 -81 l 1,20,-1
 458 -81 l 1,21,-1
 458 -21 l 1,22,23
 265 0 265 0 126 177 c 1,24,-1
 229 337 l 1,25,26
 332 140 332 140 458 114 c 1,27,28
 458 174 458 174 460.5 293.5 c 128,-1,29
 463 413 463 413 463 473 c 1,30,31
 149 545 149 545 149 807 c 0,32,33
 149 945 149 945 234 1034 c 128,-1,34
 319 1123 319 1123 458 1146 c 1,35,-1
 458 1206 l 1,36,-1
 613 1206 l 1,37,-1
 613 1150 l 1,38,39
 776 1130 776 1130 918 976 c 1,40,-1
 815 849 l 1,41,42
 719 985 719 985 613 1008 c 1,43,44
 613 956 613 956 612 852 c 128,-1,45
 611 748 611 748 611 696 c 1,46,47
 685 674 685 674 738.5 647.5 c 128,-1,48
 792 621 792 621 837 580.5 c 128,-1,49
 882 540 882 540 905 481.5 c 128,-1,50
 928 423 928 423 928 346 c 0,16,17
EndSplineSet
EndChar

StartChar: percent
Encoding: 8 37 9
Width: 1076
GlyphClass: 2
Flags: MW
HStem: 548 24 1139 75
LayerCount: 2
Fore
SplineSet
937 234 m 0,0,1
 937 261 937 261 933.5 286 c 128,-1,2
 930 311 930 311 920.5 337.5 c 128,-1,3
 911 364 911 364 891 380 c 128,-1,4
 871 396 871 396 842 396 c 0,5,6
 794 396 794 396 773.5 352.5 c 128,-1,7
 753 309 753 309 753 254 c 0,8,9
 753 227 753 227 756.5 202 c 128,-1,10
 760 177 760 177 769.5 150.5 c 128,-1,11
 779 124 779 124 799 108 c 128,-1,12
 819 92 819 92 848 92 c 0,13,14
 896 92 896 92 916.5 136 c 128,-1,15
 937 180 937 180 937 234 c 0,0,1
1084 244 m 0,16,17
 1084 135 1084 135 1019 65.5 c 128,-1,18
 954 -4 954 -4 845 -4 c 128,-1,19
 736 -4 736 -4 671 65 c 128,-1,20
 606 134 606 134 606 244 c 128,-1,21
 606 354 606 354 671 423.5 c 128,-1,22
 736 493 736 493 845 493 c 128,-1,23
 954 493 954 493 1019 423.5 c 128,-1,24
 1084 354 1084 354 1084 244 c 0,16,17
898 1107 m 1,25,-1
 1019 1107 l 1,26,-1
 319 -2 l 1,27,-1
 198 -2 l 1,28,-1
 898 1107 l 1,25,-1
487 864 m 0,29,30
 487 891 487 891 483.5 916 c 128,-1,31
 480 941 480 941 470.5 967.5 c 128,-1,32
 461 994 461 994 441 1010 c 128,-1,33
 421 1026 421 1026 392 1026 c 0,34,35
 344 1026 344 1026 323.5 982.5 c 128,-1,36
 303 939 303 939 303 884 c 0,37,38
 303 857 303 857 306.5 832 c 128,-1,39
 310 807 310 807 319.5 780.5 c 128,-1,40
 329 754 329 754 349 738 c 128,-1,41
 369 722 369 722 398 722 c 0,42,43
 446 722 446 722 466.5 766 c 128,-1,44
 487 810 487 810 487 864 c 0,29,30
634 874 m 0,45,46
 634 765 634 765 569 695 c 128,-1,47
 504 625 504 625 395 625 c 128,-1,48
 286 625 286 625 221 694.5 c 128,-1,49
 156 764 156 764 156 874 c 128,-1,50
 156 984 156 984 221 1053.5 c 128,-1,51
 286 1123 286 1123 395 1123 c 128,-1,52
 504 1123 504 1123 569 1053.5 c 128,-1,53
 634 984 634 984 634 874 c 0,45,46
EndSplineSet
EndChar

StartChar: ampersand
Encoding: 9 38 10
Width: 1320
GlyphClass: 2
Flags: MW
HStem: -15 141<1115 1140> 1112 129
VStem: 159 211<294 389.5> 364 207<949 1007 949 1015.5> 746 152<940.5 1013.5>
LayerCount: 2
Fore
SplineSet
724 226 m 1,0,1
 564 411 564 411 474 576 c 1,2,3
 370 483 370 483 370 345 c 0,4,5
 370 261 370 261 417.5 195.5 c 128,-1,6
 465 130 465 130 545 130 c 0,7,8
 590 130 590 130 640.5 159 c 128,-1,9
 691 188 691 188 724 226 c 1,0,1
746 985 m 0,10,11
 746 1032 746 1032 720 1067 c 128,-1,12
 694 1102 694 1102 649 1102 c 0,13,14
 606 1102 606 1102 588.5 1066 c 128,-1,15
 571 1030 571 1030 571 981 c 0,16,17
 571 896 571 896 614 796 c 1,18,19
 676 838 676 838 711 881.5 c 128,-1,20
 746 925 746 925 746 985 c 0,10,11
1272 196 m 1,21,-1
 1337 77 l 1,22,23
 1236 -15 1236 -15 1093 -15 c 0,24,25
 923 -15 923 -15 809 126 c 1,26,27
 640 -15 640 -15 460 -15 c 0,28,29
 329 -15 329 -15 244 76 c 128,-1,30
 159 167 159 167 159 299 c 0,31,32
 159 364 159 364 179.5 422 c 128,-1,33
 200 480 200 480 239.5 528.5 c 128,-1,34
 279 577 279 577 321 614.5 c 128,-1,35
 363 652 363 652 421 693 c 1,36,37
 364 821 364 821 364 929 c 0,38,39
 364 1061 364 1061 443 1146 c 128,-1,40
 522 1231 522 1231 653 1231 c 0,41,42
 763 1231 763 1231 830.5 1165.5 c 128,-1,43
 898 1100 898 1100 898 991 c 0,44,45
 898 937 898 937 879.5 890 c 128,-1,46
 861 843 861 843 825.5 805 c 128,-1,47
 790 767 790 767 753.5 739 c 128,-1,48
 717 711 717 711 667 681 c 1,49,50
 699 617 699 617 779.5 511.5 c 128,-1,51
 860 406 860 406 874 386 c 1,52,53
 948 482 948 482 1022 661 c 1,54,-1
 1142 564 l 1,55,56
 1095 443 1095 443 959 283 c 1,57,58
 964 276 964 276 986 246.5 c 128,-1,59
 1008 217 1008 217 1016 208 c 128,-1,60
 1024 199 1024 199 1044.5 178 c 128,-1,61
 1065 157 1065 157 1080 149 c 128,-1,62
 1095 141 1095 141 1118.5 133.5 c 128,-1,63
 1142 126 1142 126 1168 126 c 0,64,65
 1225 126 1225 126 1272 196 c 1,21,-1
EndSplineSet
EndChar

StartChar: quotesingle
Encoding: 10 39 11
Width: 449
GlyphClass: 2
Flags: MW
LayerCount: 2
Fore
SplineSet
255 1159 m 0,0,1
 255 1113 255 1113 248.5 1067 c 128,-1,2
 242 1021 242 1021 233 975 c 256,3,4
 224 929 224 929 213 884 c 128,-1,5
 202 839 202 839 192 794 c 1,6,-1
 121 794 l 1,7,8
 113 829 113 829 102.5 877.5 c 128,-1,9
 92 926 92 926 82 978 c 0,10,11
 72 1029 72 1029 65 1077 c 128,-1,12
 58 1125 58 1125 58 1157 c 0,13,14
 58 1178 58 1178 66.5 1194.5 c 128,-1,15
 75 1211 75 1211 88.5 1222.5 c 128,-1,16
 102 1234 102 1234 120 1240 c 128,-1,17
 138 1246 138 1246 157 1246 c 256,18,19
 176 1246 176 1246 194 1240 c 128,-1,20
 212 1234 212 1234 225.5 1223 c 128,-1,21
 239 1212 239 1212 247 1196 c 128,-1,22
 255 1180 255 1180 255 1159 c 0,0,1
EndSplineSet
EndChar

StartChar: parenleft
Encoding: 11 40 12
Width: 615
GlyphClass: 2
Flags: MW
HStem: -380 41 1197 39
VStem: 154 245
LayerCount: 2
Fore
SplineSet
698 -289 m 1,0,-1
 621 -381 l 1,1,2
 407 -254 407 -254 287.5 -38.5 c 128,-1,3
 168 177 168 177 168 427 c 0,4,5
 168 678 168 678 287.5 893.5 c 128,-1,6
 407 1109 407 1109 621 1236 c 1,7,-1
 698 1144 l 1,8,9
 557 1003 557 1003 481.5 816 c 128,-1,10
 406 629 406 629 406 427 c 0,11,12
 406 227 406 227 482 39.5 c 128,-1,13
 558 -148 558 -148 698 -289 c 1,0,-1
EndSplineSet
EndChar

StartChar: parenright
Encoding: 12 41 13
Width: 615
GlyphClass: 2
Flags: MW
HStem: -207 42 1408 40
VStem: 441 244
LayerCount: 2
Fore
SplineSet
618 427 m 0,0,1
 618 177 618 177 498.5 -38.5 c 128,-1,2
 379 -254 379 -254 165 -381 c 1,3,-1
 88 -289 l 1,4,5
 228 -148 228 -148 304 39.5 c 128,-1,6
 380 227 380 227 380 427 c 0,7,8
 380 629 380 629 304.5 816 c 128,-1,9
 229 1003 229 1003 88 1144 c 1,10,-1
 165 1236 l 1,11,12
 379 1109 379 1109 498.5 893.5 c 128,-1,13
 618 678 618 678 618 427 c 0,0,1
EndSplineSet
EndChar

StartChar: asterisk
Encoding: 13 42 14
Width: 764
GlyphClass: 2
Flags: MW
HStem: 512 42 642 432<200.5 247.5 196 260.5> 1169 40
VStem: 362 180<571 617.5 1118 1154>
LayerCount: 2
Fore
SplineSet
768 982 m 0,0,1
 768 924 768 924 704 906 c 2,2,-1
 547 861 l 2,3,4
 549 860 549 860 595.5 847.5 c 128,-1,5
 642 835 642 835 680.5 823 c 128,-1,6
 719 811 719 811 727 807 c 0,7,8
 771 781 771 781 771 739 c 0,9,10
 771 702 771 702 745 670.5 c 128,-1,11
 719 639 719 639 683 639 c 0,12,13
 664 639 664 639 636.5 656 c 128,-1,14
 609 673 609 673 589 691.5 c 128,-1,15
 569 710 569 710 538.5 739 c 128,-1,16
 508 768 508 768 501 775 c 1,17,18
 504 762 504 762 516.5 721.5 c 128,-1,19
 529 681 529 681 535.5 651.5 c 128,-1,20
 542 622 542 622 542 597 c 0,21,22
 542 559 542 559 516.5 535 c 128,-1,23
 491 511 491 511 452 511 c 0,24,25
 415 511 415 511 388.5 533.5 c 128,-1,26
 362 556 362 556 362 592 c 0,27,28
 362 615 362 615 369.5 648 c 128,-1,29
 377 681 377 681 389 721.5 c 128,-1,30
 401 762 401 762 405 777 c 1,31,32
 397 769 397 769 370 739.5 c 128,-1,33
 343 710 343 710 324.5 692.5 c 128,-1,34
 306 675 306 675 278 658.5 c 128,-1,35
 250 642 250 642 225 642 c 0,36,37
 189 642 189 642 164 668.5 c 128,-1,38
 139 695 139 695 139 732 c 0,39,40
 139 762 139 762 157 783.5 c 128,-1,41
 175 805 175 805 205 814 c 2,42,-1
 354 861 l 1,43,44
 344 864 344 864 309.5 871 c 128,-1,45
 275 878 275 878 249.5 885.5 c 128,-1,46
 224 893 224 893 194 904.5 c 128,-1,47
 164 916 164 916 147.5 934 c 128,-1,48
 131 952 131 952 131 975 c 0,49,50
 131 1012 131 1012 158 1043 c 128,-1,51
 185 1074 185 1074 221 1074 c 0,52,53
 245 1074 245 1074 278 1051.5 c 128,-1,54
 311 1029 311 1029 357 986 c 2,55,-1
 403 943 l 1,56,57
 400 957 400 957 388 998.5 c 128,-1,58
 376 1040 376 1040 369 1072.5 c 128,-1,59
 362 1105 362 1105 362 1127 c 0,60,61
 362 1166 362 1166 387 1187.5 c 128,-1,62
 412 1209 412 1209 452 1209 c 0,63,64
 491 1209 491 1209 516.5 1188.5 c 128,-1,65
 542 1168 542 1168 542 1131 c 0,66,67
 542 1119 542 1119 534 1083 c 128,-1,68
 526 1047 526 1047 514 998.5 c 128,-1,69
 502 950 502 950 501 945 c 1,70,71
 508 951 508 951 536 977.5 c 128,-1,72
 564 1004 564 1004 584.5 1022.5 c 128,-1,73
 605 1041 605 1041 633.5 1057.5 c 128,-1,74
 662 1074 662 1074 682 1074 c 0,75,76
 717 1074 717 1074 742.5 1045.5 c 128,-1,77
 768 1017 768 1017 768 982 c 0,0,1
EndSplineSet
EndChar

StartChar: plus
Encoding: 14 43 15
Width: 1081
GlyphClass: 2
Flags: MW
HStem: 27 42 346 207 824 40
VStem: 502 248<26 356 26 356 543 864>
LayerCount: 2
Fore
SplineSet
1080 543 m 1,0,-1
 1080 356 l 1,1,-1
 750 356 l 1,2,-1
 750 26 l 1,3,-1
 502 26 l 1,4,-1
 502 356 l 1,5,-1
 164 356 l 1,6,-1
 164 543 l 1,7,-1
 502 543 l 1,8,-1
 502 864 l 1,9,-1
 750 864 l 1,10,-1
 750 543 l 1,11,-1
 1080 543 l 1,0,-1
EndSplineSet
EndChar

StartChar: comma
Encoding: 15 44 16
Width: 467
GlyphClass: 2
Flags: MW
HStem: -306 42 219 40
VStem: 146 317
LayerCount: 2
Fore
SplineSet
464 71 m 0,0,1
 464 -33 464 -33 407 -141 c 128,-1,2
 350 -249 350 -249 263 -307 c 1,3,-1
 169 -219 l 1,4,5
 210 -184 210 -184 249 -137 c 128,-1,6
 288 -90 288 -90 288 -55 c 1,7,8
 224 -54 224 -54 185 -7 c 128,-1,9
 146 40 146 40 146 105 c 0,10,11
 146 171 146 171 192 215 c 128,-1,12
 238 259 238 259 304 259 c 0,13,14
 384 259 384 259 424 206 c 128,-1,15
 464 153 464 153 464 71 c 0,0,1
EndSplineSet
EndChar

StartChar: hyphen
Encoding: 16 45 17
Width: 849
GlyphClass: 2
Flags: MW
HStem: 258 176
LayerCount: 2
Fore
SplineSet
845 445 m 1,0,-1
 845 264 l 1,1,-1
 154 264 l 1,2,-1
 154 445 l 1,3,-1
 845 445 l 1,0,-1
EndSplineSet
EndChar

StartChar: period
Encoding: 17 46 18
Width: 475
GlyphClass: 2
Flags: MW
HStem: -27 317
VStem: 146 317
LayerCount: 2
Fore
SplineSet
464 135 m 0,0,1
 464 69 464 69 419 21 c 128,-1,2
 374 -27 374 -27 308 -27 c 0,3,4
 239 -27 239 -27 192.5 20 c 128,-1,5
 146 67 146 67 146 135 c 0,6,7
 146 202 146 202 193.5 245.5 c 128,-1,8
 241 289 241 289 308 289 c 0,9,10
 370 289 370 289 417 242.5 c 128,-1,11
 464 196 464 196 464 135 c 0,0,1
EndSplineSet
EndChar

StartChar: slash
Encoding: 18 47 19
Width: 723
GlyphClass: 2
Flags: MW
HStem: -289 42 1176 40
LayerCount: 2
Fore
SplineSet
618 1207 m 1,0,-1
 782 1207 l 1,1,-1
 282 -363 l 1,2,-1
 116 -363 l 1,3,-1
 618 1207 l 1,0,-1
EndSplineSet
EndChar

StartChar: zero
Encoding: 19 48 20
Width: 1005
GlyphClass: 2
Flags: MW
HStem: -22 78 1006 80
VStem: 104 205 782 205
LayerCount: 2
Fore
SplineSet
803 607 m 0,0,1
 803 999 803 999 620 999 c 0,2,3
 402 999 402 999 402 515 c 0,4,5
 402 112 402 112 588 112 c 0,6,7
 626 112 626 112 657.5 126.5 c 128,-1,8
 689 141 689 141 710.5 169 c 128,-1,9
 732 197 732 197 748.5 229 c 128,-1,10
 765 261 765 261 774.5 305 c 128,-1,11
 784 349 784 349 790 385 c 128,-1,12
 796 421 796 421 799 468 c 128,-1,13
 802 515 802 515 802.5 542.5 c 128,-1,14
 803 570 803 570 803 607 c 0,0,1
1031 558 m 128,-1,16
 1031 472 1031 472 1018 393 c 128,-1,17
 1005 314 1005 314 973 237.5 c 128,-1,18
 941 161 941 161 893.5 105 c 128,-1,19
 846 49 846 49 771.5 15 c 128,-1,20
 697 -19 697 -19 604 -19 c 128,-1,21
 511 -19 511 -19 436 15 c 128,-1,22
 361 49 361 49 313 105 c 128,-1,23
 265 161 265 161 233 237.5 c 128,-1,24
 201 314 201 314 187.5 393.5 c 128,-1,25
 174 473 174 473 174 559 c 128,-1,26
 174 645 174 645 187.5 724 c 128,-1,27
 201 803 201 803 233 878.5 c 128,-1,28
 265 954 265 954 313 1009.5 c 128,-1,29
 361 1065 361 1065 435.5 1098.5 c 128,-1,30
 510 1132 510 1132 604 1132 c 0,31,32
 697 1132 697 1132 771.5 1098 c 128,-1,33
 846 1064 846 1064 893.5 1008.5 c 128,-1,34
 941 953 941 953 973 877.5 c 128,-1,35
 1005 802 1005 802 1018 723 c 128,-1,15
 1031 644 1031 644 1031 558 c 128,-1,16
EndSplineSet
EndChar

StartChar: one
Encoding: 20 49 21
Width: 525
GlyphClass: 2
Flags: MW
HStem: -2 20G
VStem: 313 188
LayerCount: 2
Fore
SplineSet
523 1 m 1,0,-1
 272 1 l 1,1,-1
 272 856 l 1,2,-1
 129 780 l 1,3,-1
 129 949 l 1,4,5
 235 1017 235 1017 322 1111 c 1,6,-1
 523 1111 l 1,7,8
 494 792 494 792 494 550 c 0,9,10
 494 311 494 311 523 1 c 1,0,-1
EndSplineSet
EndChar

StartChar: two
Encoding: 21 50 22
Width: 948
GlyphClass: 2
Flags: MW
HStem: -12 21G<155 155 946 946> 0 141<481 612.5> 959 175<451 558.5>
VStem: 702 252<560.5 817.5>
LayerCount: 2
Fore
SplineSet
954 748 m 0,0,1
 954 677 954 677 936.5 621.5 c 128,-1,2
 919 566 919 566 889.5 530 c 128,-1,3
 860 494 860 494 821.5 467 c 128,-1,4
 783 440 783 440 740 421 c 128,-1,5
 697 402 697 402 654 385 c 128,-1,6
 611 368 611 368 572 347.5 c 128,-1,7
 533 327 533 327 502 301 c 128,-1,8
 471 275 471 275 451.5 234.5 c 128,-1,9
 432 194 432 194 430 141 c 1,10,-1
 946 141 l 1,11,-1
 946 -12 l 1,12,13
 718 0 718 0 546 0 c 0,14,15
 350 0 350 0 155 -12 c 1,16,-1
 155 47 l 2,17,18
 155 132 155 132 173.5 198 c 128,-1,19
 192 264 192 264 224 306.5 c 128,-1,20
 256 349 256 349 297 381 c 128,-1,21
 338 413 338 413 383 434.5 c 128,-1,22
 428 456 428 456 473.5 475.5 c 128,-1,23
 519 495 519 495 560 517.5 c 128,-1,24
 601 540 601 540 633 569 c 128,-1,25
 665 598 665 598 683.5 644 c 128,-1,26
 702 690 702 690 702 750 c 0,27,28
 702 851 702 851 647 905 c 128,-1,29
 592 959 592 959 491 959 c 0,30,31
 429 959 429 959 375.5 932.5 c 128,-1,32
 322 906 322 906 287 870.5 c 128,-1,33
 252 835 252 835 211 778 c 1,34,-1
 153 904 l 1,35,36
 233 1015 233 1015 324 1074.5 c 128,-1,37
 415 1134 415 1134 538 1134 c 0,38,39
 649 1134 649 1134 743.5 1086.5 c 128,-1,40
 838 1039 838 1039 896 949.5 c 128,-1,41
 954 860 954 860 954 748 c 0,0,1
EndSplineSet
EndChar

StartChar: three
Encoding: 22 51 23
Width: 940
GlyphClass: 2
Flags: MW
HStem: -18 78 525 84 1013 77
VStem: 650 198 680 198
LayerCount: 2
Fore
SplineSet
941 340 m 0,0,1
 941 251 941 251 905.5 180.5 c 128,-1,2
 870 110 870 110 809 66.5 c 128,-1,3
 748 23 748 23 672 0.5 c 128,-1,4
 596 -22 596 -22 511 -22 c 0,5,6
 399 -22 399 -22 295 15 c 128,-1,7
 191 52 191 52 119 126 c 1,8,-1
 206 248 l 1,9,10
 245 187 245 187 313.5 153 c 128,-1,11
 382 119 382 119 456 119 c 0,12,13
 552 119 552 119 612 174 c 128,-1,14
 672 229 672 229 672 324 c 0,15,16
 672 382 672 382 649 422.5 c 128,-1,17
 626 463 626 463 588.5 480.5 c 128,-1,18
 551 498 551 498 503.5 507.5 c 128,-1,19
 456 517 456 517 407 514.5 c 128,-1,20
 358 512 358 512 313 512 c 1,21,-1
 313 661 l 1,22,-1
 445 661 l 2,23,24
 498 661 498 661 547 674.5 c 128,-1,25
 596 688 596 688 635 724.5 c 128,-1,26
 674 761 674 761 674 815 c 0,27,28
 674 895 674 895 604 943 c 128,-1,29
 534 991 534 991 450 991 c 0,30,31
 383 991 383 991 322.5 959 c 128,-1,32
 262 927 262 927 229 871 c 1,33,-1
 149 961 l 1,34,35
 216 1042 216 1042 317.5 1086 c 128,-1,36
 419 1130 419 1130 528 1130 c 0,37,38
 600 1130 600 1130 669.5 1110 c 128,-1,39
 739 1090 739 1090 797 1052 c 128,-1,40
 855 1014 855 1014 891 952.5 c 128,-1,41
 927 891 927 891 927 815 c 0,42,43
 927 748 927 748 886 689.5 c 128,-1,44
 845 631 845 631 783 592 c 1,45,46
 852 550 852 550 896.5 483 c 128,-1,47
 941 416 941 416 941 340 c 0,0,1
EndSplineSet
EndChar

StartChar: four
Encoding: 23 52 24
Width: 1082
GlyphClass: 2
Flags: MW
HStem: -2 20G 230 136
VStem: 642 188
LayerCount: 2
Fore
SplineSet
359 410 m 1,0,-1
 688 410 l 1,1,-1
 688 820 l 1,2,-1
 359 410 l 1,0,-1
1076 410 m 1,3,-1
 1076 230 l 1,4,-1
 925 230 l 1,5,6
 929 117 929 117 937 0 c 1,7,-1
 688 0 l 1,8,-1
 688 229 l 1,9,-1
 137 229 l 1,10,-1
 137 374 l 1,11,12
 176 418 176 418 285.5 535 c 128,-1,13
 395 652 395 652 451 719 c 0,14,15
 505 784 505 784 594.5 917.5 c 128,-1,16
 684 1051 684 1051 729 1109 c 1,17,-1
 937 1109 l 1,18,19
 919 799 919 799 919 594 c 0,20,21
 919 471 919 471 920 410 c 1,22,-1
 1076 410 l 1,3,-1
EndSplineSet
EndChar

StartChar: five
Encoding: 24 53 25
Width: 1025
GlyphClass: 2
Flags: MW
HStem: -22 78 580 99 930 136
VStem: 688 205
LayerCount: 2
Fore
SplineSet
1028 361 m 0,0,1
 1028 267 1028 267 986 191.5 c 128,-1,2
 944 116 944 116 875 70.5 c 128,-1,3
 806 25 806 25 722.5 1.5 c 128,-1,4
 639 -22 639 -22 549 -22 c 0,5,6
 430 -22 430 -22 319 17.5 c 128,-1,7
 208 57 208 57 126 134 c 1,8,-1
 198 261 l 1,9,10
 265 197 265 197 348 159.5 c 128,-1,11
 431 122 431 122 518 122 c 0,12,13
 625 122 625 122 695.5 179.5 c 128,-1,14
 766 237 766 237 766 341 c 0,15,16
 766 451 766 451 690.5 529 c 128,-1,17
 615 607 615 607 505 607 c 0,18,19
 388 607 388 607 292 519 c 1,20,-1
 177 571 l 1,21,-1
 230 1115 l 1,22,23
 421 1097 421 1097 612 1097 c 0,24,25
 810 1097 810 1097 1006 1115 c 1,26,-1
 1006 912 l 1,27,-1
 387 912 l 1,28,-1
 355 709 l 1,29,30
 464 751 464 751 574 751 c 0,31,32
 660 751 660 751 741 724.5 c 128,-1,33
 822 698 822 698 886.5 649.5 c 128,-1,34
 951 601 951 601 989.5 526 c 128,-1,35
 1028 451 1028 451 1028 361 c 0,0,1
EndSplineSet
EndChar

StartChar: six
Encoding: 25 54 26
Width: 1071
GlyphClass: 2
Flags: MW
HStem: -21 82 611 83 1025 61
VStem: 99 187 727 182
LayerCount: 2
Fore
SplineSet
825 358 m 0,0,1
 825 471 825 471 763 542.5 c 128,-1,2
 701 614 701 614 590 614 c 0,3,4
 496 614 496 614 405 558 c 1,5,6
 401 523 401 523 401 480 c 0,7,8
 401 417 401 417 412 357 c 128,-1,9
 423 297 423 297 447.5 237 c 128,-1,10
 472 177 472 177 521 140 c 128,-1,11
 570 103 570 103 637 103 c 0,12,13
 700 103 700 103 744.5 144.5 c 128,-1,14
 789 186 789 186 807 241.5 c 128,-1,15
 825 297 825 297 825 358 c 0,0,1
1067 364 m 0,16,17
 1067 249 1067 249 1008 159.5 c 128,-1,18
 949 70 949 70 853.5 24 c 128,-1,19
 758 -22 758 -22 644 -22 c 0,20,21
 532 -22 532 -22 439 20 c 128,-1,22
 346 62 346 62 284 134.5 c 128,-1,23
 222 207 222 207 188 304 c 128,-1,24
 154 401 154 401 154 510 c 0,25,26
 154 695 154 695 240.5 837.5 c 128,-1,27
 327 980 327 980 474.5 1054.5 c 128,-1,28
 622 1129 622 1129 806 1129 c 0,29,30
 882 1129 882 1129 986 1110 c 1,31,-1
 955 982 l 1,32,33
 882 993 882 993 835 993 c 0,34,35
 682 993 682 993 567 917.5 c 128,-1,36
 452 842 452 842 421 699 c 1,37,38
 520 737 520 737 636 737 c 0,39,40
 722 737 722 737 799 713 c 128,-1,41
 876 689 876 689 936.5 644 c 128,-1,42
 997 599 997 599 1032 526.5 c 128,-1,43
 1067 454 1067 454 1067 364 c 0,16,17
EndSplineSet
EndChar

StartChar: seven
Encoding: 26 55 27
Width: 847
GlyphClass: 2
Flags: MW
HStem: -2 20G 930 136
VStem: 104 699
LayerCount: 2
Fore
SplineSet
869 1116 m 1,0,-1
 869 989 l 1,1,2
 607 523 607 523 431 1 c 1,3,-1
 200 1 l 1,4,-1
 630 953 l 1,5,-1
 119 953 l 1,6,-1
 119 1117 l 1,7,8
 316 1096 316 1096 485 1096 c 0,9,10
 656 1096 656 1096 869 1116 c 1,0,-1
EndSplineSet
EndChar

StartChar: eight
Encoding: 27 56 28
Width: 998
GlyphClass: 2
Flags: MW
HStem: -19 70 490 82 1017 71
VStem: 102 184 126 171 699 171 712 183
LayerCount: 2
Fore
SplineSet
755 297 m 128,-1,1
 755 372 755 372 700.5 425 c 128,-1,2
 646 478 646 478 571 478 c 128,-1,3
 496 478 496 478 442 425 c 128,-1,4
 388 372 388 372 388 297 c 128,-1,5
 388 222 388 222 442 168.5 c 128,-1,6
 496 115 496 115 571 115 c 128,-1,7
 646 115 646 115 700.5 168.5 c 128,-1,0
 755 222 755 222 755 297 c 128,-1,1
749 814 m 128,-1,9
 749 888 749 888 696 940.5 c 128,-1,10
 643 993 643 993 569 993 c 128,-1,11
 495 993 495 993 442.5 940.5 c 128,-1,12
 390 888 390 888 390 814 c 128,-1,13
 390 740 390 740 443 687.5 c 128,-1,14
 496 635 496 635 569 635 c 0,15,16
 643 635 643 635 696 687.5 c 128,-1,8
 749 740 749 740 749 814 c 128,-1,9
994 299 m 0,17,18
 994 219 994 219 955.5 155.5 c 128,-1,19
 917 92 917 92 854 55 c 128,-1,20
 791 18 791 18 718.5 -1 c 128,-1,21
 646 -20 646 -20 570 -20 c 0,22,23
 495 -20 495 -20 422 -1 c 128,-1,24
 349 18 349 18 286 55 c 128,-1,25
 223 92 223 92 184 155.5 c 128,-1,26
 145 219 145 219 145 299 c 0,27,28
 145 384 145 384 191 450.5 c 128,-1,29
 237 517 237 517 316 560 c 1,30,31
 169 653 169 653 169 818 c 0,32,33
 169 895 169 895 204.5 957 c 128,-1,34
 240 1019 240 1019 298.5 1056.5 c 128,-1,35
 357 1094 357 1094 426 1113.5 c 128,-1,36
 495 1133 495 1133 568 1133 c 128,-1,37
 641 1133 641 1133 710.5 1113.5 c 128,-1,38
 780 1094 780 1094 839 1056.5 c 128,-1,39
 898 1019 898 1019 934 957 c 128,-1,40
 970 895 970 895 970 818 c 0,41,42
 970 651 970 651 824 559 c 1,43,44
 902 517 902 517 948 450.5 c 128,-1,45
 994 384 994 384 994 299 c 0,17,18
EndSplineSet
EndChar

StartChar: nine
Encoding: 28 57 29
Width: 1072
GlyphClass: 2
Flags: MW
HStem: -21 82 611 83 1025 61
VStem: 99 187 727 182
LayerCount: 2
Fore
SplineSet
825 610 m 0,0,1
 825 671 825 671 813 734.5 c 128,-1,2
 801 798 801 798 775.5 861.5 c 128,-1,3
 750 925 750 925 700.5 965.5 c 128,-1,4
 651 1006 651 1006 585 1006 c 0,5,6
 524 1006 524 1006 479 966 c 128,-1,7
 434 926 434 926 415 871 c 128,-1,8
 396 816 396 816 396 757 c 0,9,10
 396 645 396 645 458 570 c 128,-1,11
 520 495 520 495 630 495 c 0,12,13
 731 495 731 495 823 558 c 1,14,15
 825 592 825 592 825 610 c 0,0,1
1074 594 m 0,16,17
 1074 408 1074 408 985 266 c 128,-1,18
 896 124 896 124 747 50.5 c 128,-1,19
 598 -23 598 -23 413 -23 c 0,20,21
 355 -23 355 -23 262 -10 c 1,22,-1
 289 119 l 1,23,24
 353 111 353 111 387 111 c 0,25,26
 489 111 489 111 576.5 143 c 128,-1,27
 664 175 664 175 729 245.5 c 128,-1,28
 794 316 794 316 812 416 c 1,29,30
 702 370 702 370 577 370 c 0,31,32
 463 370 463 370 368 411.5 c 128,-1,33
 273 453 273 453 213 539 c 128,-1,34
 153 625 153 625 153 741 c 128,-1,35
 153 857 153 857 212.5 947 c 128,-1,36
 272 1037 272 1037 369 1083.5 c 128,-1,37
 466 1130 466 1130 581 1130 c 0,38,39
 729 1130 729 1130 842.5 1056.5 c 128,-1,40
 956 983 956 983 1015 861.5 c 128,-1,41
 1074 740 1074 740 1074 594 c 0,16,17
EndSplineSet
EndChar

StartChar: colon
Encoding: 29 58 30
Width: 465
GlyphClass: 2
Flags: MW
HStem: -17 317 553 317
VStem: 147 317
LayerCount: 2
Fore
SplineSet
465 195 m 0,0,1
 465 129 465 129 420 80.5 c 128,-1,2
 375 32 375 32 309 32 c 0,3,4
 240 32 240 32 193.5 79 c 128,-1,5
 147 126 147 126 147 195 c 0,6,7
 147 262 147 262 194.5 305.5 c 128,-1,8
 242 349 242 349 309 349 c 0,9,10
 371 349 371 349 418 302.5 c 128,-1,11
 465 256 465 256 465 195 c 0,0,1
465 677 m 0,12,13
 465 611 465 611 419.5 562 c 128,-1,14
 374 513 374 513 309 513 c 0,15,16
 240 513 240 513 193.5 560.5 c 128,-1,17
 147 608 147 608 147 677 c 0,18,19
 147 745 147 745 194 787.5 c 128,-1,20
 241 830 241 830 309 830 c 0,21,22
 371 830 371 830 418 784 c 128,-1,23
 465 738 465 738 465 677 c 0,12,13
EndSplineSet
EndChar

StartChar: semicolon
Encoding: 30 59 31
Width: 476
GlyphClass: 2
Flags: MW
HStem: -286 42 279 254
VStem: 146 317
LayerCount: 2
Fore
SplineSet
474 51 m 0,0,1
 474 -53 474 -53 417 -161 c 128,-1,2
 360 -269 360 -269 273 -327 c 1,3,-1
 179 -239 l 1,4,5
 220 -204 220 -204 259 -157 c 128,-1,6
 298 -110 298 -110 298 -75 c 1,7,8
 234 -74 234 -74 195 -27 c 128,-1,9
 156 20 156 20 156 85 c 0,10,11
 156 151 156 151 202 195 c 128,-1,12
 248 239 248 239 314 239 c 0,13,14
 394 239 394 239 434 186 c 128,-1,15
 474 133 474 133 474 51 c 0,0,1
474 497 m 0,16,17
 474 431 474 431 428.5 382 c 128,-1,18
 383 333 383 333 318 333 c 0,19,20
 249 333 249 333 202.5 380.5 c 128,-1,21
 156 428 156 428 156 497 c 0,22,23
 156 565 156 565 203 607.5 c 128,-1,24
 250 650 250 650 318 650 c 0,25,26
 380 650 380 650 427 604 c 128,-1,27
 474 558 474 558 474 497 c 0,16,17
EndSplineSet
EndChar

StartChar: less
Encoding: 31 60 32
Width: 955
GlyphClass: 2
Flags: MW
HStem: 10 42 858 40
LayerCount: 2
Fore
SplineSet
950 195 m 1,0,-1
 950 9 l 1,1,-1
 154 384 l 1,2,-1
 154 525 l 1,3,-1
 950 898 l 1,4,-1
 950 714 l 1,5,-1
 438 455 l 1,6,-1
 950 195 l 1,0,-1
EndSplineSet
EndChar

StartChar: equal
Encoding: 32 61 33
Width: 917
GlyphClass: 2
Flags: MW
HStem: 205 176<152 916 152 916> 498 176<152 916 152 916>
LayerCount: 2
Fore
SplineSet
916 381 m 1,0,-1
 916 205 l 1,1,-1
 152 205 l 1,2,-1
 152 381 l 1,3,-1
 916 381 l 1,0,-1
916 674 m 1,4,-1
 916 498 l 1,5,-1
 152 498 l 1,6,-1
 152 674 l 1,7,-1
 916 674 l 1,4,-1
EndSplineSet
EndChar

StartChar: greater
Encoding: 33 62 34
Width: 953
GlyphClass: 2
Flags: MW
HStem: 110 42 958 40
LayerCount: 2
Fore
SplineSet
950 515 m 1,0,-1
 950 374 l 1,1,-1
 154 0 l 1,2,-1
 154 185 l 1,3,-1
 666 445 l 1,4,-1
 154 704 l 1,5,-1
 154 888 l 1,6,-1
 950 515 l 1,0,-1
EndSplineSet
EndChar

StartChar: question
Encoding: 34 63 35
Width: 1000
GlyphClass: 2
Flags: MW
HStem: -28 266 1150 78
VStem: 93 146 345 256 365 81 582 189
LayerCount: 2
Fore
SplineSet
777 114 m 0,0,1
 777 51 777 51 730 8.5 c 128,-1,2
 683 -34 683 -34 619 -34 c 0,3,4
 553 -34 553 -34 504 7.5 c 128,-1,5
 455 49 455 49 455 114 c 0,6,7
 455 177 455 177 504.5 215.5 c 128,-1,8
 554 254 554 254 619 254 c 0,9,10
 679 254 679 254 728 213.5 c 128,-1,11
 777 173 777 173 777 114 c 0,0,1
994 912 m 0,12,13
 994 864 994 864 974 822.5 c 128,-1,14
 954 781 954 781 922.5 751.5 c 128,-1,15
 891 722 891 722 852.5 695 c 128,-1,16
 814 668 814 668 775.5 642.5 c 128,-1,17
 737 617 737 617 705.5 590 c 128,-1,18
 674 563 674 563 654 527 c 128,-1,19
 634 491 634 491 634 449 c 0,20,21
 634 424 634 424 650 378 c 1,22,-1
 495 337 l 1,23,24
 467 405 467 405 467 446 c 0,25,26
 467 504 467 504 490.5 558 c 128,-1,27
 514 612 514 612 547 653.5 c 128,-1,28
 580 695 580 695 613.5 735 c 128,-1,29
 647 775 647 775 670.5 822 c 128,-1,30
 694 869 694 869 694 917 c 0,31,32
 694 998 694 998 651.5 1050 c 128,-1,33
 609 1102 609 1102 531 1102 c 0,34,35
 473 1102 473 1102 428 1074.5 c 128,-1,36
 383 1047 383 1047 383 992 c 0,37,38
 383 977 383 977 413.5 939.5 c 128,-1,39
 444 902 444 902 444 872 c 0,40,41
 444 823 444 823 399.5 794.5 c 128,-1,42
 355 766 355 766 303 766 c 0,43,44
 234 766 234 766 188 807.5 c 128,-1,45
 142 849 142 849 142 917 c 0,46,47
 142 982 142 982 168 1036 c 128,-1,48
 194 1090 194 1090 236.5 1125 c 128,-1,49
 279 1160 279 1160 335.5 1184 c 128,-1,50
 392 1208 392 1208 450.5 1218.5 c 128,-1,51
 509 1229 509 1229 569 1229 c 0,52,53
 640 1229 640 1229 712.5 1209 c 128,-1,54
 785 1189 785 1189 849 1151 c 128,-1,55
 913 1113 913 1113 953.5 1050.5 c 128,-1,56
 994 988 994 988 994 912 c 0,12,13
EndSplineSet
EndChar

StartChar: at
Encoding: 35 64 36
Width: 1363
GlyphClass: 2
Flags: MW
HStem: -45 79 254 70 265 124 873 72 1149 77
VStem: 94 161 373 125 851 120 1144 150
LayerCount: 2
Fore
SplineSet
713 834 m 0,0,1
 651 834 651 834 618 769 c 128,-1,2
 585 704 585 704 585 622 c 0,3,4
 585 565 585 565 598.5 514.5 c 128,-1,5
 612 464 612 464 645.5 426.5 c 128,-1,6
 679 389 679 389 727 389 c 0,7,8
 749 389 749 389 765 395 c 128,-1,9
 781 401 781 401 790.5 416 c 128,-1,10
 800 431 800 431 806 442 c 128,-1,11
 812 453 812 453 814.5 478 c 128,-1,12
 817 503 817 503 817.5 512.5 c 128,-1,13
 818 522 818 522 817.5 551 c 128,-1,14
 817 580 817 580 817 584 c 0,15,16
 817 596 817 596 818 625.5 c 128,-1,17
 819 655 819 655 819 673.5 c 128,-1,18
 819 692 819 692 817 719.5 c 128,-1,19
 815 747 815 747 808.5 764.5 c 128,-1,20
 802 782 802 782 790.5 799.5 c 128,-1,21
 779 817 779 817 759.5 825.5 c 128,-1,22
 740 834 740 834 713 834 c 0,0,1
1034 269 m 0,23,24
 945 269 945 269 886 337 c 1,25,26
 801 259 801 259 694 259 c 0,27,28
 621 259 621 259 560 292 c 128,-1,29
 499 325 499 325 461.5 377.5 c 128,-1,30
 424 430 424 430 403 491 c 128,-1,31
 382 552 382 552 382 612 c 128,-1,32
 382 672 382 672 403 733 c 128,-1,33
 424 794 424 794 462 846.5 c 128,-1,34
 500 899 500 899 561 932 c 128,-1,35
 622 965 622 965 694 965 c 0,36,37
 735 965 735 965 765.5 952 c 128,-1,38
 796 939 796 939 834 911 c 1,39,-1
 834 957 l 1,40,-1
 1018 957 l 1,41,-1
 1019 957 l 1,42,43
 994 805 994 805 994 701 c 0,44,45
 994 605 994 605 1000 554 c 0,46,47
 1005 513 1005 513 1022 481.5 c 128,-1,48
 1039 450 1039 450 1059 450 c 0,49,50
 1088 450 1088 450 1110 476.5 c 128,-1,51
 1132 503 1132 503 1143 541 c 128,-1,52
 1154 579 1154 579 1159.5 613 c 128,-1,53
 1165 647 1165 647 1165 672 c 0,54,55
 1165 844 1165 844 1059 957 c 0,56,57
 1008 1010 1008 1010 926 1041.5 c 128,-1,58
 844 1073 844 1073 755 1073 c 0,59,60
 657 1073 657 1073 575 1035 c 128,-1,61
 493 997 493 997 440 933 c 128,-1,62
 387 869 387 869 358 785.5 c 128,-1,63
 329 702 329 702 329 610 c 128,-1,64
 329 518 329 518 363.5 431 c 128,-1,65
 398 344 398 344 457.5 278 c 128,-1,66
 517 212 517 212 604 172 c 128,-1,67
 691 132 691 132 789 132 c 0,68,69
 931 132 931 132 1071 227 c 1,70,-1
 1165 117 l 1,71,72
 978 -13 978 -13 780 -13 c 0,73,74
 645 -13 645 -13 527 38 c 128,-1,75
 409 89 409 89 327.5 175 c 128,-1,76
 246 261 246 261 199.5 374 c 128,-1,77
 153 487 153 487 153 610 c 0,78,79
 153 736 153 736 196.5 848 c 128,-1,80
 240 960 240 960 318 1044.5 c 128,-1,81
 396 1129 396 1129 512.5 1178.5 c 128,-1,82
 629 1228 629 1228 767 1228 c 0,83,84
 934 1228 934 1228 1070.5 1157.5 c 128,-1,85
 1207 1087 1207 1087 1286 961 c 128,-1,86
 1365 835 1365 835 1365 681 c 0,87,88
 1365 619 1365 619 1345.5 550.5 c 128,-1,89
 1326 482 1326 482 1288 417.5 c 128,-1,90
 1250 353 1250 353 1183.5 311 c 128,-1,91
 1117 269 1117 269 1034 269 c 0,23,24
EndSplineSet
EndChar

StartChar: A
Encoding: 36 65 37
Width: 1177
GlyphClass: 2
Flags: MW
HStem: 1 42 369 143 1183 40
LayerCount: 2
Fore
SplineSet
449 517 m 1,0,-1
 765 517 l 1,1,-1
 605 967 l 1,2,-1
 449 517 l 1,0,-1
1197 0 m 1,3,-1
 925 0 l 1,4,-1
 809 375 l 1,5,6
 712 395 712 395 603 395 c 0,7,8
 504 395 504 395 404 375 c 1,9,-1
 280 0 l 1,10,-1
 112 0 l 1,11,-1
 530 1211 l 1,12,-1
 759 1211 l 1,13,14
 878 601 878 601 1197 0 c 1,3,-1
EndSplineSet
EndChar

StartChar: B
Encoding: 37 66 38
Width: 1017
GlyphClass: 2
Flags: MW
HStem: 0 143 565 143 1079 143
VStem: 153 233 747 238 776 250
LayerCount: 2
Fore
SplineSet
771 352 m 0,0,1
 771 450 771 450 704 510 c 128,-1,2
 637 570 637 570 539 570 c 2,3,-1
 383 570 l 1,4,-1
 383 142 l 1,5,-1
 549 142 l 2,6,7
 645 142 645 142 708 200 c 128,-1,8
 771 258 771 258 771 352 c 0,0,1
743 887 m 0,9,10
 743 966 743 966 681.5 1017.5 c 128,-1,11
 620 1069 620 1069 539 1069 c 2,12,-1
 383 1069 l 1,13,-1
 383 712 l 1,14,15
 423 702 423 702 468 702 c 0,16,17
 515 702 515 702 560 711.5 c 128,-1,18
 605 721 605 721 648 741 c 128,-1,19
 691 761 691 761 717 799 c 128,-1,20
 743 837 743 837 743 887 c 0,9,10
1017 362 m 0,21,22
 1017 279 1017 279 983.5 210 c 128,-1,23
 950 141 950 141 894 95.5 c 128,-1,24
 838 50 838 50 765 25 c 128,-1,25
 692 0 692 0 612 0 c 0,26,27
 560 0 560 0 457 2.5 c 128,-1,28
 354 5 354 5 303 5 c 0,29,30
 214 5 214 5 152 0 c 1,31,32
 182 302 182 302 182 605 c 128,-1,33
 182 908 182 908 152 1211 c 1,34,35
 236 1196 236 1196 321 1196 c 0,36,37
 370 1196 370 1196 469.5 1204 c 128,-1,38
 569 1212 569 1212 619 1212 c 0,39,40
 761 1212 761 1212 870 1116.5 c 128,-1,41
 979 1021 979 1021 979 881 c 0,42,43
 979 807 979 807 939.5 746.5 c 128,-1,44
 900 686 900 686 833 651 c 1,45,46
 918 611 918 611 967.5 533.5 c 128,-1,47
 1017 456 1017 456 1017 362 c 0,21,22
EndSplineSet
EndChar

StartChar: C
Encoding: 38 67 39
Width: 1060
GlyphClass: 2
Flags: MW
HStem: -19 88 1 42 795 90 1170 40
VStem: 102 168 745 162
LayerCount: 2
Fore
SplineSet
995 298 m 1,0,-1
 1105 190 l 1,1,2
 957 -26 957 -26 691 -26 c 0,3,4
 564 -26 564 -26 460.5 25 c 128,-1,5
 357 76 357 76 291.5 162.5 c 128,-1,6
 226 249 226 249 191 359.5 c 128,-1,7
 156 470 156 470 156 593 c 0,8,9
 156 689 156 689 177.5 781.5 c 128,-1,10
 199 874 199 874 243.5 956.5 c 128,-1,11
 288 1039 288 1039 350.5 1101 c 128,-1,12
 413 1163 413 1163 501.5 1199 c 128,-1,13
 590 1235 590 1235 692 1235 c 0,14,15
 945 1235 945 1235 1091 1014 c 1,16,-1
 1000 945 l 1,17,18
 906 1081 906 1081 752 1081 c 0,19,20
 680 1081 680 1081 619.5 1049.5 c 128,-1,21
 559 1018 559 1018 519 967.5 c 128,-1,22
 479 917 479 917 451.5 851 c 128,-1,23
 424 785 424 785 411.5 718 c 128,-1,24
 399 651 399 651 399 585 c 0,25,26
 399 521 399 521 410.5 458 c 128,-1,27
 422 395 422 395 448 333.5 c 128,-1,28
 474 272 474 272 512 226 c 128,-1,29
 550 180 550 180 608.5 151.5 c 128,-1,30
 667 123 667 123 737 123 c 0,31,32
 823 123 823 123 890 170 c 128,-1,33
 957 217 957 217 995 298 c 1,0,-1
EndSplineSet
EndChar

StartChar: D
Encoding: 39 68 40
Width: 1084
GlyphClass: 2
Flags: MW
HStem: -12 143 1066 143
VStem: 154 236 845 246
LayerCount: 2
Fore
SplineSet
835 605 m 128,-1,1
 835 682 835 682 817.5 759.5 c 128,-1,2
 800 837 800 837 764 908.5 c 128,-1,3
 728 980 728 980 663.5 1024.5 c 128,-1,4
 599 1069 599 1069 516 1069 c 2,5,-1
 386 1069 l 1,6,-1
 386 142 l 1,7,-1
 516 142 l 2,8,9
 599 142 599 142 663.5 186.5 c 128,-1,10
 728 231 728 231 764 302 c 128,-1,11
 800 373 800 373 817.5 450.5 c 128,-1,0
 835 528 835 528 835 605 c 128,-1,1
1073 606 m 128,-1,13
 1073 486 1073 486 1037.5 377.5 c 128,-1,14
 1002 269 1002 269 937 184.5 c 128,-1,15
 872 100 872 100 770 50 c 128,-1,16
 668 0 668 0 544 0 c 0,17,18
 501 0 501 0 414.5 3 c 128,-1,19
 328 6 328 6 285 6 c 0,20,21
 219 6 219 6 153 0 c 1,22,23
 183 302 183 302 183 605 c 128,-1,24
 183 908 183 908 153 1211 c 1,25,26
 235 1193 235 1193 304 1193 c 0,27,28
 344 1193 344 1193 424 1202 c 128,-1,29
 504 1211 504 1211 544 1211 c 0,30,31
 668 1211 668 1211 770 1161 c 128,-1,32
 872 1111 872 1111 937 1026.5 c 128,-1,33
 1002 942 1002 942 1037.5 834 c 128,-1,12
 1073 726 1073 726 1073 606 c 128,-1,13
EndSplineSet
EndChar

StartChar: E
Encoding: 40 69 41
Width: 903
GlyphClass: 2
Flags: MW
HStem: 0 143 565 143 1079 143
VStem: 152 236
LayerCount: 2
Fore
SplineSet
917 142 m 1,0,-1
 917 0 l 1,1,2
 736 10 736 10 534 10 c 0,3,4
 334 10 334 10 151 0 c 1,5,6
 181 302 181 302 181 606 c 0,7,8
 181 909 181 909 151 1212 c 1,9,10
 330 1192 330 1192 527 1192 c 128,-1,11
 724 1192 724 1192 903 1212 c 1,12,-1
 903 1070 l 1,13,-1
 384 1070 l 1,14,-1
 384 732 l 1,15,-1
 848 732 l 1,16,-1
 848 590 l 1,17,18
 738 600 738 600 616 600 c 128,-1,19
 494 600 494 600 384 590 c 1,20,-1
 384 142 l 1,21,-1
 917 142 l 1,0,-1
EndSplineSet
EndChar

StartChar: F
Encoding: 41 70 42
Width: 851
GlyphClass: 2
Flags: MW
HStem: 1 42 551 143 1079 143
VStem: 152 233
LayerCount: 2
Fore
SplineSet
881 1211 m 1,0,-1
 881 1069 l 1,1,-1
 382 1069 l 1,2,-1
 382 717 l 1,3,-1
 842 717 l 1,4,-1
 842 575 l 1,5,6
 733 585 733 585 612 585 c 0,7,8
 492 585 492 585 382 575 c 1,9,-1
 382 0 l 1,10,-1
 151 0 l 1,11,12
 186 293 186 293 186 605 c 0,13,14
 186 918 186 918 151 1211 c 1,15,16
 324 1191 324 1191 516 1191 c 128,-1,17
 708 1191 708 1191 881 1211 c 1,0,-1
EndSplineSet
EndChar

StartChar: G
Encoding: 42 71 43
Width: 1100
GlyphClass: 2
Flags: MW
HStem: -21 138<639 758.5> 522 117<805.5 869> 1081 154<667 823.5 558.5 851.5>
VStem: 160 244<484 712.5 484 776.5> 869 217<352.5 443.5 352.5 522 352.5 522>
LayerCount: 2
Fore
SplineSet
1141 1014 m 1,0,-1
 1050 945 l 1,1,2
 1008 1006 1008 1006 941.5 1043.5 c 128,-1,3
 875 1081 875 1081 802 1081 c 0,4,5
 705 1081 705 1081 627 1039 c 128,-1,6
 549 997 549 997 501.5 926.5 c 128,-1,7
 454 856 454 856 429 770.5 c 128,-1,8
 404 685 404 685 404 592 c 0,9,10
 404 508 404 508 426 426 c 128,-1,11
 448 344 448 344 490 274 c 128,-1,12
 532 204 532 204 603 160.5 c 128,-1,13
 674 117 674 117 764 117 c 0,14,15
 816 117 816 117 869 131 c 1,16,-1
 869 522 l 1,17,-1
 618 522 l 1,18,-1
 618 656 l 1,19,20
 732 639 732 639 843 639 c 0,21,22
 965 639 965 639 1101 655 c 1,23,24
 1086 515 1086 515 1086 401 c 0,25,26
 1086 267 1086 267 1099 109 c 1,27,28
 935 -21 935 -21 685 -21 c 0,29,30
 585 -21 585 -21 499 14 c 128,-1,31
 413 49 413 49 351.5 108.5 c 128,-1,32
 290 168 290 168 246.5 247.5 c 128,-1,33
 203 327 203 327 181.5 417.5 c 128,-1,34
 160 508 160 508 160 602 c 0,35,36
 160 733 160 733 200 848 c 128,-1,37
 240 963 240 963 313 1049 c 128,-1,38
 386 1135 386 1135 497 1185 c 128,-1,39
 608 1235 608 1235 742 1235 c 0,40,41
 863 1235 863 1235 968 1176 c 128,-1,42
 1073 1117 1073 1117 1141 1014 c 1,0,-1
EndSplineSet
EndChar

StartChar: H
Encoding: 43 72 44
Width: 1055
GlyphClass: 2
Flags: MW
HStem: 1 42 551 143 1183 40
VStem: 122 236 798 236
LayerCount: 2
Fore
SplineSet
1055 0 m 1,0,-1
 822 0 l 1,1,-1
 822 555 l 1,2,3
 719 565 719 565 604 565 c 0,4,5
 490 565 490 565 386 555 c 1,6,-1
 386 0 l 1,7,-1
 153 0 l 1,8,9
 183 302 183 302 183 606 c 0,10,11
 183 909 183 909 153 1212 c 1,12,-1
 386 1212 l 1,13,-1
 386 697 l 1,14,-1
 822 697 l 1,15,-1
 822 1212 l 1,16,-1
 1055 1212 l 1,17,18
 1036 917 1036 917 1036 606 c 128,-1,19
 1036 295 1036 295 1055 0 c 1,0,-1
EndSplineSet
EndChar

StartChar: I
Encoding: 44 73 45
Width: 387
GlyphClass: 2
Flags: MW
HStem: 1 42 1183 40
VStem: 154 236
LayerCount: 2
Fore
SplineSet
386 0 m 1,0,-1
 153 0 l 1,1,2
 184 312 184 312 184 606 c 0,3,4
 184 899 184 899 153 1212 c 1,5,-1
 386 1212 l 1,6,7
 362 909 362 909 362 606 c 0,8,9
 362 302 362 302 386 0 c 1,0,-1
EndSplineSet
EndChar

StartChar: J
Encoding: 45 74 46
Width: 693
GlyphClass: 2
Flags: MW
HStem: -19 133<281 344 258.5 432.5> 1192 20G<467 467>
VStem: 467 216<305 377 188.5 1212>
LayerCount: 2
Fore
SplineSet
467 1212 m 1,0,-1
 696 1210 l 1,1,2
 667 1049 667 1049 667 872 c 0,3,4
 667 773 667 773 675 575 c 128,-1,5
 683 377 683 377 683 278 c 0,6,7
 683 149 683 149 582 65 c 128,-1,8
 481 -19 481 -19 348 -19 c 0,9,10
 248 -19 248 -19 168 33 c 128,-1,11
 88 85 88 85 47 177 c 1,12,-1
 134 229 l 1,13,14
 151 179 151 179 196 146.5 c 128,-1,15
 241 114 241 114 294 114 c 0,16,17
 367 114 367 114 417 172.5 c 128,-1,18
 467 231 467 231 467 305 c 2,19,-1
 467 1212 l 1,0,-1
EndSplineSet
EndChar

StartChar: K
Encoding: 46 75 47
Width: 1062
GlyphClass: 2
Flags: MW
HStem: 1 42 1183 40
VStem: 154 236
LayerCount: 2
Fore
SplineSet
1100 0 m 1,0,-1
 824 0 l 1,1,-1
 506 586 l 1,2,-1
 386 444 l 1,3,-1
 386 0 l 1,4,-1
 153 0 l 1,5,6
 184 297 184 297 184 605 c 128,-1,7
 184 913 184 913 153 1211 c 1,8,-1
 386 1211 l 1,9,-1
 386 679 l 1,10,-1
 881 1211 l 1,11,-1
 1072 1211 l 1,12,-1
 676 772 l 1,13,14
 822 358 822 358 1100 0 c 1,0,-1
EndSplineSet
EndChar

StartChar: L
Encoding: 47 76 48
Width: 880
GlyphClass: 2
Flags: MW
HStem: 0 143 1185 40
VStem: 152 233
LayerCount: 2
Fore
SplineSet
881 142 m 1,0,-1
 881 0 l 1,1,2
 707 10 707 10 516 10 c 128,-1,3
 325 10 325 10 151 0 c 1,4,5
 181 302 181 302 181 605 c 128,-1,6
 181 908 181 908 151 1210 c 1,7,-1
 382 1210 l 1,8,-1
 382 142 l 1,9,-1
 881 142 l 1,0,-1
EndSplineSet
EndChar

StartChar: M
Encoding: 48 77 49
Width: 1238
GlyphClass: 2
Flags: MW
HStem: 1 42 1183 40
VStem: 158 166 1035 236
LayerCount: 2
Fore
SplineSet
1258 0 m 1,0,-1
 1025 0 l 1,1,-1
 1027 837 l 1,2,-1
 776 0 l 1,3,-1
 594 0 l 1,4,-1
 321 837 l 1,5,-1
 321 0 l 1,6,-1
 157 0 l 1,7,-1
 157 1210 l 1,8,-1
 421 1210 l 1,9,10
 489 847 489 847 719 365 c 1,11,-1
 1004 1210 l 1,12,-1
 1258 1210 l 1,13,14
 1228 908 1228 908 1228 605 c 128,-1,15
 1228 302 1228 302 1258 0 c 1,0,-1
EndSplineSet
EndChar

StartChar: N
Encoding: 49 78 50
Width: 1037
GlyphClass: 2
Flags: MW
HStem: 1 42 1183 40
VStem: 134 166 880 166
LayerCount: 2
Fore
SplineSet
1035 1211 m 1,0,-1
 1035 0 l 1,1,-1
 818 0 l 1,2,-1
 297 847 l 1,3,-1
 297 0 l 1,4,-1
 133 0 l 1,5,-1
 133 1211 l 1,6,-1
 350 1211 l 1,7,8
 550 756 550 756 871 371 c 1,9,-1
 871 1211 l 1,10,-1
 1035 1211 l 1,0,-1
EndSplineSet
EndChar

StartChar: O
Encoding: 50 79 51
Width: 1235
GlyphClass: 2
Flags: MW
HStem: -17 143 1096 143
VStem: 158 248 997 248
LayerCount: 2
Fore
SplineSet
988 576 m 0,0,1
 988 638 988 638 980.5 701 c 128,-1,2
 973 764 973 764 952 835 c 128,-1,3
 931 906 931 906 899 960 c 128,-1,4
 867 1014 867 1014 812.5 1049.5 c 128,-1,5
 758 1085 758 1085 688 1085 c 0,6,7
 633 1085 633 1085 587.5 1064.5 c 128,-1,8
 542 1044 542 1044 511.5 1008 c 128,-1,9
 481 972 481 972 458.5 927.5 c 128,-1,10
 436 883 436 883 424 830 c 128,-1,11
 412 777 412 777 406.5 729 c 128,-1,12
 401 681 401 681 401 632 c 0,13,14
 401 569 401 569 408.5 506 c 128,-1,15
 416 443 416 443 437 372 c 128,-1,16
 458 301 458 301 490.5 247.5 c 128,-1,17
 523 194 523 194 578 159 c 128,-1,18
 633 124 633 124 703 124 c 0,19,20
 769 124 769 124 820.5 154 c 128,-1,21
 872 184 872 184 903 230.5 c 128,-1,22
 934 277 934 277 954 339 c 128,-1,23
 974 401 974 401 981 459 c 128,-1,24
 988 517 988 517 988 576 c 0,0,1
1233 604 m 0,25,26
 1233 479 1233 479 1199 368 c 128,-1,27
 1165 257 1165 257 1099.5 170.5 c 128,-1,28
 1034 84 1034 84 930 33.5 c 128,-1,29
 826 -17 826 -17 696 -17 c 0,30,31
 591 -17 591 -17 502.5 16 c 128,-1,32
 414 49 414 49 350.5 106.5 c 128,-1,33
 287 164 287 164 243 242.5 c 128,-1,34
 199 321 199 321 177.5 412.5 c 128,-1,35
 156 504 156 504 156 604 c 0,36,37
 156 730 156 730 190.5 841.5 c 128,-1,38
 225 953 225 953 290.5 1039.5 c 128,-1,39
 356 1126 356 1126 460.5 1176.5 c 128,-1,40
 565 1227 565 1227 696 1227 c 128,-1,41
 827 1227 827 1227 931 1176.5 c 128,-1,42
 1035 1126 1035 1126 1100 1039 c 128,-1,43
 1165 952 1165 952 1199 841 c 128,-1,44
 1233 730 1233 730 1233 604 c 0,25,26
EndSplineSet
EndChar

StartChar: P
Encoding: 51 80 52
Width: 995
GlyphClass: 2
Flags: MW
HStem: 1 42 524 141 1079 143
VStem: 154 233 759 246
LayerCount: 2
Fore
SplineSet
749 882 m 0,0,1
 749 971 749 971 686 1025 c 128,-1,2
 623 1079 623 1079 532 1079 c 2,3,-1
 384 1079 l 1,4,-1
 384 679 l 1,5,-1
 522 679 l 2,6,7
 617 679 617 679 683 734 c 128,-1,8
 749 789 749 789 749 882 c 0,0,1
991 880 m 128,-1,10
 991 797 991 797 954 730 c 128,-1,11
 917 663 917 663 856 622.5 c 128,-1,12
 795 582 795 582 721.5 560.5 c 128,-1,13
 648 539 648 539 569 539 c 2,14,-1
 384 539 l 1,15,-1
 384 0 l 1,16,-1
 153 0 l 1,17,18
 183 304 183 304 183 610 c 128,-1,19
 183 916 183 916 153 1221 c 1,20,21
 221 1208 221 1208 296 1208 c 0,22,23
 342 1208 342 1208 433 1214.5 c 128,-1,24
 524 1221 524 1221 569 1221 c 0,25,26
 648 1221 648 1221 721.5 1199.5 c 128,-1,27
 795 1178 795 1178 856 1137.5 c 128,-1,28
 917 1097 917 1097 954 1030 c 128,-1,9
 991 963 991 963 991 880 c 128,-1,10
EndSplineSet
EndChar

StartChar: Q
Encoding: 52 81 53
Width: 1216
GlyphClass: 2
Flags: MW
HStem: -168 42 -17 143 1096 143
VStem: 138 248 977 248
LayerCount: 2
Fore
SplineSet
968 575 m 0,0,1
 968 637 968 637 960.5 700.5 c 128,-1,2
 953 764 953 764 932 835 c 128,-1,3
 911 906 911 906 879 960 c 128,-1,4
 847 1014 847 1014 792.5 1049.5 c 128,-1,5
 738 1085 738 1085 668 1085 c 0,6,7
 613 1085 613 1085 567.5 1064.5 c 128,-1,8
 522 1044 522 1044 491.5 1008 c 128,-1,9
 461 972 461 972 438.5 927.5 c 128,-1,10
 416 883 416 883 404 830 c 128,-1,11
 392 777 392 777 386.5 729 c 128,-1,12
 381 681 381 681 381 632 c 0,13,14
 381 569 381 569 388.5 506 c 128,-1,15
 396 443 396 443 417 372 c 128,-1,16
 438 301 438 301 470.5 247.5 c 128,-1,17
 503 194 503 194 558 159 c 128,-1,18
 613 124 613 124 683 124 c 0,19,20
 744 124 744 124 801 154 c 1,21,22
 700 281 700 281 553 273 c 1,23,-1
 597 482 l 1,24,25
 706 465 706 465 780 418 c 128,-1,26
 854 371 854 371 912 280 c 1,27,28
 968 396 968 396 968 575 c 0,0,1
1223 41 m 1,29,-1
 1181 -167 l 1,30,31
 991 -152 991 -152 874 18 c 1,32,33
 787 -17 787 -17 676 -17 c 0,34,35
 571 -17 571 -17 482.5 16 c 128,-1,36
 394 49 394 49 330.5 106.5 c 128,-1,37
 267 164 267 164 223 242.5 c 128,-1,38
 179 321 179 321 157.5 412.5 c 128,-1,39
 136 504 136 504 136 604 c 0,40,41
 136 730 136 730 170.5 841.5 c 128,-1,42
 205 953 205 953 270.5 1039.5 c 128,-1,43
 336 1126 336 1126 440.5 1176.5 c 128,-1,44
 545 1227 545 1227 676 1227 c 128,-1,45
 807 1227 807 1227 911 1176.5 c 128,-1,46
 1015 1126 1015 1126 1080 1039 c 128,-1,47
 1145 952 1145 952 1179 841 c 128,-1,48
 1213 730 1213 730 1213 604 c 0,49,50
 1213 456 1213 456 1165 323 c 128,-1,51
 1117 190 1117 190 1016 101 c 1,52,53
 1085 39 1085 39 1223 41 c 1,29,-1
EndSplineSet
EndChar

StartChar: R
Encoding: 53 82 54
Width: 1019
GlyphClass: 2
Flags: MW
HStem: 1 42 535 143 1079 143
VStem: 154 236 769 246
LayerCount: 2
Fore
SplineSet
765 873 m 0,0,1
 765 962 765 962 699.5 1015.5 c 128,-1,2
 634 1069 634 1069 542 1069 c 2,3,-1
 386 1069 l 1,4,-1
 386 681 l 1,5,-1
 534 681 l 2,6,7
 628 681 628 681 696.5 731.5 c 128,-1,8
 765 782 765 782 765 873 c 0,0,1
1054 0 m 1,9,-1
 792 0 l 1,10,-1
 518 539 l 1,11,-1
 386 539 l 1,12,-1
 386 0 l 1,13,-1
 153 0 l 1,14,15
 183 302 183 302 183 605 c 128,-1,16
 183 908 183 908 153 1211 c 1,17,18
 222 1198 222 1198 300 1198 c 0,19,20
 346 1198 346 1198 439.5 1204.5 c 128,-1,21
 533 1211 533 1211 579 1211 c 0,22,23
 657 1211 657 1211 732.5 1186 c 128,-1,24
 808 1161 808 1161 869 1116.5 c 128,-1,25
 930 1072 930 1072 967.5 1002.5 c 128,-1,26
 1005 933 1005 933 1005 852 c 0,27,28
 1005 744 1005 744 935 669 c 128,-1,29
 865 594 865 594 755 564 c 1,30,31
 870 238 870 238 1054 0 c 1,9,-1
EndSplineSet
EndChar

StartChar: S
Encoding: 54 83 55
Width: 987
GlyphClass: 2
Flags: MW
HStem: -18 148 1090 148
VStem: 151 207 777 207<254 457.5>
LayerCount: 2
Fore
SplineSet
984 376 m 0,0,1
 984 197 984 197 861.5 88.5 c 128,-1,2
 739 -20 739 -20 558 -20 c 0,3,4
 432 -20 432 -20 312 31 c 128,-1,5
 192 82 192 82 124 177 c 1,6,-1
 209 305 l 1,7,8
 264 222 264 222 350.5 174.5 c 128,-1,9
 437 127 437 127 536 127 c 0,10,11
 628 127 628 127 702.5 178 c 128,-1,12
 777 229 777 229 777 317 c 0,13,14
 777 362 777 362 755.5 394 c 128,-1,15
 734 426 734 426 698 445 c 128,-1,16
 662 464 662 464 615 478 c 128,-1,17
 568 492 568 492 516 504 c 128,-1,18
 464 516 464 516 412 531 c 128,-1,19
 360 546 360 546 313 570.5 c 128,-1,20
 266 595 266 595 230 629.5 c 128,-1,21
 194 664 194 664 172.5 720 c 128,-1,22
 151 776 151 776 151 849 c 0,23,24
 151 936 151 936 186.5 1009 c 128,-1,25
 222 1082 222 1082 281.5 1129 c 128,-1,26
 341 1176 341 1176 418 1202 c 128,-1,27
 495 1228 495 1228 580 1228 c 0,28,29
 805 1228 805 1228 956 1080 c 1,30,-1
 860 966 l 1,31,32
 806 1020 806 1020 733 1050 c 128,-1,33
 660 1080 660 1080 582 1080 c 0,34,35
 497 1080 497 1080 427 1036 c 128,-1,36
 357 992 357 992 357 912 c 0,37,38
 357 863 357 863 391.5 830.5 c 128,-1,39
 426 798 426 798 481.5 779 c 128,-1,40
 537 760 537 760 603.5 743.5 c 128,-1,41
 670 727 670 727 737 701.5 c 128,-1,42
 804 676 804 676 859.5 639.5 c 128,-1,43
 915 603 915 603 949.5 536 c 128,-1,44
 984 469 984 469 984 376 c 0,0,1
EndSplineSet
EndChar

StartChar: T
Encoding: 55 84 56
Width: 1055
GlyphClass: 2
Flags: MW
HStem: 1 42 1077 143
VStem: 482 236
LayerCount: 2
Fore
SplineSet
1055 1210 m 1,0,-1
 1055 1062 l 1,1,-1
 710 1062 l 1,2,-1
 710 0 l 1,3,-1
 477 0 l 1,4,5
 507 264 507 264 507 531 c 0,6,7
 507 796.5 507 796.5 477 1062 c 1,8,-1
 132 1062 l 1,9,-1
 132 1210 l 1,10,11
 357 1191 357 1191 594 1191 c 128,-1,12
 831 1191 831 1191 1055 1210 c 1,0,-1
EndSplineSet
EndChar

StartChar: U
Encoding: 56 85 57
Width: 1057
GlyphClass: 2
Flags: MW
HStem: -19 166 1183 40
VStem: 154 236 900 166
LayerCount: 2
Fore
SplineSet
1055 1215 m 1,0,-1
 1055 430 l 2,1,2
 1055 229 1055 229 929 104 c 128,-1,3
 803 -21 803 -21 602 -21 c 0,4,5
 480 -21 480 -21 378.5 27.5 c 128,-1,6
 277 76 277 76 214 170 c 128,-1,7
 151 264 151 264 151 387 c 0,8,9
 151 480 151 480 162 663.5 c 128,-1,10
 173 847 173 847 173 939 c 0,11,12
 173 1084 173 1084 153 1215 c 1,13,-1
 386 1215 l 1,14,-1
 386 397 l 2,15,16
 386 286 386 286 456.5 214 c 128,-1,17
 527 142 527 142 638 142 c 128,-1,18
 749 142 749 142 820 214 c 128,-1,19
 891 286 891 286 891 397 c 2,20,-1
 891 1215 l 1,21,-1
 1055 1215 l 1,0,-1
EndSplineSet
EndChar

StartChar: V
Encoding: 57 86 58
Width: 1125
GlyphClass: 2
Flags: MW
HStem: 1 42 1183 40
LayerCount: 2
Fore
SplineSet
980 1211 m 1,0,-1
 1148 1211 l 1,1,-1
 753 0 l 1,2,-1
 515 0 l 1,3,-1
 104 1211 l 1,4,-1
 367 1211 l 1,5,6
 444 722 444 722 675 277 c 1,7,-1
 980 1211 l 1,0,-1
EndSplineSet
EndChar

StartChar: W
Encoding: 58 87 59
Width: 1491
GlyphClass: 2
Flags: MW
HStem: 1 42 1183 40
LayerCount: 2
Fore
SplineSet
1340 1211 m 1,0,-1
 1502 1211 l 1,1,-1
 1245 0 l 1,2,-1
 975 0 l 1,3,-1
 813 853 l 1,4,-1
 650 0 l 1,5,-1
 377 0 l 1,6,-1
 121 1211 l 1,7,-1
 383 1211 l 1,8,9
 410 753 410 753 557 314 c 1,10,-1
 727 1211 l 1,11,-1
 983 1211 l 1,12,13
 1010 751 1010 751 1157 312 c 1,14,-1
 1340 1211 l 1,0,-1
EndSplineSet
EndChar

StartChar: X
Encoding: 59 88 60
Width: 1094
GlyphClass: 2
Flags: MW
HStem: 0 21G<119 317 119 119 821 1096 821 821>
VStem: 119 977<0 0>
LayerCount: 2
Fore
SplineSet
1096 0 m 1,0,-1
 821 0 l 1,1,-1
 583 417 l 1,2,-1
 317 0 l 1,3,-1
 119 0 l 1,4,-1
 489 581 l 1,5,-1
 131 1209 l 1,6,-1
 406 1209 l 1,7,8
 501 980 501 980 610 770 c 1,9,-1
 889 1209 l 1,10,-1
 1087 1209 l 1,11,-1
 701 603 l 1,12,13
 872 299 872 299 1096 0 c 1,0,-1
EndSplineSet
EndChar

StartChar: Y
Encoding: 60 89 61
Width: 1060
GlyphClass: 2
Flags: MW
HStem: 1 42 1183 40
VStem: 508 233
LayerCount: 2
Fore
SplineSet
915 1210 m 1,0,-1
 1094 1210 l 1,1,-1
 734 522 l 1,2,3
 725 393 725 393 725 263 c 0,4,5
 725 132 725 132 734 0 c 1,6,-1
 503 0 l 1,7,-1
 503 520 l 1,8,-1
 122 1210 l 1,9,-1
 395 1210 l 1,10,11
 448 1048 448 1048 509.5 925 c 128,-1,12
 571 802 571 802 665 708 c 1,13,-1
 915 1210 l 1,0,-1
EndSplineSet
EndChar

StartChar: Z
Encoding: 61 90 62
Width: 979
GlyphClass: 2
Flags: MW
HStem: 4 143 1077 143
LayerCount: 2
Fore
SplineSet
977 146 m 1,0,-1
 977 4 l 1,1,2
 762 24 762 24 556 24 c 0,3,4
 351 24 351 24 136 4 c 1,5,-1
 136 119 l 1,6,-1
 698 1070 l 1,7,-1
 158 1070 l 1,8,-1
 158 1211 l 1,9,10
 366 1182 366 1182 567 1182 c 0,11,12
 771 1182 771 1182 977 1211 c 1,13,-1
 977 1098 l 1,14,15
 656 620 656 620 418 146 c 1,16,-1
 977 146 l 1,0,-1
EndSplineSet
EndChar

StartChar: bracketleft
Encoding: 62 91 63
Width: 478
GlyphClass: 2
Flags: MW
HStem: -411 143 1077 143
VStem: 158 233 158 408
LayerCount: 2
Fore
SplineSet
560 -222 m 1,0,-1
 560 -364 l 1,1,-1
 157 -364 l 1,2,-1
 157 1208 l 1,3,-1
 560 1208 l 1,4,-1
 560 1066 l 1,5,-1
 388 1066 l 1,6,-1
 388 -222 l 1,7,-1
 560 -222 l 1,0,-1
EndSplineSet
EndChar

StartChar: backslash
Encoding: 63 92 64
Width: 741
GlyphClass: 2
Flags: MW
HStem: -289 42 1176 40
LayerCount: 2
Fore
SplineSet
277 1204 m 1,0,-1
 774 -367 l 1,1,-1
 610 -367 l 1,2,-1
 115 1204 l 1,3,-1
 277 1204 l 1,0,-1
EndSplineSet
EndChar

StartChar: bracketright
Encoding: 64 93 65
Width: 478
GlyphClass: 2
Flags: MW
HStem: -407 142 1066 142<74 246 74 477>
VStem: 75 402 247 230
LayerCount: 2
Fore
SplineSet
477 1208 m 1,0,-1
 477 -364 l 1,1,-1
 74 -364 l 1,2,-1
 74 -222 l 1,3,-1
 246 -222 l 1,4,-1
 246 1066 l 1,5,-1
 74 1066 l 1,6,-1
 74 1208 l 1,7,-1
 477 1208 l 1,0,-1
EndSplineSet
EndChar

StartChar: asciicircum
Encoding: 65 94 66
Width: 932
GlyphClass: 2
Flags: MW
HStem: 571 42 1180 40
LayerCount: 2
Fore
SplineSet
944 700 m 1,0,-1
 745 700 l 1,1,-1
 528 958 l 1,2,-1
 312 700 l 1,3,-1
 115 700 l 1,4,5
 287 935 287 935 416 1210 c 1,6,-1
 651 1210 l 1,7,8
 768 947 768 947 944 700 c 1,0,-1
EndSplineSet
EndChar

StartChar: underscore
Encoding: 66 95 67
Width: 1442
GlyphClass: 2
Flags: MW
HStem: -388 176<161 1436 161 1436>
LayerCount: 2
Fore
SplineSet
1436 -212 m 1,0,-1
 1436 -388 l 1,1,-1
 161 -388 l 1,2,-1
 161 -212 l 1,3,-1
 1436 -212 l 1,0,-1
EndSplineSet
EndChar

StartChar: grave
Encoding: 67 96 68
Width: 464
GlyphClass: 2
Flags: MW
HStem: 672 42 1199 40
VStem: 126 319
LayerCount: 2
Fore
SplineSet
392 1237 m 1,0,-1
 472 758 l 1,1,-1
 326 758 l 1,2,3
 263 1010 263 1010 126 1237 c 1,4,-1
 392 1237 l 1,0,-1
EndSplineSet
EndChar

StartChar: a
Encoding: 68 97 69
Width: 955
GlyphClass: 2
Flags: MW
HStem: -23 149<461 509> -8 21G<735 966 735 735> 763 135<471.5 557.5>
VStem: 151 220<218.5 337 218.5 397> 713 229<281 661.5>
LayerCount: 2
Fore
SplineSet
713 339 m 0,0,1
 713 390 713 390 710 443 c 1,2,3
 689 438 689 438 647.5 431 c 128,-1,4
 606 424 606 424 573 418 c 128,-1,5
 540 412 540 412 500 399.5 c 128,-1,6
 460 387 460 387 433.5 370.5 c 128,-1,7
 407 354 407 354 389 324.5 c 128,-1,8
 371 295 371 295 371 257 c 0,9,10
 371 199 371 199 406.5 162.5 c 128,-1,11
 442 126 442 126 500 126 c 0,12,13
 587 126 587 126 650 189 c 128,-1,14
 713 252 713 252 713 339 c 0,0,1
966 -8 m 1,15,-1
 735 -8 l 1,16,-1
 732 73 l 1,17,18
 627 -23 627 -23 460 -23 c 0,19,20
 330 -23 330 -23 240.5 52 c 128,-1,21
 151 127 151 127 151 254 c 0,22,23
 151 313 151 313 170.5 359 c 128,-1,24
 190 405 190 405 227 434 c 128,-1,25
 264 463 264 463 306.5 483.5 c 128,-1,26
 349 504 349 504 405 517 c 128,-1,27
 461 530 461 530 508.5 538 c 128,-1,28
 556 546 556 546 613 555.5 c 128,-1,29
 670 565 670 565 705 574 c 1,30,31
 698 662 698 662 642.5 712.5 c 128,-1,32
 587 763 587 763 498 763 c 0,33,34
 427 763 427 763 364 725.5 c 128,-1,35
 301 688 301 688 269 626 c 1,36,-1
 167 712 l 1,37,38
 234 800 234 800 334 849 c 128,-1,39
 434 898 434 898 546 898 c 0,40,41
 649 898 649 898 738 858 c 128,-1,42
 827 818 827 818 884.5 737.5 c 128,-1,43
 942 657 942 657 942 553 c 0,44,45
 942 511 942 511 937.5 427.5 c 128,-1,46
 933 344 933 344 933 302 c 0,47,48
 933 190 933 190 966 -8 c 1,15,-1
EndSplineSet
EndChar

StartChar: b
Encoding: 69 98 70
Width: 995
GlyphClass: 2
Flags: MW
HStem: 1 43 754 164 1185 41
VStem: 154 233<0 134> 759 237
LayerCount: 2
Fore
SplineSet
762 460 m 0,0,1
 762 522 762 522 741.5 583 c 128,-1,2
 721 644 721 644 674 690.5 c 128,-1,3
 627 737 627 737 563 737 c 0,4,5
 511 737 511 737 473.5 705 c 128,-1,6
 436 673 436 673 417.5 622 c 128,-1,7
 399 571 399 571 391 522 c 128,-1,8
 383 473 383 473 383 424 c 0,9,10
 383 379 383 379 390.5 335 c 128,-1,11
 398 291 398 291 415 245.5 c 128,-1,12
 432 200 432 200 467 172 c 128,-1,13
 502 144 502 144 550 144 c 0,14,15
 603 144 603 144 645.5 175.5 c 128,-1,16
 688 207 688 207 712.5 256.5 c 128,-1,17
 737 306 737 306 749.5 358.5 c 128,-1,18
 762 411 762 411 762 460 c 0,0,1
995 449 m 0,19,20
 995 364 995 364 971 283 c 128,-1,21
 947 202 947 202 902.5 134 c 128,-1,22
 858 66 858 66 785 24.5 c 128,-1,23
 712 -17 712 -17 622 -17 c 0,24,25
 543 -17 543 -17 479.5 22.5 c 128,-1,26
 416 62 416 62 387 134 c 1,27,-1
 367 0 l 1,28,-1
 154 0 l 1,29,30
 184 303 184 303 184 607 c 0,31,32
 184 912 184 912 154 1215 c 1,33,-1
 387 1215 l 1,34,-1
 387 759 l 1,35,36
 418 826 418 826 482.5 863.5 c 128,-1,37
 547 901 547 901 623 901 c 0,38,39
 711 901 711 901 783.5 861.5 c 128,-1,40
 856 822 856 822 901.5 757 c 128,-1,41
 947 692 947 692 971 612.5 c 128,-1,42
 995 533 995 533 995 449 c 0,19,20
EndSplineSet
EndChar

StartChar: c
Encoding: 70 99 71
Width: 957
GlyphClass: 2
Flags: MW
HStem: -18 145 775 143
VStem: 154 237
LayerCount: 2
Fore
SplineSet
888 289 m 1,0,-1
 1004 204 l 1,1,2
 946 98 946 98 839 39.5 c 128,-1,3
 732 -19 732 -19 607 -19 c 0,4,5
 408 -19 408 -19 279 107.5 c 128,-1,6
 150 234 150 234 150 432 c 0,7,8
 150 633 150 633 278 767 c 128,-1,9
 406 901 406 901 606 901 c 0,10,11
 717 901 717 901 813 849.5 c 128,-1,12
 909 798 909 798 958 703 c 1,13,-1
 846 637 l 1,14,15
 812 693 812 693 757 727 c 128,-1,16
 702 761 702 761 639 761 c 0,17,18
 557 761 557 761 495.5 712 c 128,-1,19
 434 663 434 663 406 591.5 c 128,-1,20
 378 520 378 520 378 439 c 0,21,22
 378 359 378 359 404 289.5 c 128,-1,23
 430 220 430 220 489.5 172.5 c 128,-1,24
 549 125 549 125 631 125 c 0,25,26
 710 125 710 125 777.5 170.5 c 128,-1,27
 845 216 845 216 888 289 c 1,0,-1
EndSplineSet
EndChar

StartChar: d
Encoding: 71 100 72
Width: 998
GlyphClass: 2
Flags: MW
HStem: -18 162 1 43 754 164 1185 41
VStem: 153 237 762 233<0 134>
LayerCount: 2
Fore
SplineSet
765 424 m 0,0,1
 765 473 765 473 757 521.5 c 128,-1,2
 749 570 749 570 731 621.5 c 128,-1,3
 713 673 713 673 675 705 c 128,-1,4
 637 737 637 737 585 737 c 128,-1,5
 533 737 533 737 493.5 710.5 c 128,-1,6
 454 684 454 684 432.5 641.5 c 128,-1,7
 411 599 411 599 400.5 552 c 128,-1,8
 390 505 390 505 390 457 c 0,9,10
 390 407 390 407 401.5 355 c 128,-1,11
 413 303 413 303 436.5 254 c 128,-1,12
 460 205 460 205 502.5 174 c 128,-1,13
 545 143 545 143 599 143 c 0,14,15
 638 143 638 143 668.5 162.5 c 128,-1,16
 699 182 699 182 716.5 211.5 c 128,-1,17
 734 241 734 241 745.5 280 c 128,-1,18
 757 319 757 319 761 354 c 128,-1,19
 765 389 765 389 765 424 c 0,0,1
995 0 m 1,20,-1
 782 0 l 1,21,-1
 762 134 l 1,22,23
 733 63 733 63 667.5 22.5 c 128,-1,24
 602 -18 602 -18 524 -18 c 0,25,26
 451 -18 451 -18 390 9 c 128,-1,27
 329 36 329 36 286.5 82 c 128,-1,28
 244 128 244 128 214 188 c 128,-1,29
 184 248 184 248 170 313.5 c 128,-1,30
 156 379 156 379 156 447 c 128,-1,31
 156 515 156 515 170 580 c 128,-1,32
 184 645 184 645 214 703.5 c 128,-1,33
 244 762 244 762 286.5 805.5 c 128,-1,34
 329 849 329 849 390 875 c 128,-1,35
 451 901 451 901 524 901 c 0,36,37
 601 901 601 901 666 863.5 c 128,-1,38
 731 826 731 826 762 759 c 1,39,-1
 762 1214 l 1,40,-1
 995 1214 l 1,41,42
 965 911 965 911 965 607 c 128,-1,43
 965 303 965 303 995 0 c 1,20,-1
EndSplineSet
EndChar

StartChar: e
Encoding: 72 101 73
Width: 1017
GlyphClass: 2
Flags: MW
HStem: -17 138<579.5 704> 408 145<403 782 403 1018 397 782> 764 138<529 644>
VStem: 154 243<408 408 408 577> 782 237<553 553>
LayerCount: 2
Fore
SplineSet
403 553 m 1,0,-1
 782 553 l 1,1,2
 777 637 777 637 723 700.5 c 128,-1,3
 669 764 669 764 587 764 c 0,4,5
 507 764 507 764 460 701.5 c 128,-1,6
 413 639 413 639 403 553 c 1,0,-1
961 281 m 1,7,-1
 1023 161 l 1,8,9
 950 76 950 76 846 29.5 c 128,-1,10
 742 -17 742 -17 629 -17 c 0,11,12
 425 -17 425 -17 289.5 113 c 128,-1,13
 154 243 154 243 154 446 c 0,14,15
 154 643 154 643 281 772.5 c 128,-1,16
 408 902 408 902 605 902 c 0,17,18
 787 902 787 902 903 788 c 128,-1,19
 1019 674 1019 674 1019 493 c 0,20,21
 1019 479 1019 479 1018.5 451 c 128,-1,22
 1018 423 1018 423 1018 408 c 1,23,-1
 397 408 l 1,24,25
 403 283 403 283 472.5 202 c 128,-1,26
 542 121 542 121 664 121 c 0,27,28
 750 121 750 121 829.5 165 c 128,-1,29
 909 209 909 209 961 281 c 1,7,-1
EndSplineSet
EndChar

StartChar: f
Encoding: 73 102 74
Width: 764
GlyphClass: 2
Flags: MW
HStem: -18 21G<207 207> 719 149<80 220 80 224 80 220 435 683> 1097 135<543.5 621 469 643.5>
VStem: 220 215<868 922.5 -19 933 -19 933> 235 200<262.5 386>
LayerCount: 2
Fore
SplineSet
856 1034 m 1,0,-1
 769 983 l 1,1,2
 751 1033 751 1033 706 1065 c 128,-1,3
 661 1097 661 1097 608 1097 c 0,4,5
 547 1097 547 1097 506.5 1061.5 c 128,-1,6
 466 1026 466 1026 450.5 976.5 c 128,-1,7
 435 927 435 927 435 868 c 1,8,-1
 683 868 l 1,9,-1
 683 719 l 1,10,-1
 435 719 l 1,11,-1
 435 -19 l 1,12,-1
 207 -18 l 1,13,14
 235 137 235 137 235 319 c 0,15,16
 235 426 235 426 224 719 c 1,17,-1
 80 719 l 1,18,-1
 80 868 l 1,19,-1
 220 868 l 1,20,-1
 220 933 l 2,21,22
 219 1063 219 1063 320 1147.5 c 128,-1,23
 421 1232 421 1232 554 1232 c 0,24,25
 654 1232 654 1232 734 1179 c 128,-1,26
 814 1126 814 1126 856 1034 c 1,0,-1
EndSplineSet
EndChar

StartChar: g
Encoding: 74 103 75
Width: 992
GlyphClass: 2
Flags: MW
HStem: -367 145 0 166 732 168
VStem: 150 235 759 233
LayerCount: 2
Fore
SplineSet
765 431 m 0,0,1
 765 479 765 479 757.5 526.5 c 128,-1,2
 750 574 750 574 732 624 c 128,-1,3
 714 674 714 674 677 705 c 128,-1,4
 640 736 640 736 589 736 c 0,5,6
 539 736 539 736 498.5 708.5 c 128,-1,7
 458 681 458 681 434.5 637.5 c 128,-1,8
 411 594 411 594 398 545.5 c 128,-1,9
 385 497 385 497 385 451 c 0,10,11
 385 387 385 387 407.5 322.5 c 128,-1,12
 430 258 430 258 480.5 210 c 128,-1,13
 531 162 531 162 598 162 c 0,14,15
 645 162 645 162 680 188.5 c 128,-1,16
 715 215 715 215 732.5 258 c 128,-1,17
 750 301 750 301 757.5 344 c 128,-1,18
 765 387 765 387 765 431 c 0,0,1
994 43 m 0,19,20
 994 -135 994 -135 863.5 -257.5 c 128,-1,21
 733 -380 733 -380 553 -380 c 0,22,23
 433 -380 433 -380 331 -328 c 128,-1,24
 229 -276 229 -276 163 -178 c 1,25,-1
 269 -82 l 1,26,27
 304 -156 304 -156 374 -194.5 c 128,-1,28
 444 -233 444 -233 530 -233 c 0,29,30
 590 -233 590 -233 633.5 -212 c 128,-1,31
 677 -191 677 -191 701 -159 c 128,-1,32
 725 -127 725 -127 739.5 -78.5 c 128,-1,33
 754 -30 754 -30 757.5 13.5 c 128,-1,34
 761 57 761 57 761 113 c 2,35,-1
 761 123 l 1,36,37
 731 62 731 62 669.5 29 c 128,-1,38
 608 -4 608 -4 536 -4 c 0,39,40
 448 -4 448 -4 374 34.5 c 128,-1,41
 300 73 300 73 252.5 136.5 c 128,-1,42
 205 200 205 200 179 279.5 c 128,-1,43
 153 359 153 359 153 444 c 128,-1,44
 153 529 153 529 180.5 611 c 128,-1,45
 208 693 208 693 257 758.5 c 128,-1,46
 306 824 306 824 381.5 864 c 128,-1,47
 457 904 457 904 546 904 c 0,48,49
 612 904 612 904 670 875 c 128,-1,50
 728 846 728 846 761 792 c 1,51,-1
 781 878 l 1,52,-1
 994 878 l 1,53,54
 974 742 974 742 974 589 c 0,55,56
 974 498 974 498 984 316 c 128,-1,57
 994 134 994 134 994 43 c 0,19,20
EndSplineSet
EndChar

StartChar: h
Encoding: 75 104 76
Width: 946
GlyphClass: 2
Flags: MW
HStem: 1 43 752 166
VStem: 122 229 683 231
LayerCount: 2
Fore
SplineSet
949 525 m 0,0,1
 949 468 949 468 941.5 353.5 c 128,-1,2
 934 239 934 239 934 182 c 0,3,4
 934 87 934 87 947 0 c 1,5,-1
 715 0 l 1,6,-1
 715 523 l 2,7,8
 715 607 715 607 670.5 671.5 c 128,-1,9
 626 736 626 736 546 736 c 0,10,11
 467 736 467 736 425 671.5 c 128,-1,12
 383 607 383 607 383 523 c 2,13,-1
 383 0 l 1,14,-1
 154 0 l 1,15,16
 184 303 184 303 184 607 c 0,17,18
 184 907 184 907 154 1207 c 1,19,-1
 383 1207 l 1,20,-1
 383 790 l 1,21,22
 421 843 421 843 476.5 873 c 128,-1,23
 532 903 532 903 595 903 c 0,24,25
 689 903 689 903 771.5 848 c 128,-1,26
 854 793 854 793 901.5 705.5 c 128,-1,27
 949 618 949 618 949 525 c 0,0,1
EndSplineSet
EndChar

StartChar: i
Encoding: 76 105 77
Width: 404
GlyphClass: 2
Flags: MW
HStem: 1 43 857 41 1010 250
VStem: 154 229
LayerCount: 2
Fore
SplineSet
382 880 m 1,0,-1
 382 0 l 1,1,-1
 154 0 l 1,2,3
 185 226 185 226 185 440 c 0,4,5
 185 655 185 655 154 880 c 1,6,-1
 382 880 l 1,0,-1
403 1098 m 0,7,8
 403 1045 403 1045 364 1006 c 128,-1,9
 325 967 325 967 271 967 c 0,10,11
 218 967 218 967 179 1006 c 128,-1,12
 140 1045 140 1045 140 1098 c 0,13,14
 140 1152 140 1152 179 1191 c 128,-1,15
 218 1230 218 1230 271 1230 c 0,16,17
 325 1230 325 1230 364 1191 c 128,-1,18
 403 1152 403 1152 403 1098 c 0,7,8
EndSplineSet
EndChar

StartChar: j
Encoding: 77 106 78
Width: 733
GlyphClass: 2
Flags: MW
HStem: -347 145 857 41 1010 250
VStem: 557 233
LayerCount: 2
Fore
SplineSet
507 852 m 1,0,-1
 736 850 l 1,1,2
 707 689 707 689 707 512 c 0,3,4
 707 413 707 413 715 215 c 128,-1,5
 723 17 723 17 723 -81 c 0,6,7
 723 -210 723 -210 622 -294.5 c 128,-1,8
 521 -379 521 -379 388 -379 c 0,9,10
 288 -379 288 -379 208 -326.5 c 128,-1,11
 128 -274 128 -274 87 -182 c 1,12,-1
 174 -130 l 1,13,14
 191 -180 191 -180 236 -212.5 c 128,-1,15
 281 -245 281 -245 334 -245 c 0,16,17
 407 -245 407 -245 457 -186.5 c 128,-1,18
 507 -128 507 -128 507 -54 c 2,19,-1
 507 852 l 1,0,-1
744 1102 m 0,20,21
 744 1048 744 1048 705.5 1009.5 c 128,-1,22
 667 971 667 971 613 971 c 0,23,24
 558 971 558 971 519.5 1009.5 c 128,-1,25
 481 1048 481 1048 481 1102 c 0,26,27
 481 1157 481 1157 519.5 1195.5 c 128,-1,28
 558 1234 558 1234 613 1234 c 0,29,30
 667 1234 667 1234 705.5 1195.5 c 128,-1,31
 744 1157 744 1157 744 1102 c 0,20,21
EndSplineSet
EndChar

StartChar: k
Encoding: 78 107 79
Width: 963
GlyphClass: 2
Flags: MW
HStem: 1 43 857 41 1185 41
VStem: 151 233<0 322>
LayerCount: 2
Fore
SplineSet
1000 0 m 1,0,-1
 721 0 l 1,1,-1
 419 376 l 1,2,-1
 384 322 l 1,3,-1
 384 0 l 1,4,-1
 151 0 l 1,5,6
 188 313 188 313 188 613 c 128,-1,7
 188 913 188 913 151 1226 c 1,8,-1
 384 1226 l 1,9,-1
 384 575 l 1,10,-1
 718 898 l 1,11,-1
 940 898 l 1,12,-1
 589 541 l 1,13,14
 737 229 737 229 1000 0 c 1,0,-1
EndSplineSet
EndChar

StartChar: l
Encoding: 79 108 80
Width: 362
GlyphClass: 2
Flags: MW
HStem: 1 43 1185 41
VStem: 153 229
LayerCount: 2
Fore
SplineSet
456 135 m 1,0,-1
 456 0 l 1,1,2
 384 22 384 22 313 22 c 0,3,4
 259 22 259 22 153 0 c 1,5,6
 183 302 183 302 183 605 c 0,7,8
 183 909.5 183 909.5 153 1211 c 1,9,-1
 360 1211 l 1,10,-1
 360 135 l 1,11,-1
 456 135 l 1,0,-1
EndSplineSet
EndChar

StartChar: m
Encoding: 80 109 81
Width: 1357
GlyphClass: 2
Flags: MW
HStem: 1 43 754 166 857 41 876 41
VStem: 157 231<0 0> 642 229<0 0> 1125 231<0 0>
LayerCount: 2
Fore
SplineSet
1357 561 m 0,0,1
 1357 499 1357 499 1349.5 375.5 c 128,-1,2
 1342 252 1342 252 1342 191 c 0,3,4
 1342 88 1342 88 1356 0 c 1,5,-1
 1125 0 l 1,6,-1
 1126 553 l 2,7,8
 1126 599 1126 599 1115.5 637.5 c 128,-1,9
 1105 676 1105 676 1075 706 c 128,-1,10
 1045 736 1045 736 998 736 c 0,11,12
 952 736 952 736 922 706 c 128,-1,13
 892 676 892 676 882 637.5 c 128,-1,14
 872 599 872 599 872 553 c 2,15,-1
 871 0 l 1,16,-1
 642 0 l 1,17,18
 649 99 649 99 649 255 c 0,19,20
 649 306 649 306 646 408.5 c 128,-1,21
 643 511 643 511 643 563 c 0,22,23
 643 626 643 626 608 681 c 128,-1,24
 573 736 573 736 513 736 c 0,25,26
 467 736 467 736 437.5 705.5 c 128,-1,27
 408 675 408 675 399 637 c 128,-1,28
 390 599 390 599 389 553 c 2,29,-1
 388 0 l 1,30,-1
 157 0 l 1,31,32
 188 217 188 217 188 443 c 0,33,34
 188 664 188 664 158 882 c 1,35,-1
 389 882 l 1,36,-1
 389 805 l 1,37,38
 422 850 422 850 473 875.5 c 128,-1,39
 524 901 524 901 580 901 c 0,40,41
 652 901 652 901 717 866 c 128,-1,42
 782 831 782 831 820 771 c 1,43,44
 855 833 855 833 919.5 868 c 128,-1,45
 984 903 984 903 1057 903 c 0,46,47
 1143 903 1143 903 1213 852 c 128,-1,48
 1283 801 1283 801 1320 723 c 128,-1,49
 1357 645 1357 645 1357 561 c 0,0,1
EndSplineSet
EndChar

StartChar: n
Encoding: 81 110 82
Width: 944
GlyphClass: 2
Flags: MW
HStem: 1 43 754 166 857 41
VStem: 156 229<0 513> 712 229<450 511 511 563.5>
LayerCount: 2
Fore
SplineSet
941 0 m 1,0,-1
 712 0 l 1,1,-1
 712 511 l 2,2,3
 712 602 712 602 673 667 c 128,-1,4
 634 732 634 732 549 732 c 0,5,6
 465 732 465 732 425 667.5 c 128,-1,7
 385 603 385 603 385 513 c 2,8,-1
 385 0 l 1,9,-1
 156 0 l 1,10,11
 186 219 186 219 186 439 c 0,12,13
 186 660 186 660 156 878 c 1,14,-1
 365 878 l 1,15,-1
 385 788 l 1,16,17
 420 843 420 843 483.5 871 c 128,-1,18
 547 899 547 899 618 899 c 0,19,20
 701 899 701 899 764.5 866.5 c 128,-1,21
 828 834 828 834 865.5 778 c 128,-1,22
 903 722 903 722 922 653 c 128,-1,23
 941 584 941 584 941 505 c 0,24,25
 941 450 941 450 934 341 c 128,-1,26
 927 232 927 232 927 177 c 0,27,28
 927 92 927 92 941 0 c 1,0,-1
EndSplineSet
EndChar

StartChar: o
Encoding: 82 111 83
Width: 991
GlyphClass: 2
Flags: MW
HStem: -21 141 749 139
VStem: 123 221 718 221
LayerCount: 2
Fore
SplineSet
754 414 m 0,0,1
 754 457 754 457 750 498 c 128,-1,2
 746 539 746 539 734 588.5 c 128,-1,3
 722 638 722 638 702 673.5 c 128,-1,4
 682 709 682 709 645.5 733.5 c 128,-1,5
 609 758 609 758 562 758 c 0,6,7
 512 758 512 758 476.5 728 c 128,-1,8
 441 698 441 698 424 649.5 c 128,-1,9
 407 601 407 601 400 555.5 c 128,-1,10
 393 510 393 510 393 463 c 0,11,12
 393 420 393 420 396.5 379 c 128,-1,13
 400 338 400 338 412.5 289.5 c 128,-1,14
 425 241 425 241 445 205.5 c 128,-1,15
 465 170 465 170 501 146 c 128,-1,16
 537 122 537 122 584 122 c 0,17,18
 634 122 634 122 670 151.5 c 128,-1,19
 706 181 706 181 723 229 c 128,-1,20
 740 277 740 277 747 322 c 128,-1,21
 754 367 754 367 754 414 c 0,0,1
991 436 m 128,-1,23
 991 312 991 312 941.5 209 c 128,-1,24
 892 106 892 106 795.5 42.5 c 128,-1,25
 699 -21 699 -21 573 -21 c 0,26,27
 446 -21 446 -21 349.5 42 c 128,-1,28
 253 105 253 105 204 208 c 128,-1,29
 155 311 155 311 155 436 c 0,30,31
 155 560 155 560 204.5 665 c 128,-1,32
 254 770 254 770 350.5 835 c 128,-1,33
 447 900 447 900 573 900 c 0,34,35
 698 900 698 900 795 834.5 c 128,-1,36
 892 769 892 769 941.5 664.5 c 128,-1,22
 991 560 991 560 991 436 c 128,-1,23
EndSplineSet
EndChar

StartChar: p
Encoding: 83 112 84
Width: 1001
GlyphClass: 2
Flags: MW
HStem: -345 43 -38 164 736 164 837 41
VStem: 157 233<-367 112> 762 237
LayerCount: 2
Fore
SplineSet
763 449 m 0,0,1
 763 494 763 494 752 542.5 c 128,-1,2
 741 591 741 591 719 637 c 128,-1,3
 697 683 697 683 658 712.5 c 128,-1,4
 619 742 619 742 570 742 c 0,5,6
 517 742 517 742 478.5 706.5 c 128,-1,7
 440 671 440 671 421.5 614 c 128,-1,8
 403 557 403 557 395 505 c 128,-1,9
 387 453 387 453 387 403 c 0,10,11
 387 359 387 359 395 316 c 128,-1,12
 403 273 403 273 420.5 230.5 c 128,-1,13
 438 188 438 188 473 162 c 128,-1,14
 508 136 508 136 555 136 c 0,15,16
 610 136 610 136 652 166.5 c 128,-1,17
 694 197 694 197 717 246 c 128,-1,18
 740 295 740 295 751.5 346.5 c 128,-1,19
 763 398 763 398 763 449 c 0,0,1
996 436 m 0,20,21
 996 367 996 367 982 301 c 128,-1,22
 968 235 968 235 937.5 175 c 128,-1,23
 907 115 907 115 864 69.5 c 128,-1,24
 821 24 821 24 758.5 -2.5 c 128,-1,25
 696 -29 696 -29 622 -29 c 0,26,27
 547 -29 547 -29 483.5 8.5 c 128,-1,28
 420 46 420 46 390 112 c 1,29,-1
 390 -367 l 1,30,-1
 157 -367 l 1,31,32
 187 -57 187 -57 187 256 c 0,33,34
 187 568 187 568 157 880 c 1,35,-1
 370 880 l 1,36,-1
 390 748 l 1,37,38
 419 820 419 820 484 860.5 c 128,-1,39
 549 901 549 901 628 901 c 0,40,41
 718 901 718 901 790 859.5 c 128,-1,42
 862 818 862 818 906 750.5 c 128,-1,43
 950 683 950 683 973 602 c 128,-1,44
 996 521 996 521 996 436 c 0,20,21
EndSplineSet
EndChar

StartChar: q
Encoding: 84 113 85
Width: 999
GlyphClass: 2
Flags: MW
HStem: -345 43 -38 164 837 41
VStem: 152 237 761 233<-365 117>
LayerCount: 2
Fore
SplineSet
764 402 m 0,0,1
 764 453 764 453 756.5 504.5 c 128,-1,2
 749 556 749 556 730.5 613 c 128,-1,3
 712 670 712 670 673.5 706 c 128,-1,4
 635 742 635 742 581 742 c 0,5,6
 530 742 530 742 491 712.5 c 128,-1,7
 452 683 452 683 430.5 636.5 c 128,-1,8
 409 590 409 590 399 541 c 128,-1,9
 389 492 389 492 389 445 c 0,10,11
 389 394 389 394 400.5 343.5 c 128,-1,12
 412 293 412 293 435.5 246 c 128,-1,13
 459 199 459 199 501 170 c 128,-1,14
 543 141 543 141 598 141 c 0,15,16
 644 141 644 141 678.5 166.5 c 128,-1,17
 713 192 713 192 730.5 233.5 c 128,-1,18
 748 275 748 275 756 317 c 128,-1,19
 764 359 764 359 764 402 c 0,0,1
994 -365 m 1,20,-1
 761 -365 l 1,21,-1
 761 117 l 1,22,23
 730 50 730 50 666 13 c 128,-1,24
 602 -24 602 -24 525 -24 c 0,25,26
 434 -24 434 -24 361.5 15.5 c 128,-1,27
 289 55 289 55 244.5 121 c 128,-1,28
 200 187 200 187 177 267.5 c 128,-1,29
 154 348 154 348 154 434 c 128,-1,30
 154 520 154 520 177 601 c 128,-1,31
 200 682 200 682 244 750 c 128,-1,32
 288 818 288 818 361 859.5 c 128,-1,33
 434 901 434 901 524 901 c 0,34,35
 602 901 602 901 667 860 c 128,-1,36
 732 819 732 819 761 748 c 1,37,-1
 761 877 l 1,38,-1
 994 877 l 1,39,40
 964 566 964 566 964 255 c 128,-1,41
 964 -56 964 -56 994 -365 c 1,20,-1
EndSplineSet
EndChar

StartChar: r
Encoding: 85 114 86
Width: 723
GlyphClass: 2
Flags: MW
HStem: 1 43 739 181 857 41
VStem: 155 233<0 512>
LayerCount: 2
Fore
SplineSet
804 860 m 1,0,-1
 711 666 l 1,1,2
 643 712 643 712 564 712 c 0,3,4
 492 712 492 712 440 649 c 128,-1,5
 388 586 388 586 388 512 c 2,6,-1
 388 0 l 1,7,-1
 155 0 l 1,8,9
 183 249 183 249 183 455 c 0,10,11
 183 662 183 662 155 881 c 1,12,-1
 388 881 l 1,13,-1
 388 776 l 1,14,15
 423 838 423 838 489.5 870 c 128,-1,16
 556 902 556 902 631 902 c 0,17,18
 724 902 724 902 804 860 c 1,0,-1
EndSplineSet
EndChar

StartChar: s
Encoding: 86 115 87
Width: 921
GlyphClass: 2
Flags: MW
HStem: -16 153 762 155
VStem: 150 206 713 204
LayerCount: 2
Fore
SplineSet
919 279 m 0,0,1
 919 204 919 204 885 145.5 c 128,-1,2
 851 87 851 87 795 52.5 c 128,-1,3
 739 18 739 18 673 1 c 128,-1,4
 607 -16 607 -16 536 -16 c 0,5,6
 416 -16 416 -16 305 27 c 128,-1,7
 194 70 194 70 125 155 c 1,8,-1
 211 262 l 1,9,10
 257 199 257 199 338.5 167 c 128,-1,11
 420 135 420 135 508 135 c 0,12,13
 538 135 538 135 569.5 140 c 128,-1,14
 601 145 601 145 633.5 157 c 128,-1,15
 666 169 666 169 686.5 193 c 128,-1,16
 707 217 707 217 707 250 c 0,17,18
 707 281 707 281 676.5 302 c 128,-1,19
 646 323 646 323 597.5 335 c 128,-1,20
 549 347 549 347 490 357.5 c 128,-1,21
 431 368 431 368 372 385.5 c 128,-1,22
 313 403 313 403 264.5 429 c 128,-1,23
 216 455 216 455 185.5 503 c 128,-1,24
 155 551 155 551 155 617 c 0,25,26
 155 692 155 692 189 751.5 c 128,-1,27
 223 811 223 811 279.5 846.5 c 128,-1,28
 336 882 336 882 402.5 900.5 c 128,-1,29
 469 919 469 919 540 919 c 0,30,31
 649 919 649 919 749.5 881 c 128,-1,32
 850 843 850 843 919 768 c 1,33,-1
 833 669 l 1,34,35
 739 767 739 767 553 767 c 0,36,37
 523 767 523 767 495 762.5 c 128,-1,38
 467 758 467 758 437 747.5 c 128,-1,39
 407 737 407 737 389 714.5 c 128,-1,40
 371 692 371 692 371 661 c 0,41,42
 371 637 371 637 394.5 619.5 c 128,-1,43
 418 602 418 602 456.5 591.5 c 128,-1,44
 495 581 495 581 544.5 568.5 c 128,-1,45
 594 556 594 556 645 544 c 128,-1,46
 696 532 696 532 745.5 510 c 128,-1,47
 795 488 795 488 833.5 460 c 128,-1,48
 872 432 872 432 895.5 385.5 c 128,-1,49
 919 339 919 339 919 279 c 0,0,1
EndSplineSet
EndChar

StartChar: t
Encoding: 87 116 88
Width: 638
GlyphClass: 2
Flags: MW
HStem: -23 134<513.5 563.5> 700 148<86 605 86 605>
VStem: 234 211<212 249 249 359>
LayerCount: 2
Fore
SplineSet
666 199 m 1,0,-1
 738 104 l 1,1,2
 702 45 702 45 643.5 11 c 128,-1,3
 585 -23 585 -23 518 -23 c 0,4,5
 386 -23 386 -23 310 54 c 128,-1,6
 234 131 234 131 234 263 c 0,7,8
 234 359 234 359 243 550.5 c 128,-1,9
 252 742 252 742 252 838 c 0,10,11
 252 986 252 986 224 1090 c 1,12,-1
 445 1090 l 1,13,-1
 445 249 l 2,14,15
 445 187 445 187 471 149 c 128,-1,16
 497 111 497 111 555 111 c 0,17,18
 592 111 592 111 621.5 136.5 c 128,-1,19
 651 162 651 162 666 199 c 1,0,-1
605 848 m 1,20,-1
 605 700 l 1,21,-1
 86 700 l 1,22,-1
 86 848 l 1,23,-1
 605 848 l 1,20,-1
EndSplineSet
EndChar

StartChar: u
Encoding: 88 117 89
Width: 942
GlyphClass: 2
Flags: MW
HStem: -20 166 1 43 857 41
VStem: 156 229<898 898> 712 229<0 111>
LayerCount: 2
Fore
SplineSet
941 0 m 1,0,-1
 732 0 l 1,1,-1
 712 111 l 1,2,3
 679 50 679 50 615 15 c 128,-1,4
 551 -20 551 -20 479 -20 c 0,5,6
 325 -20 325 -20 239.5 62.5 c 128,-1,7
 154 145 154 145 154 298 c 0,8,9
 154 364 154 364 162 496 c 128,-1,10
 170 628 170 628 170 694 c 0,11,12
 170 794 170 794 156 898 c 1,13,-1
 385 898 l 1,14,-1
 385 355 l 2,15,16
 385 145 385 145 546 145 c 0,17,18
 626 145 626 145 669 209.5 c 128,-1,19
 712 274 712 274 712 357 c 2,20,-1
 712 898 l 1,21,-1
 941 898 l 1,22,23
 914 666 914 666 914 457 c 0,24,25
 914 256 914 256 941 0 c 1,0,-1
EndSplineSet
EndChar

StartChar: v
Encoding: 89 118 90
Width: 1019
GlyphClass: 2
Flags: MW
HStem: 1 43 857 41
LayerCount: 2
Fore
SplineSet
844 898 m 1,0,-1
 1038 898 l 1,1,-1
 674 0 l 1,2,-1
 467 0 l 1,3,-1
 103 898 l 1,4,-1
 366 898 l 1,5,6
 396 725 396 725 450 584 c 128,-1,7
 504 443 504 443 599 288 c 1,8,-1
 844 898 l 1,0,-1
EndSplineSet
EndChar

StartChar: w
Encoding: 90 119 91
Width: 1472
GlyphClass: 2
Flags: MW
HStem: 1 43 857 41
LayerCount: 2
Fore
SplineSet
1291 898 m 1,0,-1
 1488 898 l 1,1,-1
 1190 0 l 1,2,-1
 976 0 l 1,3,-1
 792 586 l 1,4,-1
 598 0 l 1,5,-1
 384 0 l 1,6,-1
 114 898 l 1,7,-1
 362 898 l 1,8,9
 380 589 380 589 512 307 c 1,10,-1
 716 898 l 1,11,-1
 934 898 l 1,12,13
 969 589 969 589 1117 307 c 1,14,-1
 1291 898 l 1,0,-1
EndSplineSet
EndChar

StartChar: x
Encoding: 91 120 92
Width: 983
GlyphClass: 2
Flags: MW
HStem: 0 21G<116 333 116 116 736 1019 736 736>
VStem: 116 903<0 0>
LayerCount: 2
Fore
SplineSet
1019 0 m 1,0,-1
 736 0 l 1,1,-1
 543 284 l 1,2,-1
 333 0 l 1,3,-1
 116 0 l 1,4,-1
 438 438 l 1,5,-1
 136 881 l 1,6,-1
 419 881 l 1,7,8
 485 745 485 745 565 609 c 1,9,-1
 766 881 l 1,10,-1
 983 881 l 1,11,-1
 665 450 l 1,12,13
 802 244 802 244 1019 0 c 1,0,-1
EndSplineSet
EndChar

StartChar: y
Encoding: 92 121 93
Width: 986
GlyphClass: 2
Flags: MW
HStem: -27 42 1042 177
LayerCount: 2
Fore
SplineSet
858 880 m 1,0,-1
 1031 880 l 1,1,-1
 671 -90 l 2,2,3
 563 -385 563 -385 347 -385 c 0,4,5
 274 -385 274 -385 223 -360 c 128,-1,6
 172 -335 172 -335 117 -278 c 1,7,-1
 201 -152 l 1,8,9
 226 -198 226 -198 256 -220.5 c 128,-1,10
 286 -243 286 -243 335 -243 c 0,11,12
 369 -243 369 -243 399 -225 c 128,-1,13
 429 -207 429 -207 448.5 -182.5 c 128,-1,14
 468 -158 468 -158 487.5 -117.5 c 128,-1,15
 507 -77 507 -77 517 -48.5 c 128,-1,16
 527 -20 527 -20 541.5 24.5 c 128,-1,17
 556 69 556 69 561 83 c 1,18,-1
 125 880 l 1,19,-1
 396 880 l 1,20,21
 459 575 459 575 658 341 c 1,22,-1
 858 880 l 1,0,-1
EndSplineSet
EndChar

StartChar: z
Encoding: 93 122 94
Width: 916
GlyphClass: 2
Flags: MW
HStem: 0 145<428 917> 756 143
LayerCount: 2
Fore
SplineSet
917 145 m 1,0,-1
 917 0 l 1,1,2
 717 20 717 20 525 20 c 0,3,4
 334 20 334 20 134 0 c 1,5,-1
 134 118 l 1,6,-1
 617 714 l 1,7,-1
 157 714 l 1,8,-1
 157 876 l 1,9,10
 344 846 344 846 536 846 c 0,11,12
 726 846 726 846 915 876 c 1,13,-1
 915 759 l 1,14,-1
 428 145 l 1,15,-1
 917 145 l 1,0,-1
EndSplineSet
EndChar

StartChar: braceleft
Encoding: 94 123 95
Width: 593
GlyphClass: 2
Flags: MW
HStem: -420 143 331 143 1066 143
VStem: 95 408 269 410<-370 273>
LayerCount: 2
Fore
SplineSet
679 -226 m 1,0,-1
 679 -370 l 1,1,-1
 480 -370 l 1,2,-1
 474 -370 l 2,3,4
 269 -369 269 -369 269 -148 c 2,5,-1
 269 273 l 2,6,7
 269 302 269 302 263 318.5 c 128,-1,8
 257 335 257 335 240.5 342 c 128,-1,9
 224 349 224 349 211.5 350 c 128,-1,10
 199 351 199 351 169.651824569 351.072887255 c 0,11,12
 160 351 160 351 155 351 c 1,13,-1
 155 494 l 1,14,15
 159 494 159 494 166.215046437 493.971372566 c 0,16,17
 191 494 191 494 202.5 494.5 c 128,-1,18
 214 495 214 495 229.5 499 c 128,-1,19
 245 503 245 503 252 511 c 128,-1,20
 259 519 259 519 264 534.5 c 128,-1,21
 269 550 269 550 269 574 c 2,22,-1
 269 986 l 2,23,24
 269 1098 269 1098 320.5 1154 c 128,-1,25
 372 1210 372 1210 480 1210 c 2,26,-1
 679 1210 l 1,27,-1
 679 1066 l 1,28,29
 665 1066 665 1066 638.5 1067.5 c 128,-1,30
 612 1069 612 1069 597 1069.5 c 128,-1,31
 582 1070 582 1070 561.5 1066.5 c 128,-1,32
 541 1063 541 1063 530 1055 c 128,-1,33
 519 1047 519 1047 511 1029.5 c 128,-1,34
 503 1012 503 1012 503 986 c 2,35,-1
 503 601 l 2,36,37
 503 483 503 483 437 421 c 1,38,39
 503 348 503 348 503 236 c 2,40,-1
 503 -148 l 2,41,42
 503 -174 503 -174 511 -190.5 c 128,-1,43
 519 -207 519 -207 530.5 -215 c 128,-1,44
 542 -223 542 -223 562.5 -226.5 c 128,-1,45
 583 -230 583 -230 598 -229.5 c 128,-1,46
 613 -229 613 -229 639.5 -227.5 c 128,-1,47
 666 -226 666 -226 679 -226 c 1,0,-1
EndSplineSet
EndChar

StartChar: bar
Encoding: 95 124 96
Width: 328
GlyphClass: 2
Flags: MW
HStem: -419 42 1170 40
VStem: 155 172<-360 1210 -360 1210>
LayerCount: 2
Fore
SplineSet
327 1210 m 1,0,-1
 327 -360 l 1,1,-1
 155 -360 l 1,2,3
 165 14 165 14 165 424 c 0,4,5
 165 836 165 836 155 1210 c 1,6,-1
 327 1210 l 1,0,-1
EndSplineSet
EndChar

StartChar: braceright
Encoding: 96 125 97
Width: 632
GlyphClass: 2
Flags: MW
HStem: -226 143 525 143 1260 143
VStem: 27 409 203 407 204 232
LayerCount: 2
Fore
SplineSet
632 494 m 1,0,-1
 632 351 l 1,1,2
 566.910916591 351 566.910916591 351 551.248847824 344.77050226 c 0,3,4
 518 331.545964336 518 331.545964336 518 273 c 2,5,-1
 518 -142 l 2,6,7
 518 -254 518 -254 466.5 -309 c 128,-1,8
 415 -364 415 -364 307 -364 c 2,9,-1
 108 -364 l 1,10,-1
 108 -220 l 1,11,12
 121 -220 121 -220 147.5 -221.5 c 128,-1,13
 174 -223 174 -223 189 -223.5 c 128,-1,14
 204 -224 204 -224 224.5 -220.5 c 128,-1,15
 245 -217 245 -217 256.5 -209 c 128,-1,16
 268 -201 268 -201 276 -184.5 c 128,-1,17
 284 -168 284 -168 284 -142 c 2,18,-1
 284 236 l 2,19,20
 284 346 284 346 350 421 c 1,21,22
 284 483 284 483 284 601 c 2,23,-1
 284 986 l 2,24,25
 284 1012 284 1012 276 1029.5 c 128,-1,26
 268 1047 268 1047 257 1055 c 128,-1,27
 246 1063 246 1063 225.5 1066.5 c 128,-1,28
 205 1070 205 1070 190 1069.5 c 128,-1,29
 175 1069 175 1069 148.5 1067.5 c 128,-1,30
 122 1066 122 1066 108 1066 c 1,31,-1
 108 1210 l 1,32,-1
 314 1210 l 2,33,34
 518 1210 518 1210 518 986 c 2,35,-1
 518 574 l 2,36,37
 518 545 518 545 524 528 c 128,-1,38
 530 511 530 511 546.5 504 c 128,-1,39
 563 497 563 497 576.5 495.5 c 128,-1,40
 590 494 590 494 620.941953543 493.971421475 c 0,41,42
 628 494 628 494 632 494 c 1,0,-1
EndSplineSet
EndChar

StartChar: asciitilde
Encoding: 97 126 98
Width: 1177
GlyphClass: 2
Flags: MW
HStem: 944 168<760.5 861.5 760.5 885> 1044 167<431.5 531> 1204 20G<943 943>
VStem: 233 116<952 982> 943 117<1194 1224>
LayerCount: 2
Fore
SplineSet
943 1224 m 1,0,-1
 1060 1194 l 1,1,2
 1054 1106 1054 1106 983 1025 c 128,-1,3
 912 944 912 944 819 944 c 0,4,5
 755 944 755 944 643 994 c 128,-1,6
 531 1044 531 1044 468 1044 c 0,7,8
 412 1044 412 1044 384 1022.5 c 128,-1,9
 356 1001 356 1001 349 952 c 1,10,-1
 233 982 l 1,11,12
 237 1067 237 1067 309 1139 c 128,-1,13
 381 1211 381 1211 474 1211 c 0,14,15
 538 1211 538 1211 649 1161.5 c 128,-1,16
 760 1112 760 1112 824 1112 c 0,17,18
 877 1112 877 1112 906.5 1143 c 128,-1,19
 936 1174 936 1174 943 1224 c 1,0,-1
EndSplineSet
EndChar

StartChar: anusvara
Encoding: 184 3330 99
Width: 831
GlyphClass: 2
Flags: MW
LayerCount: 2
Fore
SplineSet
832 324 m 0,0,1
 832 252 832 252 805 189 c 128,-1,2
 778 126 778 126 731 79 c 0,3,4
 629 -23 629 -23 486 -23 c 0,5,6
 340.580645161 -23 340.580645161 -23 239 77.5 c 0,7,8
 138 177.425531915 138 177.425531915 138 324 c 0,9,10
 138 469 138 469 239.5 570.5 c 128,-1,11
 341 672 341 672 486 672 c 0,12,13
 629.578947368 672 629.578947368 672 731 569.5 c 0,14,15
 832 467.425531915 832 467.425531915 832 324 c 0,0,1
669 333.5 m 0,16,17
 669 380 669 380 651.5 420.5 c 128,-1,18
 634 461 634 461 603.5 491 c 128,-1,19
 573 521 573 521 532 538.5 c 128,-1,20
 491 556 491 556 445 556 c 128,-1,21
 399 556 399 556 358.5 538.5 c 128,-1,22
 318 521 318 521 287.5 491 c 128,-1,23
 257 461 257 461 239 420.5 c 128,-1,24
 221 380 221 380 221 334 c 128,-1,25
 221 288 221 288 238.5 247 c 128,-1,26
 256 206 256 206 286.5 175.5 c 0,27,28
 352 110 352 110 445 110 c 0,29,30
 539 110 539 110 604 175 c 128,-1,31
 669 240 669 240 669 333.5 c 0,16,17
EndSplineSet
EndChar

StartChar: visarga
Encoding: 185 3331 100
Width: 444
GlyphClass: 2
Flags: MW
LayerCount: 2
Fore
SplineSet
437 702.5 m 4,0,1
 437 665 437 665 424.5 633 c 132,-1,2
 412 601 412 601 389.5 578 c 4,3,4
 340.586956522 528 340.586956522 528 266 528 c 4,5,6
 197.666666667 528 197.666666667 528 150 580 c 4,7,8
 104 630.181818182 104 630.181818182 104 701 c 4,9,10
 104 772.76744186 104 772.76744186 149.5 822.5 c 4,11,12
 196.617021277 874 196.617021277 874 266 874 c 4,13,14
 341 874 341 874 389 826 c 132,-1,15
 437 778 437 778 437 702.5 c 4,0,1
437 192.5 m 0,16,17
 437 155 437 155 424.5 123.5 c 128,-1,18
 412 92 412 92 389.5 68.5 c 0,19,20
 342.106382979 19 342.106382979 19 266 19 c 0,21,22
 197.666666667 19 197.666666667 19 150 71 c 0,23,24
 104 121.181818182 104 121.181818182 104 191 c 0,25,26
 104 262.76744186 104 262.76744186 149.5 312.5 c 0,27,28
 196.617021277 364 196.617021277 364 266 364 c 0,29,30
 341 364 341 364 389 316 c 128,-1,31
 437 268 437 268 437 192.5 c 0,16,17
310.5 670.5 m 132,-1,33
 316 684 316 684 316 706.5 c 132,-1,34
 316 729 316 729 296 753.5 c 132,-1,35
 276 778 276 778 244.5 778 c 132,-1,36
 213 778 213 778 192.5 753.5 c 132,-1,37
 172 729 172 729 172 706.5 c 132,-1,38
 172 684 172 684 177.5 670.5 c 132,-1,39
 183 657 183 657 193 646 c 132,-1,40
 203 635 203 635 216 628.5 c 132,-1,41
 229 622 229 622 244 622 c 132,-1,42
 259 622 259 622 272 628.5 c 132,-1,43
 285 635 285 635 295 646 c 132,-1,32
 305 657 305 657 310.5 670.5 c 132,-1,33
295.5 136.5 m 128,-1,45
 316 161 316 161 316 183.5 c 128,-1,46
 316 206 316 206 310.5 219.5 c 128,-1,47
 305 233 305 233 295 244 c 128,-1,48
 285 255 285 255 272 261.5 c 128,-1,49
 259 268 259 268 244 268 c 128,-1,50
 229 268 229 268 216 261.5 c 128,-1,51
 203 255 203 255 193 244 c 0,52,53
 172 220.9 172 220.9 172 191 c 128,-1,54
 172 161 172 161 193 136.5 c 128,-1,55
 214 112 214 112 244.5 112 c 128,-1,44
 275 112 275 112 295.5 136.5 c 128,-1,45
EndSplineSet
EndChar

StartChar: ml_a
Encoding: 186 3333 101
Width: 2050
GlyphClass: 2
Flags: MW
LayerCount: 2
Fore
SplineSet
1302 804 m 1,0,1
 1381.0625 919 1381.0625 919 1567 919 c 0,2,3
 1772.87313433 919 1772.87313433 919 1911.5 775 c 0,4,5
 2048 633.209302326 2048 633.209302326 2048 426 c 0,6,7
 2048 257 2048 257 1974.5 131 c 0,8,9
 1886.41666667 -20 1886.41666667 -20 1729 -20 c 0,10,11
 1591.84210526 -20 1591.84210526 -20 1516 111 c 0,12,13
 1453 219.818181818 1453 219.818181818 1453 367 c 0,14,15
 1453 538.88 1453 538.88 1568.5 659 c 0,16,17
 1606 698 1606 698 1654 723 c 1,18,19
 1596 759 1596 759 1547 759 c 128,-1,20
 1498 759 1498 759 1471 751 c 128,-1,21
 1444 743 1444 743 1422.5 727 c 0,22,23
 1375 691.651162791 1375 691.651162791 1375 634 c 2,24,-1
 1375 -1 l 1,25,-1
 1172 -1 l 1,26,-1
 1172 578 l 2,27,28
 1172 672.163265306 1172 672.163265306 1121.5 734 c 0,29,30
 1068.45988392 798.947080915 1068.45988392 798.947080915 975 797 c 1,31,-1
 968 797 l 1,32,33
 1073 713.976744186 1073 713.976744186 1073 609 c 0,34,35
 1073 549 1073 549 1043 496.5 c 128,-1,36
 1013 444 1013 444 963 412 c 1,37,38
 1073 357 1073 357 1073 236 c 0,39,40
 1073 122.925925926 1073 122.925925926 983.5 50 c 0,41,42
 898.818181818 -19 898.818181818 -19 796.409090909 -19 c 128,-1,43
 694 -19 694 -19 629.5 17 c 128,-1,44
 565 53 565 53 523 112.5 c 0,45,46
 441 228.666666667 441 228.666666667 441 402 c 0,47,48
 441 616.768115942 441 616.768115942 583 767 c 1,49,-1
 576 767 l 1,50,51
 421.569136918 768.883303208 421.569136918 768.883303208 336 651.5 c 0,52,53
 260 547.243589744 260 547.243589744 260 386 c 0,54,55
 260 160.511111111 260 160.511111111 432 21 c 1,56,-1
 334 -21 l 1,57,58
 140 129.888888889 140 129.888888889 140 433 c 0,59,60
 140 650.705882353 140 650.705882353 262.5 783.5 c 0,61,62
 388.418604651 920 388.418604651 920 605 920 c 0,63,64
 708.909090909 920 708.909090909 920 778 882 c 1,65,66
 829 909 829 909 884.5 914 c 128,-1,67
 940 919 940 919 991 919 c 128,-1,68
 1042 919 1042 919 1083.5 914 c 128,-1,69
 1125 909 1125 909 1162.5 896 c 0,70,71
 1238.16489362 869.769503546 1238.16489362 869.769503546 1302 804 c 1,0,1
1755 621 m 1,72,73
 1582 584.958333333 1582 584.958333333 1582 378 c 0,74,75
 1582 249.25 1582 249.25 1642 200.5 c 0,76,77
 1666 181 1666 181 1704 181 c 128,-1,78
 1742 181 1742 181 1765 204 c 128,-1,79
 1788 227 1788 227 1800 260 c 0,80,81
 1819 312.25 1819 312.25 1819 384.625 c 0,82,83
 1819 519 1819 519 1755 621 c 1,72,73
882.5 213 m 0,84,85
 895 229 895 229 895 251.5 c 128,-1,86
 895 274 895 274 885.5 291 c 128,-1,87
 876 308 876 308 861 320 c 0,88,89
 828.5 346 828.5 346 789 346 c 2,90,-1
 716 346 l 1,91,-1
 716 499 l 1,92,-1
 789 499 l 2,93,94
 824.096774194 499 824.096774194 499 847 534.5 c 0,95,96
 867 565.5 867 565.5 867 597.75 c 128,-1,97
 867 630 867 630 856 652 c 128,-1,98
 845 674 845 674 827 691 c 0,99,100
 792.238866397 723.829959514 792.238866397 723.829959514 740 742 c 1,101,102
 614.526567164 664.325970149 614.526567164 664.325970149 577.5 513 c 0,103,104
 566 466 566 466 566 418 c 128,-1,105
 566 370 566 370 577.5 325.5 c 128,-1,106
 589 281 589 281 614 246 c 0,107,108
 669 169 669 169 767 169 c 0,109,110
 848.125 169 848.125 169 882.5 213 c 0,84,85
EndSplineSet
EndChar

StartChar: ml_aa
Encoding: 187 3334 102
Width: 2357
GlyphClass: 2
Flags: MW
LayerCount: 2
Fore
SplineSet
1303 804 m 1,0,1
 1384.61290323 919 1384.61290323 919 1568 919 c 0,2,3
 1684 919 1684 919 1785 868.5 c 128,-1,4
 1886 818 1886 818 1953 724 c 1,5,6
 2140.43291258 694.405329593 2140.43291258 694.405329593 2250 558.5 c 0,7,8
 2357 425.778846154 2357 425.778846154 2357 234 c 0,9,10
 2357 17.3435114504 2357 17.3435114504 2219.5 -138 c 0,11,12
 2076.10810811 -300 2076.10810811 -300 1861 -300 c 0,13,14
 1693.69811321 -300 1693.69811321 -300 1557 -195 c 1,15,-1
 1601 -87 l 1,16,17
 1700.6 -170 1700.6 -170 1799.3 -170 c 128,-1,18
 1898 -170 1898 -170 1960 -128 c 128,-1,19
 2022 -86 2022 -86 2063.5 -21 c 0,20,21
 2147 109.78313253 2147 109.78313253 2147 271 c 0,22,23
 2147 453.4 2147 453.4 2035 543 c 1,24,25
 2048 480.166666667 2048 480.166666667 2048 416.583333333 c 128,-1,26
 2048 353 2048 353 2030.5 274 c 128,-1,27
 2013 195 2013 195 1974.5 129 c 0,28,29
 1885.83333333 -23 1885.83333333 -23 1728 -23 c 0,30,31
 1590.41176471 -23 1590.41176471 -23 1516 92 c 0,32,33
 1452 190.909090909 1452 190.909090909 1452 335 c 0,34,35
 1452 454.8 1452 454.8 1514 554 c 0,36,37
 1576.97687861 654.76300578 1576.97687861 654.76300578 1689 698 c 1,38,39
 1617.48275862 759 1617.48275862 759 1527 759 c 0,40,41
 1468.84375 759 1468.84375 759 1435.921875 734.5 c 0,42,43
 1376 689.906976744 1376 689.906976744 1376 633 c 2,44,-1
 1376 -3 l 1,45,-1
 1173 -3 l 1,46,-1
 1173 577 l 2,47,48
 1173 731 1173 731 1062 780.5 c 0,49,50
 1025 797 1025 797 976 797 c 2,51,-1
 968 797 l 1,52,53
 1074 712.681818182 1074 712.681818182 1074 608 c 0,54,55
 1074 548 1074 548 1044 495 c 128,-1,56
 1014 442 1014 442 963 410 c 1,57,58
 1015 385 1015 385 1044.5 338 c 128,-1,59
 1074 291 1074 291 1074 233 c 128,-1,60
 1074 175 1074 175 1049 128 c 128,-1,61
 1024 81 1024 81 983.5 47.5 c 0,62,63
 899.47761194 -22 899.47761194 -22 797.23880597 -22 c 128,-1,64
 695 -22 695 -22 630.5 14.5 c 128,-1,65
 566 51 566 51 524 110.5 c 0,66,67
 441 228.083333333 441 228.083333333 441 400 c 0,68,69
 441 615.828571429 441 615.828571429 584 767 c 1,70,-1
 568 767 l 1,71,72
 414.555831826 768.871270344 414.555831826 768.871270344 332 649.5 c 0,73,74
 261 546.837837838 261 546.837837838 261 385 c 0,75,76
 261 158.146067416 261 158.146067416 433 19 c 1,77,-1
 334 -23 l 1,78,79
 140 124.296296296 140 124.296296296 140 432 c 0,80,81
 140 649.75 140 649.75 263 783 c 0,82,83
 389.461538462 920 389.461538462 920 606 920 c 0,84,85
 707.428571429 920 707.428571429 920 778 882 c 1,86,87
 850.576923077 919 850.576923077 919 969.288461538 919 c 128,-1,88
 1088 919 1088 919 1163.5 895 c 128,-1,89
 1239 871 1239 871 1303 804 c 1,0,1
1580 318 m 0,90,91
 1580 179 1580 179 1702 179 c 0,92,93
 1818 179 1818 179 1818 395 c 0,94,95
 1818 490.714285714 1818 490.714285714 1774 585 c 1,96,97
 1684 554 1684 554 1632 483.5 c 128,-1,98
 1580 413 1580 413 1580 318 c 0,90,91
883.5 211 m 0,99,100
 896 227 896 227 896 249.5 c 128,-1,101
 896 272 896 272 886.5 289 c 128,-1,102
 877 306 877 306 862 318.5 c 0,103,104
 830.2 345 830.2 345 789 345 c 2,105,-1
 717 345 l 1,106,-1
 717 498 l 1,107,-1
 789 498 l 2,108,109
 825.096774194 498 825.096774194 498 848 533.5 c 0,110,111
 868 564.5 868 564.5 868 596.75 c 128,-1,112
 868 629 868 629 856.5 651 c 128,-1,113
 845 673 845 673 827 690.5 c 0,114,115
 794.02901354 722.555125725 794.02901354 722.555125725 741 741 c 1,116,117
 614.318985849 662.578419811 614.318985849 662.578419811 577.5 510.5 c 0,118,119
 566 463 566 463 566 415.5 c 128,-1,120
 566 368 566 368 578 323.5 c 128,-1,121
 590 279 590 279 614.5 244.5 c 0,122,123
 669.536231884 167 669.536231884 167 767 167 c 0,124,125
 849.125 167 849.125 167 883.5 211 c 0,99,100
EndSplineSet
EndChar

StartChar: ml_i
Encoding: 188 3335 103
Width: 1593
GlyphClass: 2
Flags: MW
LayerCount: 2
Fore
SplineSet
277 622 m 1,0,1
 350.75 681 350.75 681 424.375 681 c 128,-1,2
 498 681 498 681 547.5 656.5 c 128,-1,3
 597 632 597 632 632 591.5 c 0,4,5
 705 507.028571429 705 507.028571429 705 388 c 0,6,7
 705 267.507246377 705 267.507246377 632.5 184.5 c 0,8,9
 557.82278481 99 557.82278481 99 437 99 c 0,10,11
 299.226804124 99 299.226804124 99 215 206.5 c 0,12,13
 138 304.776315789 138 304.776315789 138 447 c 0,14,15
 138 643.951219512 138 643.951219512 268.5 784 c 0,16,17
 401.75 927 401.75 927 597 927 c 0,18,19
 702.4 927 702.4 927 755.7 906.5 c 0,20,21
 853.324120603 868.952261307 853.324120603 868.952261307 904 792 c 1,22,23
 956.739782527 891.928008999 956.739782527 891.928008999 1102 918.5 c 0,24,25
 1143 926 1143 926 1181 926 c 0,26,27
 1380.5 926 1380.5 926 1493 776 c 0,28,29
 1594 641.333333333 1594 641.333333333 1594 435 c 0,30,31
 1594 236 1594 236 1501.5 106.5 c 0,32,33
 1396.14285714 -41 1396.14285714 -41 1205 -41 c 2,34,-1
 422 -41 l 2,35,36
 404 -41 404 -41 386 -51.5 c 128,-1,37
 368 -62 368 -62 368 -77.5 c 128,-1,38
 368 -93 368 -93 373.5 -100.5 c 128,-1,39
 379 -108 379 -108 387 -112.5 c 0,40,41
 402.111111111 -121 402.111111111 -121 422 -121 c 2,42,-1
 1555 -121 l 1,43,-1
 1555 -307 l 1,44,-1
 409 -307 l 2,45,46
 254.071428571 -307 254.071428571 -307 195.5 -207 c 0,47,48
 175 -172 175 -172 175 -122 c 128,-1,49
 175 -72 175 -72 194.5 -35 c 128,-1,50
 214 2 214 2 246 25 c 0,51,52
 308.608695652 70 308.608695652 70 409 70 c 2,53,-1
 1095 70 l 2,54,55
 1227.63461538 70 1227.63461538 70 1294 189 c 0,56,57
 1347 284.034482759 1347 284.034482759 1347 429 c 0,58,59
 1347 556.153846154 1347 556.153846154 1299 654 c 0,60,61
 1238.16981132 778 1238.16981132 778 1125 778 c 0,62,63
 1024.8627451 778 1024.8627451 778 991 699.5 c 0,64,65
 980 674 980 674 980 642 c 2,66,-1
 980 121 l 1,67,-1
 780 121 l 1,68,-1
 780 592 l 2,69,70
 780 688.083333333 780 688.083333333 698 732.5 c 0,71,72
 636.153846154 766 636.153846154 766 529 766 c 0,73,74
 404 766 404 766 322 684 c 0,75,76
 295 657 295 657 277 622 c 1,0,1
385 549 m 0,77,78
 306.078431373 549 306.078431373 549 282.5 456.5 c 0,79,80
 276 431 276 431 276 405.5 c 128,-1,81
 276 380 276 380 283 352.5 c 128,-1,82
 290 325 290 325 304.5 303 c 0,83,84
 337.454545455 253 337.454545455 253 393 253 c 0,85,86
 445.642857143 253 445.642857143 253 476.5 301 c 0,87,88
 503 342.222222222 503 342.222222222 503 383.111111111 c 0,89,90
 503 455.75862069 503 455.75862069 471.558139535 502.379310345 c 128,-1,91
 440.11627907 549 440.11627907 549 385 549 c 0,77,78
EndSplineSet
EndChar

StartChar: ml_ii
Encoding: 189 3336 104
Width: 2837
GlyphClass: 2
Flags: MW
LayerCount: 2
Fore
SplineSet
2218 768 m 1,0,1
 2282.05882353 889 2282.05882353 889 2469 889 c 0,2,3
 2637.31034483 889 2637.31034483 889 2741 743.5 c 0,4,5
 2835 611.596774194 2835 611.596774194 2835 439 c 0,6,7
 2835 230.258064516 2835 230.258064516 2705 105.5 c 0,8,9
 2576.31092437 -18 2576.31092437 -18 2368 -18 c 0,10,11
 2217.13513514 -18 2217.13513514 -18 2114 54 c 0,12,13
 1995.6990267 136.587471924 1995.6990267 136.587471924 1992 279 c 1,14,-1
 2077 279 l 1,15,16
 2086.4976881 199.219419924 2086.4976881 199.219419924 2155 149.5 c 0,17,18
 2217.68888889 104 2217.68888889 104 2296.84444444 104 c 128,-1,19
 2376 104 2376 104 2433.5 132 c 128,-1,20
 2491 160 2491 160 2529.5 208 c 0,21,22
 2607 304.623376623 2607 304.623376623 2607 453 c 0,23,24
 2607 558.456521739 2607 558.456521739 2573.5 624.72826087 c 128,-1,25
 2540 691 2540 691 2503 721.5 c 128,-1,26
 2466 752 2466 752 2416 752 c 128,-1,27
 2366 752 2366 752 2334 727.5 c 128,-1,28
 2302 703 2302 703 2302 653 c 2,29,-1
 2302 355 l 1,30,-1
 2101 355 l 1,31,-1
 2101 598 l 2,32,33
 2101 672 2101 672 2066 707 c 128,-1,34
 2031 742 2031 742 1970 742 c 128,-1,35
 1909 742 1909 742 1875.5 718.5 c 128,-1,36
 1842 695 1842 695 1820 658.5 c 0,37,38
 1778 588.818181818 1778 588.818181818 1778 507.409090909 c 128,-1,39
 1778 426 1778 426 1805 363 c 1,40,-1
 1704 363 l 1,41,42
 1684 426.636363636 1684 426.636363636 1684 501.318181818 c 128,-1,43
 1684 576 1684 576 1703.5 645.5 c 128,-1,44
 1723 715 1723 715 1762.5 769.5 c 0,45,46
 1851.28440367 892 1851.28440367 892 2005.03026154 892 c 128,-1,47
 2158.7761194 892 2158.7761194 892 2218 768 c 1,0,1
278 622 m 1,48,49
 349.642857143 681 349.642857143 681 424.321428571 681 c 128,-1,50
 499 681 499 681 548.5 656.5 c 128,-1,51
 598 632 598 632 633.5 591.5 c 0,52,53
 707 507.647887324 707 507.647887324 707 388 c 0,54,55
 707 265.342857143 707 265.342857143 634 184 c 0,56,57
 557.717948718 99 557.717948718 99 438 99 c 0,58,59
 299.226804124 99 299.226804124 99 215 206.5 c 0,60,61
 138 304.776315789 138 304.776315789 138 447 c 0,62,63
 138 642.87804878 138 642.87804878 269.5 784 c 0,64,65
 402.75 927 402.75 927 599 927 c 0,66,67
 760.169811321 927 760.169811321 927 845.5 859.5 c 0,68,69
 879 833 879 833 906 792 c 1,70,71
 961.60331825 892.085972851 961.60331825 892.085972851 1106 918.5 c 0,72,73
 1147 926 1147 926 1185 926 c 0,74,75
 1386.10218978 926 1386.10218978 926 1498.5 776.5 c 0,76,77
 1600 641.495145631 1600 641.495145631 1600 435 c 0,78,79
 1600 234.34375 1600 234.34375 1507 105.5 c 0,80,81
 1401.2556391 -41 1401.2556391 -41 1209 -41 c 2,82,-1
 424 -41 l 2,83,84
 406 -41 406 -41 387.5 -51.5 c 128,-1,85
 369 -62 369 -62 369 -77.5 c 128,-1,86
 369 -93 369 -93 374.5 -100.5 c 128,-1,87
 380 -108 380 -108 388 -112.5 c 0,88,89
 403.111111111 -121 403.111111111 -121 424 -121 c 2,90,-1
 1561 -121 l 1,91,-1
 1561 -307 l 1,92,-1
 410 -307 l 2,93,94
 254.623188406 -307 254.623188406 -307 195.5 -207.5 c 0,95,96
 175 -173 175 -173 175 -122.5 c 128,-1,97
 175 -72 175 -72 194.5 -35 c 128,-1,98
 214 2 214 2 246.5 25 c 0,99,100
 310.086956522 70 310.086956522 70 410 70 c 2,101,-1
 1098 70 l 2,102,103
 1229.99038462 70 1229.99038462 70 1297.5 189 c 0,104,105
 1351 283.305084746 1351 283.305084746 1351 429 c 0,106,107
 1351 556.153846154 1351 556.153846154 1303 654 c 0,108,109
 1242.16981132 778 1242.16981132 778 1129 778 c 0,110,111
 1028.32 778 1028.32 778 994 700 c 0,112,113
 983 675 983 675 983 642 c 2,114,-1
 983 121 l 1,115,-1
 783 121 l 1,116,-1
 783 592 l 2,117,118
 783 688.424657534 783 688.424657534 700.5 732.5 c 0,119,120
 637.794871795 766 637.794871795 766 531 766 c 0,121,122
 407.018518519 766 407.018518519 766 323.5 684 c 0,123,124
 296 657 296 657 278 622 c 1,48,49
276 421.12962963 m 128,-1,126
 276 380 276 380 283 352.5 c 128,-1,127
 290 325 290 325 305 303 c 0,128,129
 339.090909091 253 339.090909091 253 394 253 c 0,130,131
 446.642857143 253 446.642857143 253 477.5 301 c 0,132,133
 504 342.222222222 504 342.222222222 504 383.611111111 c 0,134,135
 504 457.466666667 504 457.466666667 472.795454545 503.233333333 c 128,-1,136
 441.590909091 549 441.590909091 549 387.356430155 549 c 128,-1,137
 333.12195122 549 333.12195122 549 304.56097561 505.62962963 c 128,-1,125
 276 462.259259259 276 462.259259259 276 421.12962963 c 128,-1,126
EndSplineSet
EndChar

StartChar: ml_u
Encoding: 190 3337 105
Width: 1141
GlyphClass: 2
Flags: MW
LayerCount: 2
Fore
SplineSet
277 622 m 1,0,1
 351.296296296 681 351.296296296 681 424.148148148 681 c 128,-1,2
 497 681 497 681 546 656.5 c 128,-1,3
 595 632 595 632 630 591 c 0,4,5
 703 505.485714286 703 505.485714286 703 387 c 0,6,7
 703 267.507246377 703 267.507246377 630.5 184.5 c 0,8,9
 555.82278481 99 555.82278481 99 436 99 c 0,10,11
 297.153061224 99 297.153061224 99 214.5 207 c 0,12,13
 138 306.96 138 306.96 138 429.98 c 128,-1,14
 138 553 138 553 173.5 640 c 128,-1,15
 209 727 209 727 273 788.5 c 0,16,17
 406.723577236 917 406.723577236 917 618 917 c 0,18,19
 849.728682171 917 849.728682171 917 992.5 784.5 c 0,20,21
 1141 646.683453237 1141 646.683453237 1141 419 c 0,22,23
 1141 225.14893617 1141 225.14893617 1048 99.5 c 0,24,25
 944.007874016 -41 944.007874016 -41 756 -41 c 2,26,-1
 411 -41 l 2,27,28
 393 -41 393 -41 375 -51.5 c 128,-1,29
 357 -62 357 -62 357 -77.5 c 128,-1,30
 357 -93 357 -93 362 -100.5 c 128,-1,31
 367 -108 367 -108 375 -112.5 c 0,32,33
 390.111111111 -121 390.111111111 -121 411 -121 c 2,34,-1
 1114 -121 l 1,35,-1
 1114 -307 l 1,36,-1
 397 -307 l 2,37,38
 241.142857143 -307 241.142857143 -307 184 -207 c 0,39,40
 164 -172 164 -172 164 -122 c 128,-1,41
 164 -72 164 -72 183 -35.5 c 128,-1,42
 202 1 202 1 234.5 24.5 c 0,43,44
 297.425531915 70 297.425531915 70 397 70 c 2,45,-1
 647 70 l 2,46,47
 773.24 70 773.24 70 840.5 184 c 0,48,49
 896 278.06779661 896 278.06779661 896 387.033898305 c 128,-1,50
 896 496 896 496 873.5 563 c 128,-1,51
 851 630 851 630 807.5 679 c 0,52,53
 716.06122449 782 716.06122449 782 552 782 c 0,54,55
 414.983333333 782 414.983333333 782 325.5 691 c 0,56,57
 296 661 296 661 277 622 c 1,0,1
494.5 347.5 m 0,58,59
 501 373 501 373 501 398.5 c 128,-1,60
 501 424 501 424 494 451 c 128,-1,61
 487 478 487 478 472.5 499.5 c 0,62,63
 439.11627907 549 439.11627907 549 384 549 c 0,64,65
 332.12195122 549 332.12195122 549 301.5 502.5 c 0,66,67
 275 462.259259259 275 462.259259259 275 421.12962963 c 128,-1,68
 275 380 275 380 282.5 353 c 128,-1,69
 290 326 290 326 304.5 303.5 c 0,70,71
 337.044444444 253 337.044444444 253 392 253 c 0,72,73
 470.411764706 253 470.411764706 253 494.5 347.5 c 0,58,59
EndSplineSet
EndChar

StartChar: ml_uu
Encoding: 191 3338 106
Width: 2375
GlyphClass: 2
Flags: MW
LayerCount: 2
Fore
SplineSet
1758 768 m 1,0,1
 1822.05882353 889 1822.05882353 889 2008 889 c 0,2,3
 2176.31034483 889 2176.31034483 889 2280 743.5 c 0,4,5
 2374 611.596774194 2374 611.596774194 2374 439 c 0,6,7
 2374 230.258064516 2374 230.258064516 2244 105.5 c 0,8,9
 2115.31092437 -18 2115.31092437 -18 1907 -18 c 0,10,11
 1757.13513514 -18 1757.13513514 -18 1654 54 c 0,12,13
 1535.6990267 136.587471924 1535.6990267 136.587471924 1532 279 c 1,14,-1
 1617 279 l 1,15,16
 1626.4976881 199.219419924 1626.4976881 199.219419924 1695 149.5 c 0,17,18
 1757.68888889 104 1757.68888889 104 1836.84444444 104 c 128,-1,19
 1916 104 1916 104 1973.5 132 c 128,-1,20
 2031 160 2031 160 2069 208 c 0,21,22
 2146 305.263157895 2146 305.263157895 2146 453 c 0,23,24
 2146 558.456521739 2146 558.456521739 2112.5 624.72826087 c 128,-1,25
 2079 691 2079 691 2042 721.5 c 128,-1,26
 2005 752 2005 752 1955 752 c 128,-1,27
 1905 752 1905 752 1873 727.5 c 128,-1,28
 1841 703 1841 703 1841 653 c 2,29,-1
 1841 355 l 1,30,-1
 1641 355 l 1,31,-1
 1641 598 l 2,32,33
 1641 672 1641 672 1606 707 c 128,-1,34
 1571 742 1571 742 1510 742 c 128,-1,35
 1449 742 1449 742 1415.5 718.5 c 128,-1,36
 1382 695 1382 695 1360 658.5 c 0,37,38
 1318 588.818181818 1318 588.818181818 1318 507.409090909 c 128,-1,39
 1318 426 1318 426 1345 363 c 1,40,-1
 1244 363 l 1,41,42
 1224 426.636363636 1224 426.636363636 1224 501.318181818 c 128,-1,43
 1224 576 1224 576 1243.5 645.5 c 128,-1,44
 1263 715 1263 715 1302 769.5 c 0,45,46
 1389.66055046 892 1389.66055046 892 1544.21833493 892 c 128,-1,47
 1698.7761194 892 1698.7761194 892 1758 768 c 1,0,1
278 622 m 1,48,49
 352.296296296 681 352.296296296 681 425.648148148 681 c 128,-1,50
 499 681 499 681 548.5 656.5 c 128,-1,51
 598 632 598 632 633 591.5 c 0,52,53
 707 505.871428571 707 505.871428571 707 387 c 0,54,55
 707 265.342857143 707 265.342857143 634 184 c 0,56,57
 557.717948718 99 557.717948718 99 438 99 c 0,58,59
 300.835051546 99 300.835051546 99 215.5 206.5 c 0,60,61
 138 304.12987013 138 304.12987013 138 428.564935065 c 128,-1,62
 138 553 138 553 174 640 c 128,-1,63
 210 727 210 727 274 788.5 c 0,64,65
 407.723577236 917 407.723577236 917 621 917 c 0,66,67
 852.674418605 917 852.674418605 917 997.5 784.5 c 0,68,69
 1148 646.808510638 1148 646.808510638 1148 419 c 0,70,71
 1148 222.854166667 1148 222.854166667 1054 98.5 c 0,72,73
 948.551181102 -41 948.551181102 -41 760 -41 c 2,74,-1
 412 -41 l 2,75,76
 394 -41 394 -41 376 -51.5 c 128,-1,77
 358 -62 358 -62 358 -77.5 c 128,-1,78
 358 -93 358 -93 363.5 -100.5 c 128,-1,79
 369 -108 369 -108 377 -112.5 c 0,80,81
 392.111111111 -121 392.111111111 -121 412 -121 c 2,82,-1
 1121 -121 l 1,83,-1
 1121 -307 l 1,84,-1
 398 -307 l 2,85,86
 243.071428571 -307 243.071428571 -307 184.5 -207 c 0,87,88
 164 -172 164 -172 164 -122 c 128,-1,89
 164 -72 164 -72 183.5 -35 c 128,-1,90
 203 2 203 2 235.5 25 c 0,91,92
 299.086956522 70 299.086956522 70 398 70 c 2,93,-1
 650 70 l 2,94,95
 776.6 70 776.6 70 845 184 c 0,96,97
 901 277.333333333 901 277.333333333 901 415 c 0,98,99
 901 581.95505618 901 581.95505618 811.5 679.5 c 0,100,101
 717.453608247 782 717.453608247 782 554 782 c 0,102,103
 415.983333333 782 415.983333333 782 326.5 691 c 0,104,105
 297 661 297 661 278 622 c 1,48,49
276 421.12962963 m 128,-1,107
 276 380 276 380 283.5 353 c 128,-1,108
 291 326 291 326 305.5 303.5 c 0,109,110
 338.044444444 253 338.044444444 253 394 253 c 0,111,112
 446.642857143 253 446.642857143 253 477.5 301 c 0,113,114
 504 342.222222222 504 342.222222222 504 383.111111111 c 0,115,116
 504 455.75862069 504 455.75862069 472.558139535 502.379310345 c 128,-1,117
 441.11627907 549 441.11627907 549 387.119115145 549 c 128,-1,118
 333.12195122 549 333.12195122 549 304.56097561 505.62962963 c 128,-1,106
 276 462.259259259 276 462.259259259 276 421.12962963 c 128,-1,107
EndSplineSet
EndChar

StartChar: ml_r
Encoding: 192 3339 107
Width: 1354
GlyphClass: 2
Flags: MW
LayerCount: 2
Fore
SplineSet
1238 525 m 1,0,1
 1164.75555556 422 1164.75555556 422 1053 422 c 0,2,3
 941.921875 422 941.921875 422 865.5 489 c 0,4,5
 785 559.575342466 785 559.575342466 785 668 c 0,6,7
 785 782.513157895 785 782.513157895 868 853.5 c 0,8,9
 946.923076923 921 946.923076923 921 1063 921 c 0,10,11
 1196.56122449 921 1196.56122449 921 1278.5 811 c 0,12,13
 1352 712.328767123 1352 712.328767123 1352 574 c 0,14,15
 1352 387.692307692 1352 387.692307692 1241 289.5 c 0,16,17
 1202 255 1202 255 1147 235 c 1,18,19
 1224 211 1224 211 1264.5 153 c 128,-1,20
 1305 95 1305 95 1305 17.5 c 128,-1,21
 1305 -60 1305 -60 1275.5 -112.5 c 128,-1,22
 1246 -165 1246 -165 1197 -200 c 128,-1,23
 1148 -235 1148 -235 1085 -254.5 c 128,-1,24
 1022 -274 1022 -274 955 -283.5 c 0,25,26
 859.789473684 -297 859.789473684 -297 754.894736842 -297 c 128,-1,27
 650 -297 650 -297 592 -292 c 128,-1,28
 534 -287 534 -287 476.5 -274.5 c 128,-1,29
 419 -262 419 -262 366 -240 c 128,-1,30
 313 -218 313 -218 272.5 -183 c 0,31,32
 184 -106.518518519 184 -106.518518519 184 16 c 0,33,34
 184 95 184 95 225 153 c 128,-1,35
 266 211 266 211 341 235 c 1,36,37
 139 299.928571429 139 299.928571429 139 574 c 0,38,39
 139 711.638888889 139 711.638888889 212 811 c 0,40,41
 292.816326531 921 292.816326531 921 427 921 c 0,42,43
 543.076923077 921 543.076923077 921 622 853.5 c 0,44,45
 705 782.513157895 705 782.513157895 705 668 c 0,46,47
 705 559.575342466 705 559.575342466 624.5 489 c 0,48,49
 548.078125 422 548.078125 422 437 422 c 0,50,51
 325.533333333 422 325.533333333 422 253 524 c 1,52,53
 275.529873265 333.747736874 275.529873265 333.747736874 523 315 c 0,54,55
 589 310 589 310 650 310 c 2,56,-1
 812 310 l 2,57,58
 985.037037037 310 985.037037037 310 1053.51851852 331.5 c 128,-1,59
 1122 353 1122 353 1156 377 c 0,60,61
 1230.66985646 429.708133971 1230.66985646 429.708133971 1238 525 c 1,0,1
1188 670 m 128,-1,63
 1188 693 1188 693 1181.5 717 c 128,-1,64
 1175 741 1175 741 1162 761 c 128,-1,65
 1149 781 1149 781 1129.5 794 c 128,-1,66
 1110 807 1110 807 1084 807 c 128,-1,67
 1058 807 1058 807 1040 794.5 c 128,-1,68
 1022 782 1022 782 1010 762.5 c 0,69,70
 987 725.125 987 725.125 987 688.0625 c 128,-1,71
 987 651 987 651 993 627.5 c 128,-1,72
 999 604 999 604 1011.5 585.5 c 0,73,74
 1040.21621622 543 1040.21621622 543 1076.60810811 543 c 128,-1,75
 1113 543 1113 543 1132 554.5 c 128,-1,76
 1151 566 1151 566 1163.5 584 c 128,-1,77
 1176 602 1176 602 1182 624.5 c 128,-1,62
 1188 647 1188 647 1188 670 c 128,-1,63
497 627.5 m 128,-1,79
 503 651 503 651 503 673.5 c 128,-1,80
 503 696 503 696 497.5 719.5 c 128,-1,81
 492 743 492 743 480.5 762.5 c 128,-1,82
 469 782 469 782 450.5 794.5 c 128,-1,83
 432 807 432 807 406 807 c 128,-1,84
 380 807 380 807 360.5 794 c 128,-1,85
 341 781 341 781 328 761 c 128,-1,86
 315 741 315 741 308.5 717 c 128,-1,87
 302 693 302 693 302 670 c 128,-1,88
 302 647 302 647 308 624.5 c 128,-1,89
 314 602 314 602 326.5 584 c 0,90,91
 354.972222222 543 354.972222222 543 391.486111111 543 c 128,-1,92
 428 543 428 543 447 555 c 128,-1,93
 466 567 466 567 478.5 585.5 c 128,-1,78
 491 604 491 604 497 627.5 c 128,-1,79
1148 41 m 0,94,95
 1148 74 1148 74 1132.5 99.5 c 128,-1,96
 1117 125 1117 125 1091 144 c 128,-1,97
 1065 163 1065 163 1032.5 176 c 128,-1,98
 1000 189 1000 189 965.5 196.5 c 0,99,100
 898.8 211 898.8 211 840 211 c 2,101,-1
 629 211 l 2,102,103
 529.4 211 529.4 211 466.7 182.5 c 128,-1,104
 404 154 404 154 373.5 121.5 c 128,-1,105
 343 89 343 89 343 49.5 c 128,-1,106
 343 10 343 10 360 -14 c 128,-1,107
 377 -38 377 -38 404 -56 c 128,-1,108
 431 -74 431 -74 465.5 -86.5 c 128,-1,109
 500 -99 500 -99 535 -106.5 c 0,110,111
 602.666666667 -121 602.666666667 -121 659 -121 c 2,112,-1
 810 -121 l 2,113,114
 980.888888889 -121 980.888888889 -121 1082.5 -59 c 0,115,116
 1148 -19.0338983051 1148 -19.0338983051 1148 41 c 0,94,95
EndSplineSet
EndChar

StartChar: ml_l
Encoding: 193 3340 108
Width: 1761
GlyphClass: 2
Flags: MW
LayerCount: 2
Fore
SplineSet
255 492 m 1,0,1
 331.974358974 571 331.974358974 571 447 571 c 0,2,3
 570.939759036 571 570.939759036 571 647.5 481.5 c 0,4,5
 721 395.577464789 721 395.577464789 721 272 c 0,6,7
 721 146.222222222 721 146.222222222 647 64 c 0,8,9
 568.7 -23 568.7 -23 446 -23 c 0,10,11
 295.827586207 -23 295.827586207 -23 210 108 c 0,12,13
 136 220.947368421 136 220.947368421 136 353.973684211 c 128,-1,14
 136 487 136 487 168.5 585 c 128,-1,15
 201 683 201 683 263 758 c 0,16,17
 398.573333333 922 398.573333333 922 620 922 c 0,18,19
 739 922 739 922 799 904 c 0,20,21
 911.666666667 870.2 911.666666667 870.2 976 793 c 1,22,23
 1077.84210526 922 1077.84210526 922 1280 922 c 0,24,25
 1501.42666667 922 1501.42666667 922 1637 758 c 0,26,27
 1764 604.370967742 1764 604.370967742 1764 379 c 0,28,29
 1764 220.947368421 1764 220.947368421 1690 108 c 0,30,31
 1604.17241379 -23 1604.17241379 -23 1454 -23 c 0,32,33
 1331.3 -23 1331.3 -23 1253 64 c 0,34,35
 1179 146.222222222 1179 146.222222222 1179 272 c 0,36,37
 1179 395.577464789 1179 395.577464789 1252.5 481.5 c 0,38,39
 1329.06024096 571 1329.06024096 571 1453 571 c 0,40,41
 1568.02564103 571 1568.02564103 571 1645 492 c 1,42,43
 1608.66535433 619.171259843 1608.66535433 619.171259843 1513 695.5 c 0,44,45
 1414.61333333 774 1414.61333333 774 1284 774 c 0,46,47
 1197.3 774 1197.3 774 1147.15 744.5 c 128,-1,48
 1097 715 1097 715 1075 683.5 c 128,-1,49
 1053 652 1053 652 1053 608 c 2,50,-1
 1053 0 l 1,51,-1
 859 0 l 1,52,-1
 859 568 l 2,53,54
 859 656.6 859 656.6 772.5 708.5 c 0,55,56
 700 752 700 752 621 752 c 128,-1,57
 542 752 542 752 486 734 c 128,-1,58
 430 716 430 716 384.5 682 c 0,59,60
 288.510223048 610.271375465 288.510223048 610.271375465 255 492 c 1,0,1
1370 298.558823529 m 128,-1,62
 1370 251 1370 251 1378.5 223 c 128,-1,63
 1387 195 1387 195 1404 172.5 c 0,64,65
 1441.4 123 1441.4 123 1503 123 c 0,66,67
 1566.35555556 123 1566.35555556 123 1609 173.5 c 0,68,69
 1648 219.684210526 1648 219.684210526 1648 269.342105263 c 0,70,71
 1648 355 1648 355 1610.36363636 401 c 128,-1,72
 1572.72727273 447 1572.72727273 447 1507.85299807 447 c 128,-1,73
 1442.9787234 447 1442.9787234 447 1406.4893617 396.558823529 c 128,-1,61
 1370 346.117647059 1370 346.117647059 1370 298.558823529 c 128,-1,62
252 305 m 128,-1,75
 252 255 252 255 262 225.5 c 128,-1,76
 272 196 272 196 291 173.5 c 0,77,78
 333.644444444 123 333.644444444 123 397 123 c 0,79,80
 458.6 123 458.6 123 496 172.5 c 0,81,82
 530 217.5 530 217.5 530 264.25 c 0,83,84
 530 346.117647059 530 346.117647059 493.510638298 396.558823529 c 128,-1,85
 457.021276596 447 457.021276596 447 392.147001934 447 c 128,-1,86
 327.272727273 447 327.272727273 447 289.636363636 401 c 128,-1,74
 252 355 252 355 252 305 c 128,-1,75
EndSplineSet
EndChar

StartChar: ml_e
Encoding: 194 3342 109
Width: 1991
GlyphClass: 2
Flags: MW
LayerCount: 2
Fore
SplineSet
789 96 m 1,0,1
 844 95 844 95 898.5 95 c 2,2,-1
 1009 95 l 1,3,-1
 1009 270 l 2,4,5
 1009 532.074074074 1009 532.074074074 1126.5 710.5 c 0,6,7
 1209.65536226 836.772957498 1209.65536226 836.772957498 1352.5 888 c 0,8,9
 1425 914 1425 914 1511.5 914 c 128,-1,10
 1598 914 1598 914 1665.5 888 c 128,-1,11
 1733 862 1733 862 1785.5 817 c 128,-1,12
 1838 772 1838 772 1877 711.5 c 128,-1,13
 1916 651 1916 651 1941 582.5 c 0,14,15
 1990 448.24 1990 448.24 1990 321.12 c 128,-1,16
 1990 194 1990 194 1968 93.5 c 128,-1,17
 1946 -7 1946 -7 1902 -98.5 c 0,18,19
 1807.13775466 -295.770351105 1807.13775466 -295.770351105 1637 -399 c 1,20,-1
 1562 -331 l 1,21,22
 1744.76955622 -168.824196597 1744.76955622 -168.824196597 1766.5 112 c 0,23,24
 1773 196 1773 196 1773 265 c 128,-1,25
 1773 334 1773 334 1767 388.5 c 128,-1,26
 1761 443 1761 443 1747.5 496 c 128,-1,27
 1734 549 1734 549 1711 597 c 128,-1,28
 1688 645 1688 645 1654 682 c 0,29,30
 1580.48648649 762 1580.48648649 762 1465 762 c 0,31,32
 1342.6 762 1342.6 762 1259 674 c 0,33,34
 1124 531.894736842 1124 531.894736842 1124 241 c 2,35,-1
 1124 95 l 1,36,-1
 1351 95 l 1,37,-1
 1351 679 l 1,38,-1
 1553 679 l 1,39,-1
 1553 -149 l 2,40,41
 1553 -248.434782609 1553 -248.434782609 1476.5 -320.5 c 0,42,43
 1402.72307692 -390 1402.72307692 -390 1318.36153846 -390 c 128,-1,44
 1234 -390 1234 -390 1180 -362 c 128,-1,45
 1126 -334 1126 -334 1088 -288 c 0,46,47
 1009 -192.368421053 1009 -192.368421053 1009 -59 c 2,48,-1
 1009 -14 l 1,49,-1
 575 -13 l 1,50,-1
 576 56 l 1,51,52
 668 123.904761905 668 123.904761905 668 232 c 0,53,54
 668 320.842105263 668 320.842105263 606.5 384.5 c 128,-1,55
 545.152542373 448 545.152542373 448 456 448 c 0,56,57
 366.5 448 366.5 448 308 383 c 0,58,59
 252 320.777777778 252 320.777777778 252 214.388888889 c 128,-1,60
 252 108 252 108 347 32 c 1,61,-1
 277 -24 l 1,62,63
 209 30 209 30 170.5 110 c 128,-1,64
 132 190 132 190 132 273.5 c 128,-1,65
 132 357 132 357 159.5 426 c 128,-1,66
 187 495 187 495 236.5 546 c 0,67,68
 343.264705882 656 343.264705882 656 504 656 c 0,69,70
 654.604395604 656 654.604395604 656 758.5 560.5 c 0,71,72
 866 461.686868687 866 461.686868687 866 328.037878788 c 128,-1,73
 866 194.388888889 866 194.388888889 789 96 c 1,0,1
1351 -116 m 2,74,-1
 1351 -13 l 1,75,-1
 1124 -14 l 1,76,-1
 1124 -39 l 2,77,78
 1124 -161.775510204 1124 -161.775510204 1191.5 -215.5 c 0,79,80
 1216 -235 1216 -235 1245.5 -235 c 128,-1,81
 1275 -235 1275 -235 1293 -224 c 128,-1,82
 1311 -213 1311 -213 1324 -196 c 0,83,84
 1351 -160.692307692 1351 -160.692307692 1351 -116 c 2,74,-1
EndSplineSet
EndChar

StartChar: ml_ee
Encoding: 195 3343 110
Width: 2017
GlyphClass: 2
Flags: MW
LayerCount: 2
Fore
SplineSet
789 96 m 1,0,1
 842 95 842 95 894 95 c 2,2,-1
 999 95 l 1,3,-1
 999 270 l 2,4,5
 999 716.563106796 999 716.563106796 1295 866 c 0,6,7
 1398 918 1398 918 1517.5 918 c 128,-1,8
 1637 918 1637 918 1722.5 895.5 c 128,-1,9
 1808 873 1808 873 1873 826 c 0,10,11
 2016 722.6 2016 722.6 2016 527 c 0,12,13
 2016 394.949152542 2016 394.949152542 1924.5 305 c 0,14,15
 1895 276 1895 276 1857 259 c 1,16,17
 1946 202 1946 202 1981 122 c 128,-1,18
 2016 42 2016 42 2016 -41.5 c 128,-1,19
 2016 -125 2016 -125 1995 -183 c 128,-1,20
 1974 -241 1974 -241 1935 -284.5 c 0,21,22
 1849.37931034 -380 1849.37931034 -380 1719 -380 c 0,23,24
 1642.85714286 -380 1642.85714286 -380 1587 -357 c 1,25,-1
 1587 -227 l 1,26,27
 1669.27118644 -265.715852443 1669.27118644 -265.715852443 1723.5 -228.5 c 0,28,29
 1789 -183.549019608 1789 -183.549019608 1789 -57 c 0,30,31
 1789 14.9722222222 1789 14.9722222222 1762.5 53.9861111111 c 0,32,33
 1713.58490566 126 1713.58490566 126 1645 126 c 2,34,-1
 1606 126 l 1,35,-1
 1606 325 l 1,36,-1
 1659 325 l 2,37,38
 1724.68965517 325 1724.68965517 325 1760.5 392 c 0,39,40
 1789 445.322580645 1789 445.322580645 1789 516.661290323 c 128,-1,41
 1789 588 1789 588 1766 634.5 c 128,-1,42
 1743 681 1743 681 1703 709.5 c 0,43,44
 1627.9122807 763 1627.9122807 763 1495 763 c 0,45,46
 1231.07758621 763 1231.07758621 763 1147.5 486 c 0,47,48
 1114 374.971428571 1114 374.971428571 1114 241 c 2,49,-1
 1114 95 l 1,50,-1
 1341 95 l 1,51,-1
 1341 679 l 1,52,-1
 1543 679 l 1,53,-1
 1543 -149 l 2,54,55
 1543 -249.928571429 1543 -249.928571429 1467 -320.5 c 0,56,57
 1392.15384615 -390 1392.15384615 -390 1308.07692308 -390 c 128,-1,58
 1224 -390 1224 -390 1169.5 -362 c 128,-1,59
 1115 -334 1115 -334 1077 -288 c 0,60,61
 999 -193.578947368 999 -193.578947368 999 -59 c 2,62,-1
 999 -14 l 1,63,-1
 575 -13 l 1,64,-1
 576 56 l 1,65,66
 618 86 618 86 643 133 c 128,-1,67
 668 180 668 180 668 229 c 128,-1,68
 668 278 668 278 652 317.5 c 128,-1,69
 636 357 636 357 607.5 386 c 0,70,71
 546.568965517 448 546.568965517 448 456 448 c 0,72,73
 364.033333333 448 364.033333333 448 307.5 384 c 0,74,75
 252 321.169811321 252 321.169811321 252 229 c 0,76,77
 252 104.282608696 252 104.282608696 347 32 c 1,78,-1
 277 -24 l 1,79,80
 208 30 208 30 170 109.5 c 128,-1,81
 132 189 132 189 132 273.5 c 128,-1,82
 132 358 132 358 159.5 427 c 128,-1,83
 187 496 187 496 236.5 547 c 0,84,85
 342.294117647 656 342.294117647 656 504 656 c 0,86,87
 655 656 655 656 759.5 561 c 0,88,89
 866 464.181818182 866 464.181818182 866 329.285353535 c 128,-1,90
 866 194.388888889 866 194.388888889 789 96 c 1,0,1
1341 -116 m 2,91,-1
 1341 -13 l 1,92,-1
 1114 -14 l 1,93,-1
 1114 -39 l 2,94,95
 1114 -165.08 1114 -165.08 1181 -216 c 0,96,97
 1206 -235 1206 -235 1235.5 -235 c 128,-1,98
 1265 -235 1265 -235 1283 -224 c 128,-1,99
 1301 -213 1301 -213 1314 -196 c 0,100,101
 1341 -160.692307692 1341 -160.692307692 1341 -116 c 2,91,-1
EndSplineSet
EndChar

StartChar: ml_ai
Encoding: 196 3344 111
Width: 3052
GlyphClass: 2
Flags: MW
LayerCount: 2
Fore
SplineSet
1848 96 m 1,0,1
 1904 95 1904 95 1958.5 95 c 2,2,-1
 2068 95 l 1,3,-1
 2068 270 l 2,4,5
 2068 532.074074074 2068 532.074074074 2185.5 710.5 c 0,6,7
 2268.65536226 836.772957498 2268.65536226 836.772957498 2411.5 888 c 0,8,9
 2484 914 2484 914 2571 914 c 128,-1,10
 2658 914 2658 914 2725.5 888 c 128,-1,11
 2793 862 2793 862 2845.5 817 c 128,-1,12
 2898 772 2898 772 2937 711.5 c 128,-1,13
 2976 651 2976 651 3001 582.5 c 0,14,15
 3050 448.24 3050 448.24 3050 321.12 c 128,-1,16
 3050 194 3050 194 3028 93.5 c 128,-1,17
 3006 -7 3006 -7 2962 -98.5 c 0,18,19
 2867.13775466 -295.770351105 2867.13775466 -295.770351105 2697 -399 c 1,20,-1
 2621 -331 l 1,21,22
 2804.65522745 -170.301675978 2804.65522745 -170.301675978 2826.5 112 c 0,23,24
 2833 196 2833 196 2833 265 c 128,-1,25
 2833 334 2833 334 2827 388.5 c 128,-1,26
 2821 443 2821 443 2807.5 496 c 128,-1,27
 2794 549 2794 549 2771 597 c 128,-1,28
 2748 645 2748 645 2713.5 682 c 0,29,30
 2638.90540541 762 2638.90540541 762 2524 762 c 0,31,32
 2344.39047619 762 2344.39047619 762 2255 581.5 c 0,33,34
 2183 436.115384615 2183 436.115384615 2183 241 c 2,35,-1
 2183 95 l 1,36,-1
 2411 95 l 1,37,-1
 2411 679 l 1,38,-1
 2613 679 l 1,39,-1
 2613 -149 l 2,40,41
 2613 -248.434782609 2613 -248.434782609 2536.5 -320.5 c 0,42,43
 2462.72307692 -390 2462.72307692 -390 2377.86153846 -390 c 128,-1,44
 2293 -390 2293 -390 2239 -362 c 128,-1,45
 2185 -334 2185 -334 2147 -288 c 0,46,47
 2068 -192.368421053 2068 -192.368421053 2068 -59 c 2,48,-1
 2068 -14 l 1,49,-1
 1635 -13 l 1,50,-1
 1636 56 l 1,51,52
 1728 123.904761905 1728 123.904761905 1728 232 c 0,53,54
 1728 320.842105263 1728 320.842105263 1666.5 384.5 c 128,-1,55
 1605.15254237 448 1605.15254237 448 1515 448 c 0,56,57
 1425.5 448 1425.5 448 1367 383 c 0,58,59
 1311 320.777777778 1311 320.777777778 1311 214.788888889 c 128,-1,60
 1311 108.8 1311 108.8 1407 32 c 1,61,-1
 1337 -24 l 1,62,63
 1269 30 1269 30 1230.5 110 c 128,-1,64
 1192 190 1192 190 1192 273.5 c 128,-1,65
 1192 357 1192 357 1219.5 426 c 128,-1,66
 1247 495 1247 495 1296.5 546 c 0,67,68
 1403.26470588 656 1403.26470588 656 1564 656 c 0,69,70
 1714.6043956 656 1714.6043956 656 1818.5 560.5 c 0,71,72
 1926 461.686868687 1926 461.686868687 1926 327.32992083 c 128,-1,73
 1926 192.972972973 1926 192.972972973 1848 96 c 1,0,1
256 491 m 1,74,75
 332 569 332 569 448 569 c 0,76,77
 572.939759036 569 572.939759036 569 649.5 479.5 c 0,78,79
 723 393.577464789 723 393.577464789 723 269 c 0,80,81
 723 143.222222222 723 143.222222222 649 61 c 0,82,83
 570.7 -26 570.7 -26 447 -26 c 0,84,85
 295.827586207 -26 295.827586207 -26 210 105 c 0,86,87
 136 217.947368421 136 217.947368421 136 377 c 0,88,89
 136 602.846774194 136 602.846774194 263 757.5 c 0,90,91
 398.086092715 922 398.086092715 922 621 922 c 0,92,93
 831.631578947 922 831.631578947 922 966.5 778.5 c 0,94,95
 1097 639.648 1097 639.648 1097 426 c 0,96,97
 1097 125.722689076 1097 125.722689076 864 -27 c 1,98,-1
 786 40 l 1,99,100
 903 151.15 903 151.15 903 330 c 0,101,102
 903 489.551724138 903 489.551724138 814.5 604.5 c 0,103,104
 718.646017699 729 718.646017699 729 562 729 c 0,105,106
 394.333333333 729 394.333333333 729 300 587.5 c 0,107,108
 271 544 271 544 256 491 c 1,74,75
2411 -116 m 2,109,-1
 2411 -13 l 1,110,-1
 2183 -14 l 1,111,-1
 2183 -39 l 2,112,113
 2183 -162.46 2183 -162.46 2251 -215.5 c 0,114,115
 2276 -235 2276 -235 2305.5 -235 c 128,-1,116
 2335 -235 2335 -235 2353 -224 c 128,-1,117
 2371 -213 2371 -213 2384 -196 c 0,118,119
 2411 -160.692307692 2411 -160.692307692 2411 -116 c 2,109,-1
253 303 m 128,-1,121
 253 253 253 253 263 223.5 c 128,-1,122
 273 194 273 194 291.5 171 c 0,123,124
 332.52173913 120 332.52173913 120 398 120 c 0,125,126
 459.6 120 459.6 120 497 169.5 c 0,127,128
 531 214.5 531 214.5 531 261.75 c 0,129,130
 531 344.117647059 531 344.117647059 494.510638298 394.558823529 c 128,-1,131
 458.021276596 445 458.021276596 445 393.147001934 445 c 128,-1,132
 328.272727273 445 328.272727273 445 290.636363636 399 c 128,-1,120
 253 353 253 353 253 303 c 128,-1,121
EndSplineSet
EndChar

StartChar: ml_o
Encoding: 197 3346 112
Width: 1171
GlyphClass: 2
Flags: MW
LayerCount: 2
Fore
SplineSet
255 492 m 1,0,1
 330.05 571 330.05 571 446 571 c 0,2,3
 568.939759036 571 568.939759036 571 645.5 481.5 c 0,4,5
 718 396.746478873 718 396.746478873 718 272 c 0,6,7
 718 149.263157895 718 149.263157895 637 64 c 0,8,9
 555.3 -22 555.3 -22 432 -22 c 0,10,11
 282.043478261 -22 282.043478261 -22 202 109.5 c 0,12,13
 136 217.928571429 136 217.928571429 136 364.964285714 c 128,-1,14
 136 512 136 512 179 613.5 c 128,-1,15
 222 715 222 715 299.5 784 c 0,16,17
 455.623188406 923 455.623188406 923 720 923 c 0,18,19
 872.913043478 923 872.913043478 923 1004 856 c 0,20,21
 1096.99791811 808.467730743 1096.99791811 808.467730743 1137.5 724.5 c 0,22,23
 1158 682 1158 682 1158 641 c 128,-1,24
 1158 600 1158 600 1147 572 c 128,-1,25
 1136 544 1136 544 1118 520 c 0,26,27
 1082.46875 472.625 1082.46875 472.625 1027 446 c 1,28,29
 1125.55899533 414.206775701 1125.55899533 414.206775701 1159.5 314 c 0,30,31
 1170 283 1170 283 1170 237 c 128,-1,32
 1170 191 1170 191 1150.5 142 c 128,-1,33
 1131 93 1131 93 1096 57 c 0,34,35
 1022.11111111 -19 1022.11111111 -19 904 -19 c 0,36,37
 830.181818182 -19 830.181818182 -19 772 1 c 1,38,-1
 725 178 l 1,39,40
 773.80952381 96 773.80952381 96 855 96 c 0,41,42
 902.578947368 96 902.578947368 96 935 140 c 0,43,44
 965 180.714285714 965 180.714285714 965 230.357142857 c 0,45,46
 965 319.161290323 965 319.161290323 895 344 c 0,47,48
 854.090909091 359 854.090909091 359 786.5 359 c 2,49,-1
 747 359 l 1,50,-1
 747 518 l 1,51,-1
 784.5 518 l 1,52,-1
 817 520 l 1,53,-1
 844 524.5 l 1,54,-1
 867 533 l 1,55,56
 907 555 907 555 907 640 c 0,57,58
 907 704.684210526 907 704.684210526 815 741 c 0,59,60
 746.6 768 746.6 768 669.8 768 c 128,-1,61
 593 768 593 768 527.5 752.5 c 128,-1,62
 462 737 462 737 408 704 c 0,63,64
 293.363309353 633.944244604 293.363309353 633.944244604 255 492 c 1,0,1
252 305 m 128,-1,66
 252 255 252 255 262 225.5 c 128,-1,67
 272 196 272 196 290.5 173.5 c 0,68,69
 332.022222222 123 332.022222222 123 396 123 c 0,70,71
 458.2 123 458.2 123 494.5 172.5 c 0,72,73
 528 218.181818182 528 218.181818182 528 264.590909091 c 0,74,75
 528 348.171428571 528 348.171428571 491.20212766 397.585714286 c 128,-1,76
 454.404255319 447 454.404255319 447 390.838491296 447 c 128,-1,77
 327.272727273 447 327.272727273 447 289.636363636 401 c 128,-1,65
 252 355 252 355 252 305 c 128,-1,66
EndSplineSet
EndChar

StartChar: ml_oo
Encoding: 198 3347 113
Width: 1911
GlyphClass: 2
Flags: MW
LayerCount: 2
Fore
SplineSet
1891 610 m 128,-1,1
 1910 526 1910 526 1910 443.5 c 128,-1,2
 1910 361 1910 361 1891 278 c 128,-1,3
 1872 195 1872 195 1830 128 c 0,4,5
 1735.34328358 -23 1735.34328358 -23 1557 -23 c 0,6,7
 1424.56097561 -23 1424.56097561 -23 1336.5 64 c 0,8,9
 1248 151.43373494 1248 151.43373494 1248 283 c 2,10,-1
 1248 301 l 1,11,-1
 1250 320 l 1,12,-1
 1345 320 l 1,13,14
 1358.93673966 208.506082725 1358.93673966 208.506082725 1440.5 165.5 c 0,15,16
 1468 151 1468 151 1512.5 151 c 128,-1,17
 1557 151 1557 151 1592 181 c 128,-1,18
 1627 211 1627 211 1647.5 255.5 c 0,19,20
 1685 336.902439024 1685 336.902439024 1685 445 c 0,21,22
 1685 612.365853659 1685 612.365853659 1611.5 702 c 0,23,24
 1566.4 757 1566.4 757 1497 757 c 0,25,26
 1428.66037736 757 1428.66037736 757 1386 697.5 c 0,27,28
 1347.19317236 643.37468776 1347.19317236 643.37468776 1345 571 c 1,29,-1
 1250 571 l 1,30,31
 1248 581 1248 581 1248 590 c 2,32,-1
 1248 608 l 2,33,34
 1248 740 1248 740 1335.5 827.5 c 128,-1,35
 1423 915 1423 915 1537.5 915 c 128,-1,36
 1652 915 1652 915 1719.5 872.5 c 128,-1,37
 1787 830 1787 830 1829.5 762 c 128,-1,0
 1872 694 1872 694 1891 610 c 128,-1,1
255 492 m 1,38,39
 330.05 571 330.05 571 447 571 c 0,40,41
 570.43902439 571 570.43902439 571 647.5 482 c 0,42,43
 721 397.112676056 721 397.112676056 721 272 c 0,44,45
 721 148.675324675 721 148.675324675 639.5 64 c 0,46,47
 556.725 -22 556.725 -22 433 -22 c 0,48,49
 282.681034483 -22 282.681034483 -22 202.5 109 c 0,50,51
 136 217.647887324 136 217.647887324 136 364.823943662 c 128,-1,52
 136 512 136 512 179.5 614 c 128,-1,53
 223 716 223 716 301 784.5 c 0,54,55
 458.708029197 923 458.708029197 923 723 923 c 0,56,57
 880.659574468 923 880.659574468 923 1008 856.5 c 0,58,59
 1163 775.555555556 1163 775.555555556 1163 629 c 0,60,61
 1163 542.708333333 1163 542.708333333 1080 477 c 0,62,63
 1056 458 1056 458 1031 446 c 1,64,65
 1128.29847239 414.613396005 1128.29847239 414.613396005 1164 314 c 0,66,67
 1175 283 1175 283 1175 237 c 128,-1,68
 1175 191 1175 191 1155.5 141.5 c 128,-1,69
 1136 92 1136 92 1100.5 56.5 c 0,70,71
 1025 -19 1025 -19 908 -19 c 0,72,73
 833.181818182 -19 833.181818182 -19 775 1 c 1,74,-1
 728 178 l 1,75,76
 776.80952381 96 776.80952381 96 859 96 c 0,77,78
 906.153846154 96 906.153846154 96 938.5 139.5 c 0,79,80
 969 180.517241379 969 180.517241379 969 230.25862069 c 0,81,82
 969 319.59375 969 319.59375 898 344 c 0,83,84
 857.090909091 359 857.090909091 359 789.5 359 c 2,85,-1
 750 359 l 1,86,-1
 750 518 l 1,87,-1
 787.5 518 l 1,88,-1
 820 520 l 1,89,-1
 847.5 524.5 l 1,90,-1
 870 533 l 1,91,92
 911 555.55 911 555.55 911 640 c 0,93,94
 911 704.289473684 911 704.289473684 818 741 c 0,95,96
 749.6 768 749.6 768 672.3 768 c 128,-1,97
 595 768 595 768 529 752.5 c 128,-1,98
 463 737 463 737 409 704 c 0,99,100
 295.474114441 634.623069936 295.474114441 634.623069936 255 492 c 1,38,39
521 341 m 128,-1,102
 512 371 512 371 495 394.5 c 128,-1,103
 478 418 478 418 452.5 432.5 c 128,-1,104
 427 447 427 447 393 447 c 128,-1,105
 359 447 359 447 332.5 434 c 128,-1,106
 306 421 306 421 288 399 c 128,-1,107
 270 377 270 377 261 348 c 128,-1,108
 252 319 252 319 252 287 c 128,-1,109
 252 255 252 255 262 225.5 c 128,-1,110
 272 196 272 196 290.5 173.5 c 0,111,112
 332.022222222 123 332.022222222 123 397 123 c 0,113,114
 458.6 123 458.6 123 496 172.5 c 0,115,116
 530 217.5 530 217.5 530 264.25 c 128,-1,101
 530 311 530 311 521 341 c 128,-1,102
EndSplineSet
EndChar

StartChar: ml_au
Encoding: 199 3348 114
Width: 2354
GlyphClass: 2
Flags: MW
LayerCount: 2
Fore
SplineSet
1371 365 m 1,0,-1
 1264 365 l 1,1,2
 1245 434 1245 434 1245 506.5 c 128,-1,3
 1245 579 1245 579 1261 647.5 c 128,-1,4
 1277 716 1277 716 1312.5 770 c 0,5,6
 1391.38888889 890 1391.38888889 890 1544 890 c 0,7,8
 1700.125 890 1700.125 890 1762 758 c 1,9,10
 1809.23333333 852.466666667 1809.23333333 852.466666667 1922 879 c 0,11,12
 1956 887 1956 887 1991 887 c 0,13,14
 2164.52380952 887 2164.52380952 887 2263 746 c 0,15,16
 2349 622.863636364 2349 622.863636364 2349 441 c 0,17,18
 2349 238.45 2349 238.45 2223 113.5 c 0,19,20
 2097.45378151 -11 2097.45378151 -11 1895 -11 c 0,21,22
 1749.82191781 -11 1749.82191781 -11 1651.5 61.5 c 0,23,24
 1541.80027855 142.389693593 1541.80027855 142.389693593 1538 283 c 1,25,-1
 1629 283 l 1,26,27
 1644.38059701 159.955223881 1644.38059701 159.955223881 1758 121 c 0,28,29
 1793 109 1793 109 1849 109 c 128,-1,30
 1905 109 1905 109 1959.5 138 c 128,-1,31
 2014 167 2014 167 2050 215 c 0,32,33
 2122 311 2122 311 2122 455 c 0,34,35
 2122 559.704545455 2122 559.704545455 2090.5 624.852272727 c 128,-1,36
 2059 690 2059 690 2024 721 c 128,-1,37
 1989 752 1989 752 1940.5 752 c 128,-1,38
 1892 752 1892 752 1862 726.5 c 128,-1,39
 1832 701 1832 701 1832 653 c 2,40,-1
 1832 358 l 1,41,-1
 1641 358 l 1,42,-1
 1641 599 l 2,43,44
 1641 742 1641 742 1505 742 c 0,45,46
 1421.83561644 742 1421.83561644 742 1378.5 656.5 c 0,47,48
 1345 590.405405405 1345 590.405405405 1345 507.416988417 c 128,-1,49
 1345 424.428571429 1345 424.428571429 1371 365 c 1,0,-1
255 492 m 1,50,51
 330.05 571 330.05 571 447 571 c 0,52,53
 571.43902439 571 571.43902439 571 648.5 482 c 0,54,55
 722 397.112676056 722 397.112676056 722 272 c 0,56,57
 722 149.714285714 722 149.714285714 639.5 64 c 0,58,59
 556.725 -22 556.725 -22 434 -22 c 0,60,61
 282.051724138 -22 282.051724138 -22 203 109 c 0,62,63
 136 220.028571429 136 220.028571429 136 366.514285714 c 128,-1,64
 136 513 136 513 179.5 614.5 c 128,-1,65
 223 716 223 716 301 784.5 c 0,66,67
 458.708029197 923 458.708029197 923 723 923 c 0,68,69
 881.659574468 923 881.659574468 923 1009 856.5 c 0,70,71
 1164 775.555555556 1164 775.555555556 1164 629 c 0,72,73
 1164 541.916666667 1164 541.916666667 1082 477 c 0,74,75
 1058 458 1058 458 1032 446 c 1,76,77
 1094.32978723 425.893617021 1094.32978723 425.893617021 1135.5 371 c 0,78,79
 1176 317 1176 317 1176 254 c 128,-1,80
 1176 191 1176 191 1156.5 141.5 c 128,-1,81
 1137 92 1137 92 1101.5 56.5 c 0,82,83
 1026 -19 1026 -19 909 -19 c 0,84,85
 834.181818182 -19 834.181818182 -19 776 1 c 1,86,-1
 729 178 l 1,87,88
 777.80952381 96 777.80952381 96 860 96 c 0,89,90
 907.153846154 96 907.153846154 96 939.5 139.5 c 0,91,92
 970 180.517241379 970 180.517241379 970 230.25862069 c 0,93,94
 970 319.59375 970 319.59375 899 344 c 0,95,96
 858.090909091 359 858.090909091 359 790.5 359 c 2,97,-1
 751 359 l 1,98,-1
 751 518 l 1,99,-1
 788.5 518 l 1,100,-1
 821 520 l 1,101,-1
 848 524.5 l 1,102,-1
 871 533 l 1,103,104
 912 555.55 912 555.55 912 640 c 0,105,106
 912 704.289473684 912 704.289473684 819 741 c 0,107,108
 750.6 768 750.6 768 673.3 768 c 128,-1,109
 596 768 596 768 530 752.5 c 128,-1,110
 464 737 464 737 410 704 c 0,111,112
 295.264305177 633.883742053 295.264305177 633.883742053 255 492 c 1,50,51
252 305 m 128,-1,114
 252 255 252 255 262 225.5 c 128,-1,115
 272 196 272 196 291 173.5 c 0,116,117
 333.644444444 123 333.644444444 123 398 123 c 0,118,119
 459.6 123 459.6 123 497 172.5 c 0,120,121
 531 217.5 531 217.5 531 264.25 c 0,122,123
 531 346.117647059 531 346.117647059 494.510638298 396.558823529 c 128,-1,124
 458.021276596 447 458.021276596 447 392.647001934 447 c 128,-1,125
 327.272727273 447 327.272727273 447 289.636363636 401 c 128,-1,113
 252 355 252 355 252 305 c 128,-1,114
EndSplineSet
EndChar

StartChar: k1
Encoding: 200 3349 115
Width: 1594
GlyphClass: 2
Flags: MW
LayerCount: 2
Fore
SplineSet
618 104 m 1,0,1
 544.631578947 -19 544.631578947 -19 414 -19 c 0,2,3
 290.4 -19 290.4 -19 209 74.5 c 0,4,5
 132 162.945945946 132 162.945945946 132 290 c 0,6,7
 132 498.147058824 132 498.147058824 335 528 c 0,8,9
 396.2 537 396.2 537 456.1 537 c 128,-1,10
 516 537 516 537 552 536 c 1,11,12
 554.239924433 681.595088161 554.239924433 681.595088161 628.5 791.5 c 0,13,14
 713.297297297 917 713.297297297 917 852 917 c 0,15,16
 996.485981308 917 996.485981308 917 1097 797.5 c 0,17,18
 1190.88906573 685.876332962 1190.88906573 685.876332962 1193 536 c 1,19,-1
 1303 536 l 2,20,21
 1438 536 1438 536 1515 468 c 128,-1,22
 1592 400 1592 400 1592 261 c 0,23,24
 1592 62.5841584158 1592 62.5841584158 1436.5 1 c 0,25,26
 1386 -19 1386 -19 1339.5 -19 c 0,27,28
 1269.35714286 -19 1269.35714286 -19 1214 12 c 1,29,-1
 1196 134 l 1,30,31
 1234.25 107 1234.25 107 1268.625 107 c 128,-1,32
 1303 107 1303 107 1325.5 123.5 c 128,-1,33
 1348 140 1348 140 1361 165.5 c 0,34,35
 1383 208.653846154 1383 208.653846154 1383 260.826923077 c 128,-1,36
 1383 313 1383 313 1371 342 c 128,-1,37
 1359 371 1359 371 1338.5 394 c 0,38,39
 1293.04347826 445 1293.04347826 445 1232 445 c 2,40,-1
 1204 445 l 1,41,42
 1200.47478837 261.688995215 1200.47478837 261.688995215 1125 134.5 c 0,43,44
 1033.91208791 -19 1033.91208791 -19 861 -19 c 0,45,46
 781 -19 781 -19 722 8.5 c 128,-1,47
 663 36 663 36 618 104 c 1,0,1
974 536 m 1,48,49
 974 679.035087719 974 679.035087719 896.5 737.5 c 0,50,51
 868 759 868 759 824.5 759 c 128,-1,52
 781 759 781 759 747.5 739 c 128,-1,53
 714 719 714 719 691.5 687 c 0,54,55
 646.220579539 622.602602011 646.220579539 622.602602011 644 536 c 1,56,-1
 974 536 l 1,48,49
821 126 m 0,57,58
 975 126 975 126 975 399.5 c 2,59,-1
 975 445 l 1,60,-1
 640 445 l 1,61,62
 638 437 638 437 638 429 c 2,63,-1
 638 413 l 2,64,65
 638 309.441860465 638 309.441860465 669 246.720930233 c 128,-1,66
 700 184 700 184 735 155 c 128,-1,67
 770 126 770 126 821 126 c 0,57,58
551 292 m 2,68,-1
 551 445 l 1,69,-1
 510 445 l 2,70,71
 448.384615385 445 448.384615385 445 400.5 403.5 c 0,72,73
 350 359.733333333 350 359.733333333 350 301 c 0,74,75
 350 212 350 212 407 170 c 0,76,77
 426 156 426 156 452.5 156 c 128,-1,78
 479 156 479 156 497.5 169 c 128,-1,79
 516 182 516 182 528 202 c 0,80,81
 551 240.333333333 551 240.333333333 551 292 c 2,68,-1
EndSplineSet
EndChar

StartChar: k2
Encoding: 201 3350 116
Width: 1513
GlyphClass: 2
Flags: MW
LayerCount: 2
Fore
SplineSet
972 99 m 1,0,-1
 1283 99 l 1,1,-1
 1283 895 l 1,2,-1
 1512 895 l 1,3,-1
 1512 -8 l 1,4,-1
 741 -8 l 1,5,-1
 740 70 l 1,6,7
 842.816931217 136.692063492 842.816931217 136.692063492 870 284.5 c 0,8,9
 878 328 878 328 878 385 c 128,-1,10
 878 442 878 442 857 506 c 128,-1,11
 836 570 836 570 795.5 618.5 c 0,12,13
 708.237113402 723 708.237113402 723 560 723 c 0,14,15
 452 723 452 723 368 660 c 0,16,17
 285.27607362 597.957055215 285.27607362 597.957055215 255 493 c 1,18,19
 333 571 333 571 446 571 c 0,20,21
 569.939759036 571 569.939759036 571 646.5 481.5 c 0,22,23
 720 395.577464789 720 395.577464789 720 272 c 0,24,25
 720 146.222222222 720 146.222222222 646 64 c 0,26,27
 567.7 -23 567.7 -23 445 -23 c 0,28,29
 295.827586207 -23 295.827586207 -23 210 108 c 0,30,31
 136 220.947368421 136 220.947368421 136 354.973684211 c 128,-1,32
 136 489 136 489 167.5 588 c 128,-1,33
 199 687 199 687 260.5 761.5 c 0,34,35
 394.644295302 924 394.644295302 924 621 924 c 0,36,37
 827.569230769 924 827.569230769 924 965.5 785 c 0,38,39
 1104 645.426356589 1104 645.426356589 1104 445.546511628 c 128,-1,40
 1104 245.666666667 1104 245.666666667 972 99 c 1,0,-1
252 305 m 128,-1,42
 252 255 252 255 262 225.5 c 128,-1,43
 272 196 272 196 290.5 173.5 c 0,44,45
 332.022222222 123 332.022222222 123 397 123 c 0,46,47
 458.6 123 458.6 123 496 172.5 c 0,48,49
 530 217.5 530 217.5 530 264.25 c 0,50,51
 530 346.117647059 530 346.117647059 493.510638298 396.558823529 c 128,-1,52
 457.021276596 447 457.021276596 447 392.147001934 447 c 128,-1,53
 327.272727273 447 327.272727273 447 289.636363636 401 c 128,-1,41
 252 355 252 355 252 305 c 128,-1,42
EndSplineSet
EndChar

StartChar: k3
Encoding: 202 3351 117
Width: 1390
GlyphClass: 2
Flags: MW
LayerCount: 2
Fore
SplineSet
652 419 m 1,0,-1
 651 527 l 1,1,2
 651 697.615384615 651 697.615384615 744.5 805.5 c 0,3,4
 841.133333333 917 841.133333333 917 1012 917 c 0,5,6
 1188.33333333 917 1188.33333333 917 1295 777 c 0,7,8
 1392 649.6875 1392 649.6875 1392 467 c 0,9,10
 1392 210.10619469 1392 210.10619469 1223.5 59.5 c 0,11,12
 1167 9 1167 9 1091 -24 c 1,13,-1
 1033 51 l 1,14,15
 1261 165 1261 165 1261 427 c 0,16,17
 1261 626.43902439 1261 626.43902439 1148 710.5 c 0,18,19
 1107 741 1107 741 1047.5 741 c 128,-1,20
 988 741 988 741 953.5 712 c 128,-1,21
 919 683 919 683 901.5 639.5 c 0,22,23
 875 573.628571429 875 573.628571429 875 447 c 1,24,-1
 878 314 l 1,25,26
 878 169.677419355 878 169.677419355 777.5 73.5 c 0,27,28
 679.797752809 -20 679.797752809 -20 533 -20 c 0,29,30
 347.977272727 -20 347.977272727 -20 235.5 127 c 0,31,32
 133 260.96039604 133 260.96039604 133 430.48019802 c 0,33,34
 133 769.704545455 133 769.704545455 394 918 c 1,35,-1
 447 827 l 1,36,37
 263 715.833333333 263 715.833333333 263 495 c 0,38,39
 263 372.315789474 263 372.315789474 318.5 273 c 0,40,41
 385 154 385 154 499 154 c 0,42,43
 592.078431373 154 592.078431373 154 626 240.5 c 0,44,45
 652 306.8 652 306.8 652 419 c 1,0,-1
EndSplineSet
EndChar

StartChar: k4
Encoding: 203 3352 118
Width: 2166
GlyphClass: 2
Flags: MW
LayerCount: 2
Fore
SplineSet
703 405 m 1,0,-1
 889 406 l 1,1,-1
 889 459 l 2,2,3
 889 658.141509434 889 658.141509434 997 785.5 c 0,4,5
 1111.904 921 1111.904 921 1308 921 c 0,6,7
 1506.99212598 921 1506.99212598 921 1631.5 783.5 c 0,8,9
 1751 651.530434783 1751 651.530434783 1751 449 c 2,10,-1
 1751 300 l 1,11,-1
 1111 300 l 1,12,-1
 1111 109 l 1,13,-1
 1937 109 l 1,14,-1
 1937 897 l 1,15,-1
 2163 897 l 1,16,-1
 2163 0 l 1,17,-1
 889 0 l 1,18,-1
 889 294 l 1,19,-1
 514 292 l 1,20,-1
 514 354 l 1,21,22
 582 400.526315789 582 400.526315789 582 500 c 0,23,24
 582 620.333333333 582 620.333333333 481.5 665 c 0,25,26
 450 679 450 679 411.5 679 c 128,-1,27
 373 679 373 679 342.5 664.5 c 128,-1,28
 312 650 312 650 291 625 c 0,29,30
 248 573.80952381 248 573.80952381 248 498 c 0,31,32
 248 386.142857143 248 386.142857143 321 334 c 1,33,-1
 260 282 l 1,34,35
 135 382.806451613 135 382.806451613 135 546 c 0,36,37
 135 690.857142857 135 690.857142857 222 782 c 0,38,39
 312.681818182 877 312.681818182 877 454 877 c 0,40,41
 586.278481013 877 586.278481013 877 674 794.5 c 0,42,43
 764 709.857142857 764 709.857142857 764 586.134453782 c 128,-1,44
 764 462.411764706 764 462.411764706 703 405 c 1,0,-1
1631 406 m 1,45,-1
 1631 484 l 2,46,47
 1631 605.657142857 1631 605.657142857 1558 687 c 0,48,49
 1482.61538462 771 1482.61538462 771 1362 771 c 0,50,51
 1251.85294118 771 1251.85294118 771 1181 698 c 0,52,53
 1111 625.878787879 1111 625.878787879 1111 515 c 2,54,-1
 1111 406 l 1,55,-1
 1631 406 l 1,45,-1
EndSplineSet
EndChar

StartChar: ng
Encoding: 204 3353 119
Width: 1618
GlyphClass: 2
Flags: MW
LayerCount: 2
Fore
SplineSet
940 793 m 1,0,1
 1011.875 918 1011.875 918 1243 918 c 0,2,3
 1380 918 1380 918 1482.5 856.5 c 0,4,5
 1603 784.2 1603 784.2 1603 654 c 0,6,7
 1603 592 1603 592 1568 544.5 c 128,-1,8
 1533 497 1533 497 1477 475 c 1,9,10
 1543 449 1543 449 1580.5 391 c 128,-1,11
 1618 333 1618 333 1618 263 c 128,-1,12
 1618 193 1618 193 1591.5 140 c 128,-1,13
 1565 87 1565 87 1520 50 c 0,14,15
 1428.78378378 -25 1428.78378378 -25 1293 -25 c 0,16,17
 1197.66666667 -25 1197.66666667 -25 1131 0 c 1,18,-1
 1116 111 l 1,19,20
 1182.92307692 82 1182.92307692 82 1225.96153846 82 c 128,-1,21
 1269 82 1269 82 1295.5 95.5 c 128,-1,22
 1322 109 1322 109 1341.5 131.5 c 0,23,24
 1383 179.384615385 1383 179.384615385 1383 228.192307692 c 128,-1,25
 1383 277 1383 277 1369.5 300.5 c 128,-1,26
 1356 324 1356 324 1334 337.5 c 0,27,28
 1290.81481481 364 1290.81481481 364 1187.5 364 c 2,29,-1
 1149 364 l 1,30,-1
 1149 530 l 1,31,32
 1227 533 1227 533 1250.5 533 c 128,-1,33
 1274 533 1274 533 1294.5 543 c 128,-1,34
 1315 553 1315 553 1330.5 569.5 c 0,35,36
 1364 605.161290323 1364 605.161290323 1364 643.580645161 c 128,-1,37
 1364 682 1364 682 1350.5 706.5 c 128,-1,38
 1337 731 1337 731 1314.5 748 c 0,39,40
 1242.72243346 802.231939163 1242.72243346 802.231939163 1134.5 774 c 0,41,42
 1062.272103 755.157939914 1062.272103 755.157939914 1031 697.5 c 0,43,44
 1015 668 1015 668 1015 628 c 2,45,-1
 1015 -1 l 1,46,-1
 810 -1 l 1,47,-1
 810 578 l 2,48,49
 810 670.909090909 810 670.909090909 736 718 c 0,50,51
 674.714285714 757 674.714285714 757 594.357142857 757 c 128,-1,52
 514 757 514 757 462 737 c 128,-1,53
 410 717 410 717 369 681.5 c 0,54,55
 286.026568683 609.657150933 286.026568683 609.657150933 253 492 c 1,56,57
 329.974358974 571 329.974358974 571 445 571 c 0,58,59
 569.518072289 571 569.518072289 571 645 481.5 c 0,60,61
 718 394.942857143 718 394.942857143 718 272 c 0,62,63
 718 148.675324675 718 148.675324675 636.5 64 c 0,64,65
 553.725 -22 553.725 -22 431 -22 c 0,66,67
 232.719101124 -22 232.719101124 -22 162.5 193.5 c 0,68,69
 134 280.965517241 134 280.965517241 134 385.982758621 c 128,-1,70
 134 491 134 491 169.5 589 c 128,-1,71
 205 687 205 687 271 760 c 0,72,73
 413.849315068 918 413.849315068 918 633.521879756 918 c 128,-1,74
 853.194444444 918 853.194444444 918 940 793 c 1,0,1
250 305 m 128,-1,76
 250 255 250 255 260 225.5 c 128,-1,77
 270 196 270 196 288.5 173.5 c 0,78,79
 330.022222222 123 330.022222222 123 395 123 c 0,80,81
 456.6 123 456.6 123 494 172.5 c 0,82,83
 528 217.5 528 217.5 528 264.25 c 0,84,85
 528 346.117647059 528 346.117647059 491.510638298 396.558823529 c 128,-1,86
 455.021276596 447 455.021276596 447 390.147001934 447 c 128,-1,87
 325.272727273 447 325.272727273 447 287.636363636 401 c 128,-1,75
 250 355 250 355 250 305 c 128,-1,76
EndSplineSet
EndChar

StartChar: ch1
Encoding: 205 3354 120
Width: 1415
GlyphClass: 2
Flags: MW
LayerCount: 2
Fore
SplineSet
328 240 m 1,0,1
 300 297.866666667 300 297.866666667 300 366.933333333 c 128,-1,2
 300 436 300 436 323 487.5 c 128,-1,3
 346 539 346 539 386.5 575 c 0,4,5
 470.875 650 470.875 650 598 650 c 0,6,7
 733.024691358 650 733.024691358 650 829 565.5 c 0,8,9
 929 477.456521739 929 477.456521739 929 343 c 0,10,11
 929 231.365853659 929 231.365853659 869.5 153 c 0,12,13
 849 126 849 126 821 108 c 1,14,-1
 1184 108 l 1,15,-1
 1184 895 l 1,16,-1
 1411 895 l 1,17,-1
 1411 0 l 1,18,-1
 92 0 l 1,19,-1
 92 108 l 1,20,-1
 518 108 l 2,21,22
 597.603174603 108 597.603174603 108 643 179.5 c 0,23,24
 683 242.5 683 242.5 683 326 c 0,25,26
 683 425.130434783 683 425.130434783 616 463 c 0,27,28
 593 476 593 476 562 476 c 128,-1,29
 531 476 531 476 505 464.5 c 128,-1,30
 479 453 479 453 460 433 c 0,31,32
 420 390.894736842 420 390.894736842 420 337.447368421 c 128,-1,33
 420 284 420 284 447 240 c 1,34,-1
 328 240 l 1,0,1
EndSplineSet
EndChar

StartChar: ch2
Encoding: 206 3355 121
Width: 1910
GlyphClass: 2
Flags: MW
LayerCount: 2
Fore
SplineSet
1074 108 m 1,0,1
 990 235.75 990 235.75 990 434 c 0,2,3
 990 645 990 645 1100 777 c 0,4,5
 1218.33333333 919 1218.33333333 919 1425 919 c 0,6,7
 1631.89473684 919 1631.89473684 919 1770 775.5 c 0,8,9
 1906 634.1875 1906 634.1875 1906 426 c 0,10,11
 1906 257.019607843 1906 257.019607843 1833.5 130.5 c 0,12,13
 1747.25842697 -20 1747.25842697 -20 1587 -20 c 0,14,15
 1447.21100917 -20 1447.21100917 -20 1364.5 103.5 c 0,16,17
 1291 213.246575342 1291 213.246575342 1291 357 c 0,18,19
 1291 529.868421053 1291 529.868421053 1410 652 c 0,20,21
 1448 691 1448 691 1496 720 c 1,22,23
 1441 745 1441 745 1378 745 c 128,-1,24
 1315 745 1315 745 1265 709.5 c 128,-1,25
 1215 674 1215 674 1183.5 619.5 c 0,26,27
 1122 513.095238095 1122 513.095238095 1122 377 c 0,28,29
 1122 176.191176471 1122 176.191176471 1245 55 c 1,30,-1
 1245 0 l 1,31,-1
 82 0 l 1,32,-1
 82 108 l 1,33,-1
 469 108 l 2,34,35
 547.968253968 108 547.968253968 108 594.5 179.5 c 0,36,37
 635 241.731707317 635 241.731707317 635 326 c 0,38,39
 635 424.565217391 635 424.565217391 567 463 c 0,40,41
 544 476 544 476 513 476 c 128,-1,42
 482 476 482 476 456 464.5 c 128,-1,43
 430 453 430 453 411.5 433 c 0,44,45
 371 389.216216216 371 389.216216216 371 336.608108108 c 128,-1,46
 371 284 371 284 398 240 c 1,47,-1
 279 240 l 1,48,49
 250 299.933333333 250 299.933333333 250 367.966666667 c 128,-1,50
 250 436 250 436 273.5 487.5 c 128,-1,51
 297 539 297 539 337.5 575 c 0,52,53
 421.875 650 421.875 650 549 650 c 0,54,55
 685.567901235 650 685.567901235 650 780.5 565.5 c 0,56,57
 881 476.043956044 881 476.043956044 881 343 c 0,58,59
 881 231.365853659 881 231.365853659 821.5 153 c 0,60,61
 801 126 801 126 773 108 c 1,62,-1
 1074 108 l 1,0,1
1603 629 m 1,63,64
 1467.3195396 591.471362017 1467.3195396 591.471362017 1430.5 457 c 0,65,66
 1419 415 1419 415 1419 375.5 c 128,-1,67
 1419 336 1419 336 1427 302.5 c 128,-1,68
 1435 269 1435 269 1452 242 c 128,-1,69
 1469 215 1469 215 1496 198 c 128,-1,70
 1523 181 1523 181 1561 181 c 128,-1,71
 1599 181 1599 181 1621.5 204 c 128,-1,72
 1644 227 1644 227 1656 260 c 0,73,74
 1676 315 1676 315 1676 421.689189189 c 128,-1,75
 1676 528.378378378 1676 528.378378378 1603 629 c 1,63,64
EndSplineSet
EndChar

StartChar: ch3
Encoding: 207 3356 122
Width: 1433
GlyphClass: 2
Flags: MW
LayerCount: 2
Fore
SplineSet
820 797 m 1,0,1
 895.727272727 916 895.727272727 916 1084 916 c 0,2,3
 1221.22352941 916 1221.22352941 916 1324.5 825.5 c 0,4,5
 1431 732.175257732 1431 732.175257732 1431 596 c 0,6,7
 1431 432.368421053 1431 432.368421053 1303 365 c 0,8,9
 1206.1 314 1206.1 314 1029 314 c 2,10,-1
 571 314 l 2,11,12
 452.833333333 314 452.833333333 314 395.5 258 c 0,13,14
 374 237 374 237 374 213.5 c 128,-1,15
 374 190 374 190 381 177 c 128,-1,16
 388 164 388 164 399.5 154 c 0,17,18
 424.8 132 424.8 132 454 132 c 0,19,20
 573.5 132 573.5 132 735 189 c 0,21,22
 803 213 803 213 870.5 239.5 c 128,-1,23
 938 266 938 266 1000 283 c 0,24,25
 1113.05882353 314 1113.05882353 314 1189.52941176 314 c 128,-1,26
 1266 314 1266 314 1300.5 301 c 128,-1,27
 1335 288 1335 288 1362.5 265 c 0,28,29
 1424 213.563636364 1424 213.563636364 1424 153.781818182 c 128,-1,30
 1424 94 1424 94 1405 60.5 c 128,-1,31
 1386 27 1386 27 1355 6 c 0,32,33
 1294.47619048 -35 1294.47619048 -35 1203 -35 c 0,34,35
 1123.85714286 -35 1123.85714286 -35 1065.5 8 c 0,36,37
 1002 54.7894736842 1002 54.7894736842 1002 133 c 0,38,39
 1002 170.5 1002 170.5 1016 195 c 1,40,41
 940 166 940 166 865 128 c 128,-1,42
 790 90 790 90 713.5 56.5 c 0,43,44
 531.955223881 -23 531.955223881 -23 394 -23 c 0,45,46
 301.333333333 -23 301.333333333 -23 228.5 34 c 0,47,48
 150 95.4347826087 150 95.4347826087 150 185 c 0,49,50
 150 328.635294118 150 328.635294118 301.5 362.5 c 0,51,52
 370.842105263 378 370.842105263 378 502 378 c 2,53,-1
 974 378 l 2,54,55
 1067.9375 378 1067.9375 378 1127 448 c 0,56,57
 1182 513.185185185 1182 513.185185185 1182 611 c 0,58,59
 1182 681.846153846 1182 681.846153846 1152.5 720.423076923 c 0,60,61
 1099.29411765 790 1099.29411765 790 1031 790 c 0,62,63
 979.625 790 979.625 790 946.8125 765 c 0,64,65
 887 719.428571429 887 719.428571429 887 669 c 2,66,-1
 887 416 l 1,67,-1
 696 416 l 1,68,-1
 696 672 l 2,69,70
 696 748.666666667 696 748.666666667 615.5 786 c 0,71,72
 552.96875 815 552.96875 815 490.484375 815 c 0,73,74
 371.666666667 815 371.666666667 815 317 774 c 1,75,76
 347 779 347 779 377 779 c 128,-1,77
 407 779 407 779 445 766 c 128,-1,78
 483 753 483 753 511.5 728.5 c 0,79,80
 574 674.771929825 574 674.771929825 574 588 c 0,81,82
 574 496.193548387 574 496.193548387 507 440 c 0,83,84
 443.807692308 387 443.807692308 387 351 387 c 0,85,86
 254.553571429 387 254.553571429 387 194.5 446 c 0,87,88
 134 505.438596491 134 505.438596491 134 592.219298246 c 128,-1,89
 134 679 134 679 171 738 c 128,-1,90
 208 797 208 797 265.5 837 c 0,91,92
 381.9375 918 381.9375 918 534 918 c 0,93,94
 728.333333333 918 728.333333333 918 820 797 c 1,0,1
1275 156 m 0,95,96
 1275 176 1275 176 1266.5 192.5 c 128,-1,97
 1258 209 1258 209 1244 221 c 0,98,99
 1197.69055375 260.693811075 1197.69055375 260.693811075 1139 239.5 c 0,100,101
 1076 216.75 1076 216.75 1076 156 c 0,102,103
 1076 118.571428571 1076 118.571428571 1098.5 99.2857142857 c 0,104,105
 1153.30944625 52.3061889251 1153.30944625 52.3061889251 1212 73.5 c 0,106,107
 1275 96.25 1275 96.25 1275 156 c 0,95,96
414 605 m 128,-1,109
 414 623 414 623 407 640 c 128,-1,110
 400 657 400 657 388 670 c 128,-1,111
 376 683 376 683 359.5 690.5 c 128,-1,112
 343 698 343 698 324 698 c 128,-1,113
 305 698 305 698 289 690.5 c 128,-1,114
 273 683 273 683 261 670 c 128,-1,115
 249 657 249 657 242 640 c 128,-1,116
 235 623 235 623 235 605 c 128,-1,117
 235 587 235 587 242 570 c 128,-1,118
 249 553 249 553 261 540 c 128,-1,119
 273 527 273 527 289 519 c 128,-1,120
 305 511 305 511 324 511 c 128,-1,121
 343 511 343 511 359.5 519 c 128,-1,122
 376 527 376 527 388 540 c 128,-1,123
 400 553 400 553 407 570 c 128,-1,108
 414 587 414 587 414 605 c 128,-1,109
EndSplineSet
EndChar

StartChar: ch4
Encoding: 208 3357 123
Width: 2546
GlyphClass: 2
Flags: MW
LayerCount: 2
Fore
SplineSet
829 865 m 1,0,1
 935 918 935 918 1040 918 c 128,-1,2
 1145 918 1145 918 1212.5 894 c 128,-1,3
 1280 870 1280 870 1331 826 c 0,4,5
 1442 730.235294118 1442 730.235294118 1442 575 c 2,6,-1
 1442 274 l 2,7,8
 1442 198.666666667 1442 198.666666667 1488.5 147 c 0,9,10
 1537.1 93 1537.1 93 1599.05 93 c 128,-1,11
 1661 93 1661 93 1697 109 c 128,-1,12
 1733 125 1733 125 1755.5 154 c 0,13,14
 1799 210.066666667 1799 210.066666667 1799 308 c 2,15,-1
 1799 896 l 1,16,-1
 1999 896 l 1,17,-1
 1999 386 l 2,18,19
 1999 275.5 1999 275.5 2019 231.75 c 0,20,21
 2059.57142857 143 2059.57142857 143 2153 143 c 0,22,23
 2271.26851852 143 2271.26851852 143 2346.5 268 c 0,24,25
 2411 375.169230769 2411 375.169230769 2411 503 c 0,26,27
 2411 662.324324324 2411 662.324324324 2290 791.5 c 0,28,29
 2253 831 2253 831 2209 861 c 1,30,-1
 2284 921 l 1,31,32
 2474.52398524 812.129151292 2474.52398524 812.129151292 2526.5 599.5 c 0,33,34
 2543 532 2543 532 2543 452 c 128,-1,35
 2543 372 2543 372 2519.5 286.5 c 128,-1,36
 2496 201 2496 201 2448.5 133.5 c 0,37,38
 2342.59259259 -17 2342.59259259 -17 2152.708061 -17 c 128,-1,39
 1962.82352941 -17 1962.82352941 -17 1879 97 c 1,40,41
 1800.11188811 1.79020979021 1800.11188811 1.79020979021 1671.5 -12.5 c 0,42,43
 1631 -17 1631 -17 1576 -17 c 128,-1,44
 1521 -17 1521 -17 1458 -2.5 c 128,-1,45
 1395 12 1395 12 1346.5 44 c 0,46,47
 1240 114.268041237 1240 114.268041237 1240 258 c 2,48,-1
 1240 556 l 2,49,50
 1240 654.9375 1240 654.9375 1170 714 c 0,51,52
 1104.81481481 769 1104.81481481 769 1003 769 c 0,53,54
 975 769 975 769 951 762 c 1,55,56
 1083 619.523809524 1083 619.523809524 1083 426 c 0,57,58
 1083 260.44 1083 260.44 1010 130.5 c 0,59,60
 925.449438202 -20 925.449438202 -20 764 -20 c 0,61,62
 626.06779661 -20 626.06779661 -20 550 116 c 0,63,64
 487 228.636363636 487 228.636363636 487 352.318181818 c 0,65,66
 487 595.32 487 595.32 640 732 c 1,67,68
 602 745 602 745 547 745 c 128,-1,69
 492 745 492 745 438 710.5 c 128,-1,70
 384 676 384 676 346 622 c 0,71,72
 268 511.157894737 268 511.157894737 268 377 c 0,73,74
 268 153.333333333 268 153.333333333 422 25 c 1,75,-1
 333 -24 l 1,76,77
 136 137.181818182 136 137.181818182 136 434 c 0,78,79
 136 642.606557377 136 642.606557377 264 779 c 0,80,81
 395.384615385 919 395.384615385 919 602 919 c 0,82,83
 723 919 723 919 829 865 c 1,0,1
737 181 m 0,84,85
 853 181 853 181 853 397 c 0,86,87
 853 581.068965517 853 581.068965517 746 677 c 1,88,89
 650.994193837 610.783832068 650.994193837 610.783832068 624 477.5 c 0,90,91
 616 438 616 438 616 403 c 128,-1,92
 616 368 616 368 620.5 330.5 c 128,-1,93
 625 293 625 293 637.5 259.5 c 0,94,95
 666.791044776 181 666.791044776 181 737 181 c 0,84,85
EndSplineSet
EndChar

StartChar: nj
Encoding: 209 3358 124
Width: 2210
GlyphClass: 2
Flags: MW
LayerCount: 2
Fore
SplineSet
1534 865 m 1,0,1
 1640 918 1640 918 1756.5 918 c 128,-1,2
 1873 918 1873 918 1953.5 883.5 c 128,-1,3
 2034 849 2034 849 2091.5 788 c 0,4,5
 2211 661.226086957 2211 661.226086957 2211 464 c 0,6,7
 2211 311.530864198 2211 311.530864198 2126.5 178 c 0,8,9
 2042.48173405 45.2303945446 2042.48173405 45.2303945446 1904 -21 c 1,10,-1
 1835 59 l 1,11,12
 1992 186.095238095 1992 186.095238095 1992 429 c 0,13,14
 1992 557.304347826 1992 557.304347826 1921.5 660.5 c 0,15,16
 1843.27722772 775 1843.27722772 775 1720 775 c 0,17,18
 1689 775 1689 775 1657 771 c 1,19,20
 1788 629.923076923 1788 629.923076923 1788 426 c 0,21,22
 1788 257.019607843 1788 257.019607843 1715.5 130.5 c 0,23,24
 1629.25842697 -20 1629.25842697 -20 1469 -20 c 0,25,26
 1331.06779661 -20 1331.06779661 -20 1255 116 c 0,27,28
 1193 226.848484848 1193 226.848484848 1193 353.924242424 c 0,29,30
 1193 592.026315789 1193 592.026315789 1358 744 c 1,31,32
 1308.4 775 1308.4 775 1225.7 775 c 128,-1,33
 1143 775 1143 775 1099.5 732.5 c 128,-1,34
 1056 690 1056 690 1056 617 c 2,35,-1
 1056 0 l 1,36,-1
 855 0 l 1,37,-1
 855 527 l 2,38,39
 855 758 855 758 573 758 c 0,40,41
 455.125 758 455.125 758 368.5 681 c 0,42,43
 288.744680851 610.106382979 288.744680851 610.106382979 255 492 c 1,44,45
 330.05 571 330.05 571 447 571 c 0,46,47
 571.43902439 571 571.43902439 571 648.5 482 c 0,48,49
 722 397.112676056 722 397.112676056 722 272 c 0,50,51
 722 146.222222222 722 146.222222222 648 64 c 0,52,53
 569.7 -23 569.7 -23 446 -23 c 0,54,55
 295.827586207 -23 295.827586207 -23 210 108 c 0,56,57
 136 220.947368421 136 220.947368421 136 353.973684211 c 128,-1,58
 136 487 136 487 168.5 585.5 c 128,-1,59
 201 684 201 684 263 758.5 c 0,60,61
 399.067114094 922 399.067114094 922 621 922 c 0,62,63
 742.5 922 742.5 922 800.25 905.5 c 0,64,65
 913.018099548 873.280542986 913.018099548 873.280542986 972 800 c 1,66,67
 1057.71428571 920 1057.71428571 920 1280 920 c 0,68,69
 1429.5 920 1429.5 920 1534 865 c 1,0,1
1555 330.5 m 128,-1,71
 1559 368 1559 368 1559 421.5 c 128,-1,72
 1559 475 1559 475 1530 549.5 c 128,-1,73
 1501 624 1501 624 1442 677 c 1,74,75
 1321 592.666666667 1321 592.666666667 1321 398 c 0,76,77
 1321 260.541666667 1321 260.541666667 1380 204 c 0,78,79
 1404 181 1404 181 1442.5 181 c 128,-1,80
 1481 181 1481 181 1504 204 c 128,-1,81
 1527 227 1527 227 1539 260 c 128,-1,70
 1551 293 1551 293 1555 330.5 c 128,-1,71
252 305 m 128,-1,83
 252 255 252 255 262 225.5 c 128,-1,84
 272 196 272 196 290.5 173.5 c 0,85,86
 332.022222222 123 332.022222222 123 397 123 c 0,87,88
 459.6 123 459.6 123 497 172.5 c 0,89,90
 531 217.5 531 217.5 531 264.25 c 0,91,92
 531 346.117647059 531 346.117647059 494.510638298 396.558823529 c 128,-1,93
 458.021276596 447 458.021276596 447 392.647001934 447 c 128,-1,94
 327.272727273 447 327.272727273 447 289.636363636 401 c 128,-1,82
 252 355 252 355 252 305 c 128,-1,83
EndSplineSet
EndChar

StartChar: t1
Encoding: 210 3359 125
Width: 957
GlyphClass: 2
Flags: MW
LayerCount: 2
Fore
SplineSet
203 198 m 1,0,1
 300.428571429 88 300.428571429 88 528 88 c 0,2,3
 674.833333333 88 674.833333333 88 729.5 168 c 0,4,5
 750 198 750 198 750 235.5 c 128,-1,6
 750 273 750 273 735 292 c 128,-1,7
 720 311 720 311 697.5 322 c 0,8,9
 656.590909091 342 656.590909091 342 598 342 c 2,10,-1
 438 342 l 2,11,12
 229.56122449 342 229.56122449 342 160.5 486 c 0,13,14
 137 535 137 535 137 612 c 128,-1,15
 137 689 137 689 173 750 c 128,-1,16
 209 811 209 811 267.5 850 c 0,17,18
 380 925 380 925 548 925 c 0,19,20
 684.454545455 925 684.454545455 925 756.727272727 902.5 c 0,21,22
 888.534246575 861.465753425 888.534246575 861.465753425 972 778 c 1,23,-1
 906 692 l 1,24,25
 804.621621622 813 804.621621622 813 589 813 c 0,26,27
 430.545454545 813 430.545454545 813 368.5 722 c 0,28,29
 346 689 346 689 346 653 c 128,-1,30
 346 617 346 617 356 599.5 c 128,-1,31
 366 582 366 582 382 570.5 c 0,32,33
 414.695652174 547 414.695652174 547 460 547 c 2,34,-1
 662 547 l 2,35,36
 867.851485149 547 867.851485149 547 931.5 397.5 c 0,37,38
 953 347 953 347 953 270.5 c 128,-1,39
 953 194 953 194 918 136.5 c 128,-1,40
 883 79 883 79 827 43.5 c 0,41,42
 723.676056338 -22 723.676056338 -22 555 -22 c 0,43,44
 284.090909091 -22 284.090909091 -22 145 131 c 1,45,-1
 203 198 l 1,0,1
EndSplineSet
EndChar

StartChar: t2
Encoding: 211 3360 126
Width: 1033
GlyphClass: 2
Flags: MW
LayerCount: 2
Fore
SplineSet
1029 448 m 0,0,1
 1029 348 1029 348 997.5 263 c 128,-1,2
 966 178 966 178 908 115.5 c 0,3,4
 785.04 -17 785.04 -17 583 -17 c 0,5,6
 384.991935484 -17 384.991935484 -17 259.5 116 c 0,7,8
 138 244.769230769 138 244.769230769 138 446 c 0,9,10
 138 646.025862069 138 646.025862069 259 778.5 c 0,11,12
 383.677165354 915 383.677165354 915 583 915 c 0,13,14
 784.112 915 784.112 915 908 781.5 c 0,15,16
 1029 651.112068966 1029 651.112068966 1029 448 c 0,0,1
805 443 m 0,17,18
 805 507 805 507 786 562.5 c 128,-1,19
 767 618 767 618 730.5 659 c 0,20,21
 651.268292683 748 651.268292683 748 522 748 c 128,-1,22
 392.679012346 748 392.679012346 748 309.5 660.5 c 0,23,24
 229 575.818181818 229 575.818181818 229 444 c 0,25,26
 229 311.727272727 229 311.727272727 309.5 226 c 0,27,28
 392.134146341 138 392.134146341 138 523 138 c 0,29,30
 652.662650602 138 652.662650602 138 730.5 226.5 c 0,31,32
 805 311.205479452 805 311.205479452 805 443 c 0,17,18
EndSplineSet
EndChar

StartChar: t3
Encoding: 212 3361 127
Width: 1944
GlyphClass: 2
Flags: MW
LayerCount: 2
Fore
SplineSet
1682 921 m 1,0,1
 1944 790 1944 790 1944 457 c 0,2,3
 1944 280 1944 280 1852.5 140.5 c 0,4,5
 1749.19354839 -17 1749.19354839 -17 1578 -17 c 0,6,7
 1374.68421053 -17 1374.68421053 -17 1297 106 c 1,8,9
 1221.30769231 -17 1221.30769231 -17 1002 -17 c 0,10,11
 847.449438202 -17 847.449438202 -17 755 76.5 c 0,12,13
 663 169.545454545 663 169.545454545 663 324 c 2,14,-1
 663 541 l 2,15,16
 663 678.072463768 663 678.072463768 557.5 727 c 0,17,18
 523 743 523 743 479.5 743 c 128,-1,19
 436 743 436 743 403.5 726 c 128,-1,20
 371 709 371 709 346.5 681 c 128,-1,21
 322 653 322 653 305.5 616.5 c 128,-1,22
 289 580 289 580 278.5 540.5 c 0,23,24
 259 467.142857143 259 467.142857143 259 389 c 0,25,26
 259 165.842696629 259 165.842696629 434 40 c 1,27,-1
 377 -26 l 1,28,29
 135 117 135 117 135 444 c 0,30,31
 135 638.333333333 135 638.333333333 234.5 771 c 0,32,33
 344.75 918 344.75 918 533 918 c 0,34,35
 669.419354839 918 669.419354839 918 771 817.5 c 0,36,37
 875 714.606382979 875 714.606382979 875 582 c 2,38,-1
 875 345 l 2,39,40
 875 260.191489362 875 260.191489362 922.5 194.5 c 0,41,42
 975.646153846 121 975.646153846 121 1049.82307692 121 c 128,-1,43
 1124 121 1124 121 1163.5 158 c 128,-1,44
 1203 195 1203 195 1203 264 c 2,45,-1
 1203 900 l 1,46,-1
 1404 900 l 1,47,-1
 1404 337 l 2,48,49
 1404 264.844444444 1404 264.844444444 1452.5 218.5 c 0,50,51
 1500.11627907 173 1500.11627907 173 1568.05813953 173 c 128,-1,52
 1636 173 1636 173 1681 204.5 c 128,-1,53
 1726 236 1726 236 1755 284.5 c 0,54,55
 1812 379.827586207 1812 379.827586207 1812 502 c 0,56,57
 1812 683.962025316 1812 683.962025316 1694.5 797 c 0,58,59
 1655 835 1655 835 1601 861 c 1,60,-1
 1682 921 l 1,0,1
EndSplineSet
EndChar

StartChar: t4
Encoding: 213 3362 128
Width: 2067
GlyphClass: 2
Flags: MW
LayerCount: 2
Fore
SplineSet
1938 407 m 1,0,1
 1862 329 1862 329 1746 329 c 0,2,3
 1622.06024096 329 1622.06024096 329 1545.5 418.5 c 0,4,5
 1472 504.422535211 1472 504.422535211 1472 628 c 0,6,7
 1472 752.430379747 1472 752.430379747 1556.5 838 c 0,8,9
 1641.425 924 1641.425 924 1766 924 c 0,10,11
 1915.53508772 924 1915.53508772 924 1997.5 796 c 0,12,13
 2067 687.465753425 2067 687.465753425 2067 528 c 0,14,15
 2067 298.767857143 2067 298.767857143 1957 148.5 c 0,16,17
 1832.92156863 -21 1832.92156863 -21 1612 -21 c 0,18,19
 1489.04 -21 1489.04 -21 1429.52 -5 c 0,20,21
 1312.73799127 26.3930131004 1312.73799127 26.3930131004 1259 107 c 1,22,23
 1199.60830051 1.12784004847 1199.60830051 1.12784004847 1049.5 -13 c 0,24,25
 1007 -17 1007 -17 946.5 -17 c 128,-1,26
 886 -17 886 -17 824.5 7.5 c 128,-1,27
 763 32 763 32 721 77 c 0,28,29
 634 170.214285714 634 170.214285714 634 324 c 2,30,-1
 634 541 l 2,31,32
 634 679.96969697 634 679.96969697 537 727 c 0,33,34
 504 743 504 743 452.5 743 c 128,-1,35
 401 743 401 743 362 711.5 c 128,-1,36
 323 680 323 680 299 633 c 0,37,38
 255 546.833333333 255 546.833333333 255 458.916666667 c 128,-1,39
 255 371 255 371 267 315.5 c 128,-1,40
 279 260 279 260 303.5 210.5 c 0,41,42
 355.166712593 106.112152108 355.166712593 106.112152108 456 46 c 1,43,-1
 397 -21 l 1,44,45
 133 114.666666667 133 114.666666667 133 483 c 0,46,47
 133 667.368421053 133 667.368421053 228.5 788 c 0,48,49
 331.416666667 918 331.416666667 918 514 918 c 0,50,51
 647 918 647 918 748 817 c 0,52,53
 847 718 847 718 847 582 c 2,54,-1
 847 345 l 2,55,56
 847 260.913043478 847 260.913043478 894 194.5 c 0,57,58
 946.015384615 121 946.015384615 121 1027 121 c 0,59,60
 1084.66666667 121 1084.66666667 121 1117.33333333 149 c 0,61,62
 1175 198.428571429 1175 198.428571429 1175 255 c 2,63,-1
 1175 900 l 1,64,-1
 1375 900 l 1,65,-1
 1375 366 l 2,66,67
 1375 272.044776119 1375 272.044776119 1449.5 212 c 0,68,69
 1518.98148148 156 1518.98148148 156 1595.49074074 156 c 128,-1,70
 1672 156 1672 156 1724 175 c 128,-1,71
 1776 194 1776 194 1818 228 c 0,72,73
 1906.09280742 299.313225058 1906.09280742 299.313225058 1938 407 c 1,0,1
1932 552 m 128,-1,75
 1941 581 1941 581 1941 612.5 c 128,-1,76
 1941 644 1941 644 1931 674 c 128,-1,77
 1921 704 1921 704 1902 726.5 c 128,-1,78
 1883 749 1883 749 1856 763 c 128,-1,79
 1829 777 1829 777 1796 777 c 128,-1,80
 1763 777 1763 777 1738.5 763.5 c 128,-1,81
 1714 750 1714 750 1697 727.5 c 128,-1,82
 1680 705 1680 705 1671.5 677 c 128,-1,83
 1663 649 1663 649 1663 619 c 128,-1,84
 1663 589 1663 589 1671.5 559 c 128,-1,85
 1680 529 1680 529 1697.5 505.5 c 128,-1,86
 1715 482 1715 482 1740.5 467.5 c 128,-1,87
 1766 453 1766 453 1800 453 c 128,-1,88
 1834 453 1834 453 1860.5 466 c 128,-1,89
 1887 479 1887 479 1905 501 c 128,-1,74
 1923 523 1923 523 1932 552 c 128,-1,75
EndSplineSet
EndChar

StartChar: nh
Encoding: 214 3363 129
Width: 2207
GlyphClass: 2
Flags: MW
LayerCount: 2
Fore
SplineSet
1512 800 m 1,0,1
 1579.54054054 919 1579.54054054 919 1798 919 c 0,2,3
 1971.02325581 919 1971.02325581 919 2092 774.5 c 0,4,5
 2206 638.333333333 2206 638.333333333 2206 462 c 0,6,7
 2206 213.628318584 2206 213.628318584 2033.5 62.5 c 0,8,9
 1977 13 1977 13 1904 -20 c 1,10,-1
 1819 50 l 1,11,12
 1993 172.170212766 1993 172.170212766 1993 426 c 0,13,14
 1993 557.215384615 1993 557.215384615 1929.5 651 c 0,15,16
 1856.375 759 1856.375 759 1732 759 c 0,17,18
 1584 759 1584 759 1584 636 c 2,19,-1
 1584 0 l 1,20,-1
 1379 0 l 1,21,-1
 1379 636 l 2,22,23
 1379 693.909090909 1379 693.909090909 1329 728 c 0,24,25
 1286.46666667 757 1286.46666667 757 1242.23333333 757 c 128,-1,26
 1198 757 1198 757 1170 751 c 128,-1,27
 1142 745 1142 745 1119 731.5 c 0,28,29
 1065 699.804347826 1065 699.804347826 1065 646 c 2,30,-1
 1065 0 l 1,31,-1
 864 0 l 1,32,-1
 864 507 l 2,33,34
 864 696.970588235 864 696.970588235 702 733.5 c 0,35,36
 651 745 651 745 590.5 745 c 128,-1,37
 530 745 530 745 476.5 726.5 c 128,-1,38
 423 708 423 708 379.5 675 c 0,39,40
 289.132916341 606.445660672 289.132916341 606.445660672 255 492 c 1,41,42
 334 571 334 571 447 571 c 0,43,44
 570.361445783 571 570.361445783 571 648 481.5 c 0,45,46
 722 396.194444444 722 396.194444444 722 272 c 0,47,48
 722 147.333333333 722 147.333333333 647 64 c 0,49,50
 568.7 -23 568.7 -23 446 -23 c 0,51,52
 295.827586207 -23 295.827586207 -23 210 108 c 0,53,54
 136 220.947368421 136 220.947368421 136 354.473684211 c 128,-1,55
 136 488 136 488 176 586 c 128,-1,56
 216 684 216 684 286.5 758 c 0,57,58
 439.885135135 919 439.885135135 919 659.770692568 919 c 128,-1,59
 879.65625 919 879.65625 919 993 802 c 1,60,61
 1061.23529412 918 1061.23529412 918 1245.22958736 918 c 128,-1,62
 1429.2238806 918 1429.2238806 918 1512 800 c 1,0,1
397 449 m 0,63,64
 297.25862069 449 297.25862069 449 264.5 349 c 0,65,66
 255 320 255 320 255 289 c 128,-1,67
 255 258 255 258 265.5 228.5 c 128,-1,68
 276 199 276 199 294.5 176 c 0,69,70
 335.52173913 125 335.52173913 125 400 125 c 0,71,72
 461.6 125 461.6 125 499 174.5 c 0,73,74
 534 220.823529412 534 220.823529412 534 266.911764706 c 0,75,76
 534 347.314285714 534 347.314285714 496.927083333 398.157142857 c 128,-1,77
 459.854166667 449 459.854166667 449 397 449 c 0,63,64
EndSplineSet
EndChar

StartChar: th1
Encoding: 215 3364 130
Width: 1562
GlyphClass: 2
Flags: MW
LayerCount: 2
Fore
SplineSet
875 863 m 1,0,1
 1004.34615385 922 1004.34615385 922 1111.67307692 922 c 128,-1,2
 1219 922 1219 922 1301 886 c 128,-1,3
 1383 850 1383 850 1441.5 787 c 0,4,5
 1563 656.153846154 1563 656.153846154 1563 457 c 0,6,7
 1563 197.12195122 1563 197.12195122 1374.5 50 c 0,8,9
 1313 2 1313 2 1234 -25 c 1,10,-1
 1158 44 l 1,11,12
 1349 162.42 1349 162.42 1349 426 c 0,13,14
 1349 568.052631579 1349 568.052631579 1271 663.5 c 0,15,16
 1188.87096774 764 1188.87096774 764 1047 764 c 0,17,18
 1028.5 764 1028.5 764 1001 759 c 1,19,20
 1133 618.619047619 1133 618.619047619 1133 429 c 0,21,22
 1133 258.024390244 1133 258.024390244 1053 139 c 0,23,24
 960.245901639 1 960.245901639 1 798 1 c 0,25,26
 655.177570093 1 655.177570093 1 577 120.5 c 0,27,28
 509 224.442857143 509 224.442857143 509 373 c 0,29,30
 509 534.35483871 509 534.35483871 604 660 c 0,31,32
 635 701 635 701 675 734 c 1,33,34
 631 748 631 748 570.5 748 c 128,-1,35
 510 748 510 748 451 713.5 c 128,-1,36
 392 679 392 679 352 623.5 c 0,37,38
 270 509.725 270 509.725 270 361 c 0,39,40
 270 150.578947368 270 150.578947368 414 35 c 1,41,-1
 340 -25 l 1,42,43
 192.95112707 92.038898863 192.95112707 92.038898863 151 290.5 c 0,44,45
 138 352 138 352 138 436.5 c 128,-1,46
 138 521 138 521 173.5 614 c 128,-1,47
 209 707 209 707 273.5 775.5 c 0,48,49
 411.445255474 922 411.445255474 922 628 922 c 0,50,51
 759.034482759 922 759.034482759 922 875 863 c 1,0,1
767 204 m 0,52,53
 893 204 893 204 893 405 c 0,54,55
 893 582.034482759 893 582.034482759 785 677 c 1,56,57
 681.396579805 608.917752443 681.396579805 608.917752443 652 475 c 0,58,59
 643 434 643 434 643 398.5 c 128,-1,60
 643 363 643 363 648 329.5 c 128,-1,61
 653 296 653 296 666.5 268 c 0,62,63
 697.357142857 204 697.357142857 204 767 204 c 0,52,53
EndSplineSet
EndChar

StartChar: th2
Encoding: 216 3365 131
Width: 1454
GlyphClass: 2
Flags: MW
LayerCount: 2
Fore
SplineSet
1454 0 m 1,0,-1
 138 0 l 1,1,-1
 138 897 l 1,2,-1
 366 897 l 1,3,-1
 366 109 l 1,4,-1
 605 109 l 1,5,-1
 605 525 l 2,6,7
 605 704.242990654 605 704.242990654 718.5 813.5 c 0,8,9
 831.213592233 922 831.213592233 922 1009 922 c 0,10,11
 1222.57758621 922 1222.57758621 922 1338.5 803 c 0,12,13
 1454 684.433628319 1454 684.433628319 1454 471 c 2,14,-1
 1454 0 l 1,0,-1
1349 109 m 1,15,-1
 1349 449 l 2,16,17
 1349 656.666666667 1349 656.666666667 1213 719 c 0,18,19
 1165 741 1165 741 1101 741 c 128,-1,20
 1037 741 1037 741 989 724 c 128,-1,21
 941 707 941 707 906 675 c 0,22,23
 833 608.257142857 833 608.257142857 833 489 c 2,24,-1
 833 109 l 1,25,-1
 1349 109 l 1,15,-1
EndSplineSet
EndChar

StartChar: th3
Encoding: 217 3366 132
Width: 966
GlyphClass: 2
Flags: MW
LayerCount: 2
Fore
SplineSet
193 -19 m 1,0,1
 138 154.088235294 138 154.088235294 138 416 c 0,2,3
 138 618.50862069 138 618.50862069 259 763.5 c 0,4,5
 387.100719424 917 387.100719424 917 586 917 c 0,6,7
 733.913043478 917 733.913043478 917 838 850.5 c 0,8,9
 960 772.555555556 960 772.555555556 960 633 c 0,10,11
 960 567 960 567 926.5 513 c 128,-1,12
 893 459 893 459 833 431 c 1,13,14
 894 400 894 400 930 345 c 128,-1,15
 966 290 966 290 966 220.5 c 128,-1,16
 966 151 966 151 933 102 c 128,-1,17
 900 53 900 53 849 22.5 c 0,18,19
 751.180327869 -36 751.180327869 -36 632.740163934 -36 c 128,-1,20
 514.3 -36 514.3 -36 448 -2 c 1,21,-1
 448 123 l 1,22,23
 503 83 503 83 549.5 83 c 128,-1,24
 596 83 596 83 625 90.5 c 128,-1,25
 654 98 654 98 677.5 113 c 0,26,27
 730 146.510638298 730 146.510638298 730 207 c 0,28,29
 730 318 730 318 563 318 c 1,30,-1
 488 317 l 1,31,-1
 488 490 l 1,32,33
 509 489 509 489 529 489 c 2,34,-1
 569 489 l 2,35,36
 679 489 679 489 714.5 560 c 0,37,38
 727 585 727 585 727 620.5 c 128,-1,39
 727 656 727 656 714.5 683.5 c 128,-1,40
 702 711 702 711 680 729.5 c 0,41,42
 635.405405405 767 635.405405405 767 563.202702703 767 c 128,-1,43
 491 767 491 767 432 736.5 c 128,-1,44
 373 706 373 706 332 655.5 c 0,45,46
 246 549.573170732 246 549.573170732 246 406 c 0,47,48
 246 154.620689655 246 154.620689655 292 -4 c 1,49,-1
 193 -19 l 1,0,1
EndSplineSet
EndChar

StartChar: th4
Encoding: 218 3367 133
Width: 1528
GlyphClass: 2
Flags: MW
LayerCount: 2
Fore
SplineSet
958 385 m 2,0,1
 958 157 958 157 1144 157 c 0,2,3
 1268.91089109 157 1268.91089109 157 1346 271.5 c 0,4,5
 1414 372.5 1414 372.5 1414 504 c 0,6,7
 1414 663.052631579 1414 663.052631579 1288 799 c 0,8,9
 1250 840 1250 840 1206 871 c 1,10,-1
 1267 919 l 1,11,12
 1454.32832009 810.228717367 1454.32832009 810.228717367 1509.5 599 c 0,13,14
 1527 532 1527 532 1527 452.5 c 128,-1,15
 1527 373 1527 373 1504.5 288 c 128,-1,16
 1482 203 1482 203 1435.5 135 c 0,17,18
 1331.55882353 -17 1331.55882353 -17 1146 -17 c 0,19,20
 1041.5 -17 1041.5 -17 990.25 3.5 c 0,21,22
 898.139072848 40.3443708609 898.139072848 40.3443708609 847 118 c 1,23,24
 758.285714286 -17 758.285714286 -17 572 -17 c 0,25,26
 368.829268293 -17 368.829268293 -17 250 113.5 c 0,27,28
 134 240.892857143 134 240.892857143 134 444 c 0,29,30
 134 680.235849057 134 680.235849057 298 836.5 c 0,31,32
 351 887 351 887 420 919 c 1,33,-1
 500 859 l 1,34,35
 368.914600551 760.685950413 368.914600551 760.685950413 331.5 585 c 0,36,37
 320 531 320 531 320 475 c 128,-1,38
 320 419 320 419 333.5 355 c 128,-1,39
 347 291 347 291 377.5 238 c 0,40,41
 448.283018868 115 448.283018868 115 575 115 c 0,42,43
 674 115 674 115 724.5 172 c 128,-1,44
 775 229 775 229 775 325 c 2,45,-1
 775 900 l 1,46,-1
 958 900 l 1,47,-1
 958 385 l 2,0,1
EndSplineSet
EndChar

StartChar: n1
Encoding: 219 3368 134
Width: 1525
GlyphClass: 2
Flags: MW
LayerCount: 2
Fore
SplineSet
850 794 m 1,0,1
 901.057534247 887.605479452 901.057534247 887.605479452 1030 912 c 0,2,3
 1067 919 1067 919 1103 919 c 0,4,5
 1296.1328125 919 1296.1328125 919 1414.5 780 c 0,6,7
 1527 647.889908257 1527 647.889908257 1527 452 c 0,8,9
 1527 212.048076923 1527 212.048076923 1372 64.5 c 0,10,11
 1320 15 1320 15 1251 -20 c 1,12,-1
 1166 56 l 1,13,14
 1324 178.090909091 1324 178.090909091 1324 439 c 0,15,16
 1324 566.76119403 1324 566.76119403 1256.5 666.5 c 0,17,18
 1180.36363636 779 1180.36363636 779 1059 779 c 0,19,20
 932 779 932 779 932 630 c 2,21,-1
 932 -7 l 1,22,-1
 731 -7 l 1,23,-1
 731 521 l 2,24,25
 731 623 731 623 679.5 665.5 c 128,-1,26
 628 708 628 708 549.5 708 c 128,-1,27
 471 708 471 708 422.5 679 c 128,-1,28
 374 650 374 650 340 604 c 0,29,30
 269 507.941176471 269 507.941176471 269 393 c 0,31,32
 269 148.73 269 148.73 458 41 c 1,33,-1
 393 -20 l 1,34,35
 137 118.586466165 137 118.586466165 137 436 c 0,36,37
 137 627.551401869 137 627.551401869 247.5 768 c 0,38,39
 366.301470588 919 366.301470588 919 563.011846405 919 c 128,-1,40
 759.722222222 919 759.722222222 919 850 794 c 1,0,1
EndSplineSet
EndChar

StartChar: p1
Encoding: 221 3370 135
Width: 1564
GlyphClass: 2
Flags: MW
LayerCount: 2
Fore
SplineSet
789 99 m 1,0,-1
 1336 99 l 1,1,-1
 1336 895 l 1,2,-1
 1564 895 l 1,3,-1
 1564 -10 l 1,4,-1
 577 -10 l 1,5,-1
 577 59 l 1,6,7
 621 88 621 88 645 135.5 c 128,-1,8
 669 183 669 183 669 232 c 128,-1,9
 669 281 669 281 653.5 320 c 128,-1,10
 638 359 638 359 609.5 388 c 0,11,12
 548.568965517 450 548.568965517 450 457 450 c 0,13,14
 364.542372881 450 364.542372881 450 307.5 386.5 c 0,15,16
 253 325.830188679 253 325.830188679 253 232 c 0,17,18
 253 104.571428571 253 104.571428571 349 36 c 1,19,-1
 279 -21 l 1,20,21
 134 89.7638888889 134 89.7638888889 134 279 c 0,22,23
 134 443.346938776 134 443.346938776 237 549.5 c 0,24,25
 341.306930693 657 341.306930693 657 506 657 c 0,26,27
 658.644444444 657 658.644444444 657 761 563 c 0,28,29
 867 465.653061224 867 465.653061224 867 330.813017099 c 128,-1,30
 867 195.972972973 867 195.972972973 789 99 c 1,0,-1
EndSplineSet
EndChar

StartChar: p2
Encoding: 222 3371 136
Width: 1931
GlyphClass: 2
Flags: MW
LayerCount: 2
Fore
SplineSet
869 300 m 0,0,1
 869 207 869 207 792 108 c 1,2,-1
 1077 108 l 1,3,-1
 1077 525 l 2,4,5
 1077 703.824074074 1077 703.824074074 1192 813.5 c 0,6,7
 1305.76699029 922 1305.76699029 922 1484 922 c 0,8,9
 1811.8742515 922 1811.8742515 922 1902 662.5 c 0,10,11
 1931 579 1931 579 1931 471 c 2,12,-1
 1931 0 l 1,13,-1
 578 0 l 1,14,-1
 579 69 l 1,15,16
 671 131.046511628 671 131.046511628 671 235 c 0,17,18
 671 329 671 329 611.5 388.5 c 0,19,20
 550 450 550 450 459 450 c 0,21,22
 366.542372881 450 366.542372881 450 309.5 386.5 c 0,23,24
 255 325.830188679 255 325.830188679 255 232 c 0,25,26
 255 103.857142857 255 103.857142857 350 36 c 1,27,-1
 280 -21 l 1,28,29
 135 89.7638888889 135 89.7638888889 135 279 c 0,30,31
 135 444.897959184 135 444.897959184 238 550 c 0,32,33
 342.86 657 342.86 657 507 657 c 0,34,35
 660.04494382 657 660.04494382 657 763 563.5 c 0,36,37
 869 467.234693878 869 467.234693878 869 300 c 0,0,1
1832 108 m 1,38,-1
 1832 449 l 2,39,40
 1832 652.37755102 1832 652.37755102 1688 718.5 c 0,41,42
 1639 741 1639 741 1577 741 c 128,-1,43
 1515 741 1515 741 1467 723.5 c 128,-1,44
 1419 706 1419 706 1383.5 673.5 c 0,45,46
 1309 605.295774648 1309 605.295774648 1309 489 c 2,47,-1
 1309 108 l 1,48,-1
 1832 108 l 1,38,-1
EndSplineSet
EndChar

StartChar: p3
Encoding: 223 3372 137
Width: 2036
GlyphClass: 2
Flags: MW
LayerCount: 2
Fore
SplineSet
931 789 m 1,0,1
 998.783783784 921 998.783783784 921 1189 921 c 0,2,3
 1368.37815126 921 1368.37815126 921 1485 792.5 c 0,4,5
 1599 666.888888889 1599 666.888888889 1599 488 c 0,6,7
 1599 307.129032258 1599 307.129032258 1510 176.5 c 0,8,9
 1479 131 1479 131 1437 99 c 1,10,-1
 1805 99 l 1,11,-1
 1805 884 l 1,12,-1
 2034 884 l 1,13,-1
 2034 -8 l 1,14,-1
 1200 -8 l 1,15,-1
 1199 70 l 1,16,17
 1382 181.833333333 1382 181.833333333 1382 464 c 0,18,19
 1382 581.692307692 1382 581.692307692 1332 674 c 0,20,21
 1271.875 785 1271.875 785 1163 785 c 0,22,23
 1091 785 1091 785 1053 743.5 c 128,-1,24
 1015 702 1015 702 1015 632 c 2,25,-1
 1015 0 l 1,26,-1
 805 0 l 1,27,-1
 805 578 l 2,28,29
 805 666.544117647 805 666.544117647 728 717.5 c 0,30,31
 660.755555556 762 660.755555556 762 582.877777778 762 c 128,-1,32
 505 762 505 762 454.5 739 c 128,-1,33
 404 716 404 716 365 678 c 0,34,35
 288.60952381 603.568253968 288.60952381 603.568253968 256 484 c 1,36,37
 324 561 324 561 427 561 c 0,38,39
 549.461538462 561 549.461538462 561 627 477 c 0,40,41
 702 395.75 702 395.75 702 272 c 0,42,43
 702 147.333333333 702 147.333333333 627 64 c 0,44,45
 548.7 -23 548.7 -23 426 -23 c 0,46,47
 276.008547009 -23 276.008547009 -23 199 109.5 c 0,48,49
 136 217.897058824 136 217.897058824 136 379 c 0,50,51
 136 595.285714286 136 595.285714286 257.5 751.5 c 0,52,53
 390.111111111 922 390.111111111 922 601 922 c 0,54,55
 845.5 922 845.5 922 931 789 c 1,0,1
374 437 m 0,56,57
 252 437 252 437 252 287 c 0,58,59
 252 178.531914894 252 178.531914894 318.5 137.5 c 0,60,61
 342 123 342 123 375.5 123 c 128,-1,62
 409 123 409 123 434 136.5 c 128,-1,63
 459 150 459 150 476 172.5 c 0,64,65
 511 218.823529412 511 218.823529412 511 265.411764706 c 128,-1,66
 511 312 511 312 502 340 c 128,-1,67
 493 368 493 368 475.5 389.5 c 0,68,69
 436.837209302 437 436.837209302 437 374 437 c 0,56,57
EndSplineSet
EndChar

StartChar: p4
Encoding: 224 3373 138
Width: 995
GlyphClass: 2
Flags: MW
LayerCount: 2
Fore
SplineSet
181 -22 m 1,0,1
 134 220.05 134 220.05 134 362.025 c 128,-1,2
 134 504 134 504 163 601 c 128,-1,3
 192 698 192 698 250.5 771 c 0,4,5
 377.116438356 929 377.116438356 929 602 929 c 0,6,7
 781.969230769 929 781.969230769 929 893.5 839.5 c 0,8,9
 996 757.24691358 996 757.24691358 996 637 c 0,10,11
 996 545.966101695 996 545.966101695 932.5 490 c 0,12,13
 870.096153846 435 870.096153846 435 781 435 c 0,14,15
 749 435 749 435 718.5 445.5 c 128,-1,16
 688 456 688 456 660 456 c 128,-1,17
 632 456 632 456 610.5 443 c 128,-1,18
 589 430 589 430 589 402 c 128,-1,19
 589 374 589 374 609.5 356.5 c 128,-1,20
 630 339 630 339 657 339 c 1,21,-1
 771 353 l 1,22,23
 916.5 353 916.5 353 963.5 259 c 0,24,25
 980 226 980 226 980 178 c 0,26,27
 980 -23 980 -23 664 -23 c 0,28,29
 496.333333333 -23 496.333333333 -23 378 17 c 1,30,-1
 354 151 l 1,31,32
 496.222222222 87 496.222222222 87 602 87 c 0,33,34
 704.125 87 704.125 87 748 126 c 0,35,36
 766 142 766 142 766 169 c 0,37,38
 766 235 766 235 699 235 c 0,39,40
 670 235 670 235 641.5 226.5 c 128,-1,41
 613 218 613 218 577.5 218 c 128,-1,42
 542 218 542 218 506.5 234.5 c 128,-1,43
 471 251 471 251 444.5 278.5 c 0,44,45
 387 338.169811321 387 338.169811321 387 419 c 0,46,47
 387 496.941176471 387 496.941176471 442.5 547 c 0,48,49
 496.826086957 596 496.826086957 596 574 596 c 1,50,-1
 689 580 l 1,51,52
 731 580 731 580 743.5 597.5 c 128,-1,53
 756 615 756 615 756 649 c 128,-1,54
 756 683 756 683 736.5 702.5 c 128,-1,55
 717 722 717 722 688.5 734 c 0,56,57
 636.25 756 636.25 756 562.625 756 c 128,-1,58
 489 756 489 756 428 721 c 128,-1,59
 367 686 367 686 327.5 629 c 0,60,61
 251 518.607594937 251 518.607594937 251 375.137130802 c 128,-1,62
 251 231.666666667 251 231.666666667 291 -3 c 1,63,-1
 181 -22 l 1,0,1
EndSplineSet
EndChar

StartChar: m1
Encoding: 225 3374 139
Width: 1053
GlyphClass: 2
Flags: MW
LayerCount: 2
Fore
SplineSet
1053 0 m 1,0,-1
 134 0 l 1,1,-1
 134 504 l 2,2,3
 134 697.81300813 134 697.81300813 266.5 812 c 0,4,5
 391.820754717 920 391.820754717 920 588 920 c 0,6,7
 777.7 920 777.7 920 909 819 c 0,8,9
 1053 708.230769231 1053 708.230769231 1053 524 c 2,10,-1
 1053 0 l 1,0,-1
380 729 m 1,11,12
 410 734 410 734 450 734 c 128,-1,13
 490 734 490 734 537.5 708.5 c 128,-1,14
 585 683 585 683 617.5 641 c 0,15,16
 683 556.353846154 683 556.353846154 683 435 c 0,17,18
 683 279.119402985 683 279.119402985 580.5 170.5 c 0,19,20
 547 135 547 135 504 110 c 1,21,-1
 844 110 l 1,22,-1
 844 485 l 2,23,24
 844 612.493670886 844 612.493670886 758.5 691.5 c 0,25,26
 675.712328767 768 675.712328767 768 547 768 c 0,27,28
 454.1 768 454.1 768 380 729 c 1,11,12
480 513.5 m 128,-1,30
 476 549 476 549 465 582 c 128,-1,31
 454 615 454 615 434.5 639 c 128,-1,32
 415 663 415 663 383 663 c 128,-1,33
 351 663 351 663 326.5 649 c 128,-1,34
 302 635 302 635 285.5 612.5 c 0,35,36
 252 566.818181818 252 566.818181818 252 503 c 2,37,-1
 252 110 l 1,38,-1
 284 110 l 2,39,40
 416.779220779 110 416.779220779 110 466.5 311.5 c 0,41,42
 484 382.421052632 484 382.421052632 484 430.210526316 c 128,-1,29
 484 478 484 478 480 513.5 c 128,-1,30
EndSplineSet
EndChar

StartChar: y1
Encoding: 226 3375 140
Width: 1614
GlyphClass: 2
Flags: MW
LayerCount: 2
Fore
SplineSet
904 11 m 1,0,1
 720.155711775 -51.7760984183 720.155711775 -51.7760984183 498.5 13 c 0,2,3
 272.018310082 79.1864299302 272.018310082 79.1864299302 180.5 276 c 0,4,5
 134 376 134 376 134 483 c 128,-1,6
 134 590 134 590 156 663.5 c 128,-1,7
 178 737 178 737 221.5 793.5 c 0,8,9
 317.353982301 918 317.353982301 918 482 918 c 0,10,11
 605.413793103 918 605.413793103 918 676 829 c 0,12,13
 699 800 699 800 712 764 c 1,14,15
 760 837 760 837 838.5 878.5 c 128,-1,16
 917 920 917 920 1000.5 920 c 128,-1,17
 1084 920 1084 920 1147 890.5 c 128,-1,18
 1210 861 1210 861 1253.5 810.5 c 0,19,20
 1344 705.436781609 1344 705.436781609 1344 550 c 0,21,22
 1344 333 1344 333 1212 183 c 0,23,24
 1168 133 1168 133 1108 103 c 1,25,26
 1133 98 1133 98 1154 98 c 0,27,28
 1293.78947368 98 1293.78947368 98 1394.5 227 c 0,29,30
 1489 348.04494382 1489 348.04494382 1489 490 c 0,31,32
 1489 591 1489 591 1447 684 c 128,-1,33
 1405 777 1405 777 1332 847 c 1,34,-1
 1411 920 l 1,35,36
 1555.06498998 800.456710438 1555.06498998 800.456710438 1597.5 615 c 0,37,38
 1611 556 1611 556 1611 467.5 c 128,-1,39
 1611 379 1611 379 1573 283.5 c 128,-1,40
 1535 188 1535 188 1466.5 120.5 c 0,41,42
 1322.9037037 -21 1322.9037037 -21 1091 -21 c 0,43,44
 1000 -21 1000 -21 904 11 c 1,0,1
1100.5 408.5 m 0,45,46
 1112 459 1112 459 1112 505 c 128,-1,47
 1112 551 1112 551 1102.5 597.5 c 128,-1,48
 1093 644 1093 644 1071.5 684 c 0,49,50
 1022.05 776 1022.05 776 932 776 c 0,51,52
 840 776 840 776 791 681.5 c 0,53,54
 752 606.285714286 752 606.285714286 752 530.642857143 c 128,-1,55
 752 455 752 455 762 403.5 c 128,-1,56
 772 352 772 352 794 305 c 0,57,58
 841.940105696 202.582501468 841.940105696 202.582501468 931 159 c 1,59,60
 1062.78 242.86 1062.78 242.86 1100.5 408.5 c 0,45,46
737 101 m 1,61,62
 558 238.979166667 558 238.979166667 558 511 c 0,63,64
 558 664.333333333 558 664.333333333 489 729.5 c 0,65,66
 462 755 462 755 420 755 c 128,-1,67
 378 755 378 755 347.5 732.5 c 128,-1,68
 317 710 317 710 297.5 676 c 0,69,70
 259 608.871794872 259 608.871794872 259 518.935897436 c 128,-1,71
 259 429 259 429 291.5 350 c 128,-1,72
 324 271 324 271 382 215.5 c 0,73,74
 503.747747748 99 503.747747748 99 697 99 c 0,75,76
 717 99 717 99 737 101 c 1,61,62
EndSplineSet
EndChar

StartChar: r3
Encoding: 227 3376 141
Width: 1070
GlyphClass: 2
Flags: MW
LayerCount: 2
Fore
SplineSet
380 31 m 1,0,-1
 310 -27 l 1,1,2
 182.621444201 77.7334792123 182.621444201 77.7334792123 148 282 c 0,3,4
 138 341 138 341 138 422.5 c 128,-1,5
 138 504 138 504 170.5 599 c 128,-1,6
 203 694 203 694 264 766 c 0,7,8
 397.013888889 923 397.013888889 923 613 923 c 0,9,10
 823.739130435 923 823.739130435 923 952 773 c 0,11,12
 1073 631.491525424 1073 631.491525424 1073 417 c 0,13,14
 1073 253.052631579 1073 253.052631579 999 125.5 c 0,15,16
 911.687022901 -25 911.687022901 -25 756 -25 c 0,17,18
 620.895833333 -25 620.895833333 -25 542.5 81 c 0,19,20
 471 177.676056338 471 177.676056338 471 315 c 0,21,22
 471 446.952380952 471 446.952380952 535.5 556.5 c 0,23,24
 603.954108216 672.763326653 603.954108216 672.763326653 717 713 c 1,25,26
 657.5 747 657.5 747 580.25 747 c 128,-1,27
 503 747 503 747 443 712.5 c 128,-1,28
 383 678 383 678 343.5 622 c 0,29,30
 265 510.708860759 265 510.708860759 265 334.10443038 c 128,-1,31
 265 157.5 265 157.5 380 31 c 1,0,-1
812 618 m 1,32,33
 715.48899929 597.893541519 715.48899929 597.893541519 654.5 524.5 c 0,34,35
 593 450.491525424 593 450.491525424 593 346 c 0,36,37
 593 235.304347826 593 235.304347826 657 188 c 0,38,39
 680 171 680 171 718 171 c 128,-1,40
 756 171 756 171 785 198.5 c 128,-1,41
 814 226 814 226 830.5 265.5 c 0,42,43
 861 338.515151515 861 338.515151515 861 436.403409091 c 128,-1,44
 861 534.291666667 861 534.291666667 812 618 c 1,32,33
EndSplineSet
EndChar

StartChar: rh
Encoding: 228 3377 142
Width: 1023
GlyphClass: 2
Flags: MW
LayerCount: 2
Fore
SplineSet
256 366 m 0,0,1
 256 176.545454545 256 176.545454545 418 44 c 1,2,-1
 355 -19 l 1,3,4
 191.530099459 93.0071540743 191.530099459 93.0071540743 145.5 293 c 0,5,6
 131 356 131 356 131 438.5 c 128,-1,7
 131 521 131 521 163.5 611 c 128,-1,8
 196 701 196 701 255.5 768.5 c 0,9,10
 384.637037037 915 384.637037037 915 590 915 c 0,11,12
 782.634920635 915 782.634920635 915 905.5 778 c 0,13,14
 1022 648.097345133 1022 648.097345133 1022 451 c 0,15,16
 1022 228.309278351 1022 228.309278351 870.5 69 c 0,17,18
 822 18 822 18 760 -20 c 1,19,-1
 687 65 l 1,20,21
 823 194.523809524 823 194.523809524 823 369 c 0,22,23
 823 506.439393939 823 506.439393939 759 600.5 c 0,24,25
 685.175257732 709 685.175257732 709 555 709 c 0,26,27
 418.4 709 418.4 709 334 603.5 c 0,28,29
 256 506 256 506 256 366 c 0,0,1
EndSplineSet
EndChar

StartChar: l3
Encoding: 229 3378 143
Width: 1415
GlyphClass: 2
Flags: MW
LayerCount: 2
Fore
SplineSet
1416 0 m 1,0,-1
 133 0 l 1,1,-1
 133 459 l 2,2,3
 133 788.443037975 133 788.443037975 362 887 c 0,4,5
 441 921 441 921 551 921 c 128,-1,6
 661 921 661 921 745.5 887.5 c 128,-1,7
 830 854 830 854 887 792.5 c 0,8,9
 1002 668.421052632 1002 668.421052632 1002 449 c 2,10,-1
 1002 300 l 1,11,-1
 363 300 l 1,12,-1
 363 109 l 1,13,-1
 1191 109 l 1,14,-1
 1191 896 l 1,15,-1
 1416 896 l 1,16,-1
 1416 0 l 1,0,-1
882 397 m 1,17,-1
 882 484 l 2,18,19
 882 606.337837838 882 606.337837838 804 687.5 c 0,20,21
 723.753246753 771 723.753246753 771 604 771 c 0,22,23
 493.043478261 771 493.043478261 771 427 697.5 c 0,24,25
 363 626.274193548 363 626.274193548 363 515 c 2,26,-1
 363 397 l 1,27,-1
 882 397 l 1,17,-1
EndSplineSet
EndChar

StartChar: lh
Encoding: 230 3379 144
Width: 1152
GlyphClass: 2
Flags: MW
LayerCount: 2
Fore
SplineSet
274 612 m 1,0,1
 350.481481481 671 350.481481481 671 422.740740741 671 c 128,-1,2
 495 671 495 671 540.5 645.5 c 128,-1,3
 586 620 586 620 617.5 578.5 c 0,4,5
 681 494.841269841 681 494.841269841 681 378 c 0,6,7
 681 256.107692308 681 256.107692308 615.5 176.5 c 0,8,9
 543.506329114 89 543.506329114 89 428 89 c 0,10,11
 291.242424242 89 291.242424242 89 210.5 198.5 c 0,12,13
 136 299.534246575 136 299.534246575 136 423.767123288 c 128,-1,14
 136 548 136 548 175 636.5 c 128,-1,15
 214 725 214 725 282.5 786.5 c 0,16,17
 424.512195122 914 424.512195122 914 644 914 c 2,18,-1
 698 914 l 2,19,20
 863.309090909 914 863.309090909 914 996.5 833.5 c 0,21,22
 1150 740.725274725 1150 740.725274725 1150 583 c 0,23,24
 1150 490.886363636 1150 490.886363636 1079 421.5 c 0,25,26
 1057 400 1057 400 1032 386 c 1,27,28
 1083.0497561 365.20195122 1083.0497561 365.20195122 1118 309.5 c 0,29,30
 1151 256.90625 1151 256.90625 1151 197 c 0,31,32
 1151 85 1151 85 1088 22 c 128,-1,33
 1025 -41 1025 -41 912 -41 c 2,34,-1
 401 -41 l 2,35,36
 383 -41 383 -41 365 -51.5 c 128,-1,37
 347 -62 347 -62 347 -77.5 c 128,-1,38
 347 -93 347 -93 352 -100.5 c 128,-1,39
 357 -108 357 -108 365 -112.5 c 0,40,41
 380.111111111 -121 380.111111111 -121 401 -121 c 2,42,-1
 1134 -121 l 1,43,-1
 1134 -297 l 1,44,-1
 387 -297 l 2,45,46
 229.880597015 -297 229.880597015 -297 174.5 -206.5 c 0,47,48
 154 -173 154 -173 154 -122 c 128,-1,49
 154 -71 154 -71 173.5 -36 c 128,-1,50
 193 -1 193 -1 225.5 20.5 c 0,51,52
 285.209302326 60 285.209302326 60 387 60 c 2,53,-1
 843 60 l 2,54,55
 884.176470588 60 884.176470588 60 914 99 c 0,56,57
 940 133 940 133 940 177 c 0,58,59
 940 252.434782609 940 252.434782609 890 272 c 0,60,61
 858.148698885 284.133828996 858.148698885 284.133828996 825.074349442 283.066914498 c 128,-1,62
 792 282 792 282 775 282 c 1,63,-1
 775 467 l 1,64,-1
 824 467 l 2,65,66
 886.5 467 886.5 467 905 541 c 0,67,68
 910 561 910 561 910 598 c 128,-1,69
 910 635 910 635 881.5 671 c 128,-1,70
 853 707 853 707 810.5 728.5 c 0,71,72
 732.418604651 768 732.418604651 768 623 768 c 2,73,-1
 569 768 l 2,74,75
 416.6 768 416.6 768 327 684 c 0,76,77
 295 654 295 654 274 612 c 1,0,1
264 421.5 m 128,-1,79
 264 378 264 378 272 348.5 c 128,-1,80
 280 319 280 319 296.5 294.5 c 0,81,82
 334.551020408 238 334.551020408 238 392 238 c 0,83,84
 447.85106383 238 447.85106383 238 482 291.5 c 0,85,86
 512 338.5 512 338.5 512 382.25 c 0,87,88
 512 458.5 512 458.5 477.166666667 510.75 c 128,-1,89
 442.333333333 563 442.333333333 563 385.123188406 563 c 128,-1,90
 327.913043478 563 327.913043478 563 295.956521739 514 c 128,-1,78
 264 465 264 465 264 421.5 c 128,-1,79
EndSplineSet
EndChar

StartChar: zh
Encoding: 231 3380 145
Width: 1066
GlyphClass: 2
Flags: MW
LayerCount: 2
Fore
SplineSet
592 363 m 1,0,1
 484 500.454545455 484 500.454545455 484 612 c 0,2,3
 484 739.131578947 484 739.131578947 564 826.5 c 0,4,5
 645.036144578 915 645.036144578 915 773 915 c 0,6,7
 901.865853659 915 901.865853659 915 984.5 827 c 0,8,9
 1065 741.272727273 1065 741.272727273 1065 611 c 0,10,11
 1065 456.23255814 1065 456.23255814 920 363.5 c 0,12,13
 877 336 877 336 828 318 c 1,14,15
 863 254.176470588 863 254.176470588 863 194.588235294 c 128,-1,16
 863 135 863 135 836.5 97 c 128,-1,17
 810 59 810 59 769.5 33.5 c 0,18,19
 687.705882353 -18 687.705882353 -18 591 -18 c 0,20,21
 380.763157895 -18 380.763157895 -18 288 123 c 1,22,-1
 362 193 l 1,23,24
 414.888888889 108 414.888888889 108 537 108 c 0,25,26
 584.433333333 108 584.433333333 108 608.716666667 131.5 c 0,27,28
 651 172.419354839 651 172.419354839 651 211.209677419 c 128,-1,29
 651 250 651 250 641 276 c 1,30,31
 607 272 607 272 563 272 c 128,-1,32
 519 272 519 272 466 281 c 128,-1,33
 413 290 413 290 364 308.5 c 128,-1,34
 315 327 315 327 273 355 c 128,-1,35
 231 383 231 383 200 421.5 c 0,36,37
 133 504.709677419 133 504.709677419 133 619 c 0,38,39
 133 764.108108108 133 764.108108108 257 868 c 0,40,41
 294 899 294 899 338 920 c 1,42,-1
 417 868 l 1,43,44
 309 772.96 309 772.96 309 638 c 0,45,46
 309 444.854166667 309 444.854166667 455 382.5 c 0,47,48
 503 362 503 362 566 362 c 2,49,-1
 579 362 l 1,50,-1
 592 363 l 1,0,1
768 407 m 1,51,52
 916 472.777777778 916 472.777777778 916 581 c 0,53,54
 916 651.588235294 916 651.588235294 891 691.294117647 c 0,55,56
 844.592592593 765 844.592592593 765 778 765 c 0,57,58
 728.025641026 765 728.025641026 765 699.5 720.5 c 0,59,60
 676 683.84 676 683.84 676 638.92 c 128,-1,61
 676 594 676 594 683 565 c 128,-1,62
 690 536 690 536 702 509.5 c 0,63,64
 720.385321101 468.899082569 720.385321101 468.899082569 768 407 c 1,51,52
EndSplineSet
EndChar

StartChar: v1
Encoding: 232 3381 146
Width: 1428
GlyphClass: 2
Flags: MW
LayerCount: 2
Fore
SplineSet
894 99 m 1,0,-1
 1195 99 l 1,1,-1
 1196 895 l 1,2,-1
 1427 895 l 1,3,-1
 1427 -8 l 1,4,-1
 662 -8 l 1,5,-1
 661 70 l 1,6,7
 776.280376977 143.89767755 776.280376977 143.89767755 809 289.5 c 0,8,9
 819 334 819 334 819 387 c 128,-1,10
 819 440 819 440 803 499.5 c 128,-1,11
 787 559 787 559 754.5 606 c 0,12,13
 681.893617021 711 681.893617021 711 553 711 c 0,14,15
 416.425742574 711 416.425742574 711 334 598.5 c 0,16,17
 260 497.5 260 497.5 260 356 c 0,18,19
 260 267 260 267 297.5 185.5 c 128,-1,20
 335 104 335 104 404 47 c 1,21,-1
 331 -27 l 1,22,23
 186.839002268 94.0952380952 186.839002268 94.0952380952 148 298 c 0,24,25
 136 361 136 361 136 444 c 128,-1,26
 136 527 136 527 167.5 617 c 128,-1,27
 199 707 199 707 258.5 774 c 0,28,29
 387.268656716 919 387.268656716 919 594 919 c 0,30,31
 791.414634146 919 791.414634146 919 916.5 787.5 c 0,32,33
 1040 657.666666667 1040 657.666666667 1040 448.413333333 c 128,-1,34
 1040 239.16 1040 239.16 894 99 c 1,0,-1
EndSplineSet
EndChar

StartChar: z1
Encoding: 233 3382 147
Width: 1556
GlyphClass: 2
Flags: MW
LayerCount: 2
Fore
SplineSet
431 830 m 1,0,1
 263 714.137931034 263 714.137931034 263 503 c 0,2,3
 263 376.894736842 263 376.894736842 317.5 276.5 c 0,4,5
 384 154 384 154 499 154 c 0,6,7
 616.662337662 154 616.662337662 154 628 299.5 c 0,8,9
 631 338 631 338 631 374 c 2,10,-1
 631 537 l 2,11,12
 631 712.105263158 631 712.105263158 754 820 c 0,13,14
 872.56 924 872.56 924 1049 924 c 0,15,16
 1274.39130435 924 1274.39130435 924 1415 777 c 0,17,18
 1553 632.727272727 1553 632.727272727 1553 405 c 0,19,20
 1553 209.444444444 1553 209.444444444 1452 86 c 0,21,22
 1394.96289753 16.2879858657 1394.96289753 16.2879858657 1300.5 -10.5 c 0,23,24
 1267 -20 1267 -20 1211 -20 c 128,-1,25
 1155 -20 1155 -20 1100.5 15 c 128,-1,26
 1046 50 1046 50 1011 105 c 0,27,28
 944 210.285714286 944 210.285714286 944 361 c 0,29,30
 944 568.240963855 944 568.240963855 1063.5 693.5 c 0,31,32
 1105 737 1105 737 1163 764 c 1,33,34
 1105 793 1105 793 1040.5 793 c 128,-1,35
 976 793 976 793 936.5 764.5 c 128,-1,36
 897 736 897 736 873 692 c 0,37,38
 827 607.666666667 827 607.666666667 827 496 c 2,39,-1
 827 305 l 2,40,41
 827 76.6756756757 827 76.6756756757 663.5 4.5 c 0,42,43
 608 -20 608 -20 521.5 -20 c 128,-1,44
 435 -20 435 -20 360.5 21.5 c 128,-1,45
 286 63 286 63 235 130.5 c 0,46,47
 132 266.823529412 132 266.823529412 132 458 c 0,48,49
 132 767.079365079 132 767.079365079 376 922 c 1,50,-1
 431 830 l 1,0,1
1345 319.5 m 128,-1,52
 1352 364 1352 364 1352 416 c 128,-1,53
 1352 468 1352 468 1333.5 537.5 c 128,-1,54
 1315 607 1315 607 1274 665 c 1,55,56
 1193.26179057 631.523181455 1193.26179057 631.523181455 1134.5 539.5 c 0,57,58
 1077 449.452830189 1077 449.452830189 1077 361 c 0,59,60
 1077 226.367346939 1077 226.367346939 1141.5 164.5 c 0,61,62
 1166 141 1166 141 1206 141 c 128,-1,63
 1246 141 1246 141 1274.5 168.5 c 128,-1,64
 1303 196 1303 196 1320.5 235.5 c 128,-1,51
 1338 275 1338 275 1345 319.5 c 128,-1,52
EndSplineSet
EndChar

StartChar: sh
Encoding: 234 3383 148
Width: 1784
GlyphClass: 2
Flags: MW
LayerCount: 2
Fore
SplineSet
709 106 m 1,0,-1
 1076 109 l 1,1,-1
 1076 367 l 1,2,3
 955.892857143 379.642857143 955.892857143 379.642857143 878.5 450 c 0,4,5
 794 526.818181818 794 526.818181818 794 643 c 0,6,7
 794 750.838235294 794 750.838235294 867 833.5 c 0,8,9
 941.623376623 918 941.623376623 918 1049 918 c 0,10,11
 1242 918 1242 918 1270 729 c 0,12,13
 1282.0239521 647.838323353 1282.0239521 647.838323353 1277 472 c 1,14,15
 1429.69484937 517.163265306 1429.69484937 517.163265306 1539 621.5 c 0,16,17
 1658.84210526 735.894736842 1658.84210526 735.894736842 1680 884 c 1,18,-1
 1782 884 l 1,19,-1
 1782 -1 l 1,20,21
 1464 0 1464 0 1151 0 c 2,22,-1
 520 0 l 1,23,-1
 520 59 l 1,24,25
 601 118.684210526 601 118.684210526 601 219 c 0,26,27
 601 299.625 601 299.625 550 357 c 0,28,29
 498.444444444 415 498.444444444 415 417 415 c 0,30,31
 334.181818182 415 334.181818182 415 285.5 355.5 c 0,32,33
 239 298.666666667 239 298.666666667 239 216 c 0,34,35
 239 102 239 102 323 38 c 1,36,-1
 261 -14 l 1,37,38
 134 86.7936507937 134 86.7936507937 134 259 c 0,39,40
 134 406.071428571 134 406.071428571 222 503.5 c 0,41,42
 312.774193548 604 312.774193548 604 459 604 c 0,43,44
 594.891566265 604 594.891566265 604 684.5 516.5 c 0,45,46
 775 428.129411765 775 428.129411765 775 305.064705882 c 128,-1,47
 775 182 775 182 709 106 c 1,0,-1
1583 515 m 1,48,49
 1459.97034736 409.271392262 1459.97034736 409.271392262 1277 374 c 1,50,-1
 1277 109 l 1,51,-1
 1583 109 l 1,52,-1
 1583 515 l 1,48,49
1076 668 m 2,53,54
 1076 715 1076 715 1044.5 736 c 0,55,56
 1034 743 1034 743 1018 743 c 128,-1,57
 1002 743 1002 743 989.5 734.5 c 128,-1,58
 977 726 977 726 969 713 c 0,59,60
 954 688.625 954 688.625 954 655.8125 c 128,-1,61
 954 623 954 623 962.5 594 c 128,-1,62
 971 565 971 565 986.5 540 c 0,63,64
 1021.21947054 484.000853971 1021.21947054 484.000853971 1076 467 c 1,65,-1
 1076 668 l 2,53,54
EndSplineSet
EndChar

StartChar: s1
Encoding: 235 3384 149
Width: 1974
GlyphClass: 2
Flags: MW
LayerCount: 2
Fore
SplineSet
1719 922 m 5,0,1
 1973 777.940298507 1973 777.940298507 1973 452 c 4,2,3
 1973 264.346938776 1973 264.346938776 1874 131 c 4,4,5
 1765.60606061 -15 1765.60606061 -15 1582 -15 c 4,6,7
 1434 -15 1434 -15 1337 82 c 4,8,9
 1239 180 1239 180 1239 326 c 6,10,-1
 1239 624 l 6,11,12
 1239 746.014492754 1239 746.014492754 1124.5 787.5 c 4,13,14
 1090 800 1090 800 1056.5 800 c 132,-1,15
 1023 800 1023 800 994.5 792.5 c 132,-1,16
 966 785 966 785 943.5 769 c 4,17,18
 892 732.377777778 892 732.377777778 892 674 c 6,19,-1
 892 0 l 5,20,-1
 686 0 l 5,21,-1
 686 563 l 6,22,23
 686 636.166666667 686 636.166666667 626 679.5 c 4,24,25
 571.307692308 719 571.307692308 719 502.653846154 719 c 132,-1,26
 434 719 434 719 390.5 688.5 c 132,-1,27
 347 658 347 658 319.5 611.5 c 4,28,29
 266 521.036363636 266 521.036363636 266 400 c 4,30,31
 266 228.14084507 266 228.14084507 373.5 105.5 c 4,32,33
 409 65 409 65 456 36 c 5,34,-1
 382 -24 l 5,35,36
 199.326923077 80.3846153846 199.326923077 80.3846153846 150 304 c 4,37,38
 135 372 135 372 135 452.5 c 128,-1,39
 135 533 135 533 161.5 618 c 132,-1,40
 188 703 188 703 240 770 c 4,41,42
 354.865671642 918 354.865671642 918 541 918 c 4,43,44
 681.093023256 918 681.093023256 918 754.5 864.5 c 4,45,46
 784 843 784 843 810 809 c 5,47,48
 878.514285714 918 878.514285714 918 1088 918 c 4,49,50
 1221.56962025 918 1221.56962025 918 1326 835.5 c 4,51,52
 1438 747.02 1438 747.02 1438 616 c 6,53,-1
 1438 359 l 6,54,55
 1438 277.306122449 1438 277.306122449 1489.5 219.5 c 4,56,57
 1542.50909091 160 1542.50909091 160 1612.75454545 160 c 132,-1,58
 1683 160 1683 160 1725.5 189.5 c 132,-1,59
 1768 219 1768 219 1795 264 c 4,60,61
 1847 350.666666667 1847 350.666666667 1847 467 c 4,62,63
 1847 738 1847 738 1649 848 c 5,64,-1
 1719 922 l 5,0,1
EndSplineSet
EndChar

